<svg width="16" height="16" viewBox="0 0 16 16" fill="none" xmlns="http://www.w3.org/2000/svg">
<g clip-path="url(#clip0_2574_78836)">
<path d="M13.5452 2.90818C12.5078 2.43176 11.413 2.09193 10.2882 1.89718C10.278 1.89546 10.2675 1.89695 10.2582 1.90142C10.2489 1.9059 10.2412 1.91315 10.2362 1.92218C10.0952 2.17218 9.93917 2.49918 9.83017 2.75518C8.61776 2.57134 7.38457 2.57134 6.17217 2.75518C6.05109 2.46976 5.91353 2.19163 5.76017 1.92218C5.75515 1.91315 5.74745 1.9059 5.73814 1.90142C5.72883 1.89695 5.71836 1.89546 5.70817 1.89718C4.58317 2.09118 3.48817 2.43118 2.45117 2.90818C2.44225 2.91149 2.43481 2.91787 2.43017 2.92618C0.356169 6.02518 -0.212831 9.04818 0.0661689 12.0332C0.0681689 12.0478 0.0751689 12.0602 0.0871689 12.0702C1.29514 12.9644 2.64593 13.6474 4.08217 14.0902C4.09231 14.0934 4.10321 14.0933 4.11328 14.0898C4.12335 14.0864 4.13207 14.0799 4.13817 14.0712C4.44684 13.6512 4.7195 13.2082 4.95617 12.7422C4.96109 12.7326 4.96277 12.7217 4.96097 12.711C4.95917 12.7004 4.95398 12.6906 4.94617 12.6832L4.92817 12.6722C4.49753 12.5061 4.0803 12.3072 3.68017 12.0772C3.669 12.0708 3.66069 12.0605 3.65697 12.0482C3.65325 12.0359 3.65439 12.0226 3.66017 12.0112L3.67517 11.9922C3.75984 11.9288 3.8425 11.8638 3.92317 11.7972C3.93024 11.7915 3.93872 11.7878 3.9477 11.7866C3.95668 11.7854 3.96583 11.7866 3.97417 11.7902C6.59317 12.9862 9.42817 12.9862 12.0152 11.7902C12.0238 11.7862 12.0333 11.7848 12.0427 11.786C12.0521 11.7872 12.0609 11.7911 12.0682 11.7972C12.1488 11.8638 12.2315 11.9288 12.3162 11.9922C12.3232 11.997 12.3289 12.0035 12.3327 12.0112C12.3365 12.0188 12.3383 12.0273 12.3379 12.0358C12.3375 12.0443 12.3349 12.0526 12.3304 12.0598C12.3259 12.0671 12.3196 12.073 12.3122 12.0772C11.9138 12.3109 11.4959 12.5096 11.0632 12.6712C11.0563 12.6737 11.05 12.6777 11.0448 12.6828C11.0396 12.688 11.0357 12.6943 11.0332 12.7012C11.0307 12.7078 11.0297 12.7149 11.0303 12.722C11.0308 12.7291 11.0328 12.7359 11.0362 12.7422C11.2762 13.2072 11.5512 13.6512 11.8532 14.0712C11.8593 14.0799 11.868 14.0864 11.8781 14.0898C11.8881 14.0933 11.899 14.0934 11.9092 14.0902C13.3482 13.6498 14.7014 12.9667 15.9102 12.0702C15.9162 12.0659 15.9212 12.0604 15.9248 12.054C15.9284 12.0476 15.9306 12.0405 15.9312 12.0332C16.2652 8.58218 15.3722 5.58418 13.5652 2.92718C13.5636 2.92264 13.561 2.91855 13.5575 2.91524C13.554 2.91194 13.5498 2.90951 13.5452 2.90818ZM5.34717 10.2152C4.55817 10.2152 3.90917 9.49118 3.90917 8.60318C3.90917 7.71518 4.54617 6.99018 5.34717 6.99018C6.15417 6.99018 6.79717 7.72018 6.78517 8.60318C6.78517 9.49118 6.14817 10.2152 5.34717 10.2152ZM10.6632 10.2152C9.87517 10.2152 9.22517 9.49118 9.22517 8.60318C9.22517 7.71518 9.86217 6.99018 10.6632 6.99018C11.4702 6.99018 12.1142 7.72018 12.1012 8.60318C12.1012 9.49118 11.4702 10.2152 10.6632 10.2152Z" fill="white"/>
</g>
<defs>
<clipPath id="clip0_2574_78836">
<rect width="16" height="16" fill="white"/>
</clipPath>
</defs>
</svg>
