<svg width="32" height="32" viewBox="0 0 32 32" fill="none" xmlns="http://www.w3.org/2000/svg">
<path fill-rule="evenodd" clip-rule="evenodd" d="M5.18341 3.82555C5.06521 4.09305 5 4.42081 5 4.80207V26.918C5 27.3001 5.06531 27.6279 5.18361 27.8953L17.2175 15.8597L5.18341 3.82555ZM5.87861 28.6145C6.32461 28.8054 6.90651 28.7449 7.54101 28.385L21.6981 20.3403L17.9246 16.5668L5.87861 28.6145ZM22.6005 19.8285L27.042 17.305C28.439 16.51 28.439 15.211 27.042 14.417L22.5985 11.8922L18.6317 15.8596L22.6005 19.8285ZM21.6968 11.3797L7.54101 3.33607C6.90651 2.9755 6.32461 2.91533 5.87851 3.10647L17.9246 15.1525L21.6968 11.3797Z" fill="white"/>
</svg>
