<svg width="49" height="48" viewBox="0 0 49 48" fill="none" xmlns="http://www.w3.org/2000/svg">
<path d="M18.25 18V30H30.25V18H18.25ZM27.85 27.6H20.65V20.4H27.85V27.6Z" fill="white"/>
<path d="M42.25 20.1429V17.5714H37.1071V13.7143C37.1071 13.0323 36.8362 12.3782 36.354 11.896C35.8718 11.4138 35.2177 11.1429 34.5357 11.1429H30.6786V6H28.1071V11.1429H20.3929V6H17.8214V11.1429H13.9643C13.2823 11.1429 12.6282 11.4138 12.146 11.896C11.6638 12.3782 11.3929 13.0323 11.3929 13.7143V17.5714H6.25V20.1429H11.3929V27.8571H6.25V30.4286H11.3929V34.2857C11.3929 34.9677 11.6638 35.6218 12.146 36.104C12.6282 36.5862 13.2823 36.8571 13.9643 36.8571H17.8214V42H20.3929V36.8571H28.1071V42H30.6786V36.8571H34.5357C35.2177 36.8571 35.8718 36.5862 36.354 36.104C36.8362 35.6218 37.1071 34.9677 37.1071 34.2857V30.4286H42.25V27.8571H37.1071V20.1429H42.25ZM34.5357 34.2857H13.9643V13.7143H34.5357V34.2857Z" fill="white"/>
</svg>
