<svg width="34" height="40" viewBox="0 0 34 40" fill="none" xmlns="http://www.w3.org/2000/svg">
<path d="M18.6162 39.0324H10.4599V36.3136H18.6162V39.0324ZM21.3359 33.5949H7.74115V30.8761H21.3359V33.5949ZM26.6425 21.0626C25.7946 22.5192 24.7061 23.8217 23.4228 24.9142C22.0514 26.1862 21.3359 26.9075 21.3359 28.1574H18.6162C18.6162 25.6574 20.1214 24.2621 21.5771 22.9132C22.5652 22.0741 23.4223 21.092 24.121 20.0001L26.6425 21.0626ZM11.8183 4.0431C9.48657 4.64655 7.42126 6.00699 5.94525 7.91029C4.46921 9.81371 3.66599 12.153 3.66205 14.5617C3.56669 16.16 3.86602 17.7574 4.53314 19.213C5.20033 20.6687 6.21513 21.9381 7.48822 22.9093C8.94922 24.2595 10.4589 25.655 10.4589 28.1564H7.74017C7.74015 26.9078 7.02176 26.1867 5.64642 24.9161C4.09821 23.6864 2.86461 22.1059 2.04682 20.3058C1.22902 18.5056 0.851009 16.5367 0.9433 14.5617C0.948819 11.5237 1.97084 8.57445 3.84662 6.1847C5.72242 3.79511 8.34424 2.10206 11.2939 1.37513L11.8183 4.0431ZM21.3818 1.07337C22.6482 0.867357 23.9455 0.96382 25.1679 1.35365C26.3904 1.74351 27.5036 2.41629 28.4169 3.31751C29.3303 4.21877 30.0186 5.32297 30.4247 6.54017C30.8309 7.7573 30.9439 9.05331 30.7548 10.3224C30.5657 11.5915 30.0793 12.798 29.3359 13.8439L33.5703 18.0783L31.6484 20.0011L27.414 15.7667C26.1955 16.6364 24.7607 17.1533 23.2675 17.2609C21.7742 17.3684 20.2798 17.0615 18.9492 16.3751C17.6185 15.6888 16.5027 14.6494 15.7245 13.3702C14.9464 12.0912 14.5358 10.6223 14.538 9.12513C14.5373 7.84195 14.8393 6.57612 15.4199 5.43177C16.0004 4.28754 16.8431 3.29648 17.8788 2.53919C18.9147 1.78185 20.1152 1.27946 21.3818 1.07337ZM23.7558 3.79212C22.7011 3.58233 21.6077 3.68925 20.6142 4.10072C19.6207 4.51225 18.7713 5.20953 18.1738 6.10365C17.5763 6.99789 17.2568 8.04963 17.2568 9.12513C17.2584 10.5667 17.8323 11.9485 18.8515 12.9679C19.8709 13.9873 21.2535 14.561 22.6953 14.5626C23.7705 14.5626 24.8217 14.2439 25.7158 13.6466C26.6099 13.0491 27.3071 12.1997 27.7187 11.2062C28.1302 10.2127 28.238 9.11929 28.0283 8.06458C27.8184 7.00975 27.3005 6.03992 26.54 5.27943C25.7795 4.5191 24.8105 4.00193 23.7558 3.79212Z" fill="white"/>
</svg>
