<svg width="48" height="48" viewBox="0 0 48 48" fill="none" xmlns="http://www.w3.org/2000/svg">
<path d="M22.6738 9.54917C23.4061 8.81694 24.5939 8.81694 25.3262 9.54917L38.4512 22.6742C38.5371 22.7601 38.6136 22.8552 38.6816 22.9564C38.7034 22.9888 38.7226 23.0226 38.7422 23.056C38.7537 23.0757 38.7665 23.0945 38.7773 23.1146C38.7915 23.141 38.8026 23.1688 38.8154 23.1957C38.8298 23.2259 38.8456 23.2554 38.8584 23.2865C38.8663 23.3058 38.8726 23.3256 38.8799 23.3451C38.8937 23.3821 38.9074 23.4193 38.9189 23.4574C38.9275 23.4858 38.9342 23.5146 38.9414 23.5433C38.9487 23.5725 38.957 23.6015 38.9629 23.6312C38.9699 23.6665 38.9745 23.7021 38.9795 23.7377C38.9916 23.8236 39 23.9111 39 24.0003C39 24.0893 38.9915 24.1764 38.9795 24.2621C38.9745 24.2976 38.9699 24.3332 38.9629 24.3685C38.957 24.3982 38.9487 24.4272 38.9414 24.4564C38.9342 24.4851 38.9275 24.5139 38.9189 24.5423C38.9074 24.5805 38.8937 24.6176 38.8799 24.6546C38.8726 24.6741 38.8663 24.694 38.8584 24.7132C38.8456 24.7443 38.8298 24.7738 38.8154 24.8041C38.8026 24.831 38.7915 24.8587 38.7773 24.8851C38.7666 24.9052 38.7537 24.924 38.7422 24.9437C38.7226 24.9772 38.7034 25.0109 38.6816 25.0433C38.6135 25.1448 38.5373 25.2404 38.4512 25.3265L25.3262 38.4515C24.5939 39.1838 23.4061 39.1838 22.6738 38.4515C21.9416 37.7193 21.9416 36.5314 22.6738 35.7992L32.5986 25.8753H10.875C9.83947 25.8753 9 25.0359 9 24.0003C9 22.9648 9.83947 22.1253 10.875 22.1253H32.5986L22.6738 12.2015C21.9416 11.4693 21.9416 10.2814 22.6738 9.54917Z" fill="white"/>
</svg>
