<svg width="24" height="10" viewBox="0 0 11 10" fill="none" xmlns="http://www.w3.org/2000/svg">
<path fill-rule="evenodd" clip-rule="evenodd" d="M5.94194 0.183058C5.69786 -0.0610194 5.30214 -0.0610194 5.05806 0.183058C4.81398 0.427136 4.81398 0.822864 5.05806 1.06694L8.36612 4.375L1.125 4.375C0.779822 4.375 0.5 4.65482 0.5 5C0.5 5.34518 0.779822 5.625 1.125 5.625L8.36612 5.625L5.05806 8.93306C4.81398 9.17714 4.81398 9.57286 5.05806 9.81694C5.30214 10.061 5.69786 10.061 5.94194 9.81694L10.3169 5.44194C10.3769 5.38202 10.4221 5.31295 10.4526 5.23924C10.4819 5.16848 10.4986 5.09116 10.4999 5.01009C10.5 5.00674 10.5 5.00337 10.5 5C10.5 4.99663 10.5 4.99326 10.4999 4.98991C10.4986 4.90884 10.4819 4.83152 10.4526 4.76076C10.4221 4.68705 10.3769 4.61798 10.3169 4.55806L5.94194 0.183058Z" fill="#090A09"/>
</svg>
