<svg width="49" height="48" viewBox="0 0 49 48" fill="none" xmlns="http://www.w3.org/2000/svg">
<path fill-rule="evenodd" clip-rule="evenodd" d="M23.7194 8.95974C24.0562 8.80379 24.4442 8.80379 24.781 8.95974L37.4126 14.8102C37.8592 15.017 38.1449 15.4643 38.1449 15.9563V30.5825C38.1449 31.0332 37.9047 31.4498 37.5146 31.6756L24.883 38.9885C24.4917 39.2151 24.0087 39.2151 23.6174 38.9885L10.9857 31.6756C10.5956 31.4498 10.3555 31.0332 10.3555 30.5825V15.9563C10.3555 15.4643 10.6412 15.017 11.0878 14.8102L23.7194 8.95974ZM12.8818 18.0034L22.987 23.0738V35.7046L12.8818 29.8541V18.0034ZM25.5134 35.7046L35.6186 29.8541V18.0034L25.5134 23.0738V35.7046ZM24.2502 20.8812L33.9745 16.0019L24.2502 11.498L14.526 16.0019L24.2502 20.8812Z" fill="white"/>
<path fill-rule="evenodd" clip-rule="evenodd" d="M0.25 1.26316C0.25 0.565541 0.815541 0 1.51316 0H9.0921C9.78972 0 10.3553 0.565541 10.3553 1.26316C10.3553 1.96077 9.78972 2.52632 9.0921 2.52632H2.77632V8.8421C2.77632 9.53972 2.21077 10.1053 1.51316 10.1053C0.815541 10.1053 0.25 9.53972 0.25 8.8421V1.26316Z" fill="white"/>
<path fill-rule="evenodd" clip-rule="evenodd" d="M46.9866 0C47.6842 0 48.2498 0.565541 48.2498 1.26316V8.8421C48.2498 9.53972 47.6842 10.1053 46.9866 10.1053C46.2891 10.1053 45.7235 9.53972 45.7235 8.8421V2.52632H39.4077C38.7102 2.52632 38.1445 1.96077 38.1445 1.26316C38.1445 0.565541 38.7102 0 39.4077 0H46.9866Z" fill="white"/>
<path fill-rule="evenodd" clip-rule="evenodd" d="M1.51316 47.9998C0.815541 47.9998 0.25 47.4342 0.25 46.7366V39.1577C0.25 38.4602 0.815541 37.8945 1.51316 37.8945C2.21077 37.8945 2.77632 38.4602 2.77632 39.1577V45.4735H9.0921C9.78972 45.4735 10.3553 46.0391 10.3553 46.7366C10.3553 47.4342 9.78972 47.9998 9.0921 47.9998H1.51316Z" fill="white"/>
<path fill-rule="evenodd" clip-rule="evenodd" d="M48.2498 46.7366C48.2498 47.4342 47.6842 47.9998 46.9866 47.9998H39.4077C38.7102 47.9998 38.1445 47.4342 38.1445 46.7366C38.1445 46.0391 38.7102 45.4735 39.4077 45.4735H45.7235V39.1577C45.7235 38.4602 46.2891 37.8945 46.9866 37.8945C47.6842 37.8945 48.2498 38.4602 48.2498 39.1577V46.7366Z" fill="white"/>
</svg>
