<svg width="24" height="25" viewBox="0 0 24 25" fill="none" xmlns="http://www.w3.org/2000/svg">
<path d="M20.4 0.5H3.6C1.61177 0.5 0 2.11177 0 4.1V20.9C0 22.8882 1.61177 24.5 3.6 24.5H20.4C22.3882 24.5 24 22.8882 24 20.9V4.1C24 2.11177 22.3882 0.5 20.4 0.5Z" fill="#5865F2"/>
<path d="M17.5653 7.51348C19.3723 10.1286 20.2647 13.0784 19.9311 16.4743C19.9297 16.4887 19.9221 16.5018 19.9101 16.5105C18.5417 17.4995 17.2159 18.0998 15.9087 18.4978C15.8986 18.5008 15.8876 18.5007 15.8776 18.4973C15.8675 18.494 15.8587 18.4876 15.8525 18.4791C15.5505 18.0655 15.2761 17.6295 15.0357 17.1716C15.0219 17.1446 15.0345 17.1121 15.0629 17.1015C15.4987 16.9398 15.9131 16.7462 16.3117 16.5168C16.3431 16.4987 16.3451 16.4544 16.3161 16.4331C16.2315 16.3713 16.1477 16.3063 16.0675 16.2414C16.0525 16.2294 16.0323 16.227 16.0153 16.2351C13.4275 17.4113 10.5927 17.4113 7.97435 16.2351C7.95733 16.2276 7.93714 16.2302 7.92254 16.242C7.84255 16.3069 7.75855 16.3713 7.67476 16.4331C7.64575 16.4544 7.64813 16.4987 7.67975 16.5168C8.07834 16.7418 8.49275 16.9398 8.92792 17.1023C8.95612 17.1129 8.96952 17.1446 8.95552 17.1716C8.72033 17.63 8.44593 18.0661 8.13833 18.4797C8.12493 18.4964 8.10293 18.5041 8.08213 18.4978C6.78113 18.0998 5.45535 17.4995 4.08694 16.5105C4.07555 16.5018 4.06734 16.4881 4.06614 16.4737C3.78734 13.5363 4.35555 10.5621 6.42973 7.5129C6.43475 7.50484 6.44235 7.49852 6.45113 7.49479C7.47176 7.03374 8.56513 6.69454 9.70794 6.50084C9.72874 6.4977 9.74954 6.50712 9.76032 6.52526C9.90153 6.77133 10.0629 7.08691 10.1721 7.3448C11.3767 7.16367 12.6001 7.16367 13.8299 7.3448C13.9391 7.09241 14.0949 6.77133 14.2355 6.52526C14.2405 6.51626 14.2483 6.50906 14.2577 6.50467C14.2671 6.50028 14.2777 6.49894 14.2879 6.50084C15.4313 6.69513 16.5247 7.03433 17.5445 7.49479C17.5535 7.49852 17.5609 7.50484 17.5653 7.51348ZM10.7845 13.0985C10.7971 12.2301 10.1539 11.5116 9.34655 11.5116C8.54574 11.5116 7.90874 12.2238 7.90874 13.0985C7.90874 13.9729 8.55833 14.6852 9.34655 14.6852C10.1475 14.6852 10.7845 13.9729 10.7845 13.0985ZM16.1009 13.0985C16.1135 12.2301 15.4703 11.5116 14.6631 11.5116C13.8621 11.5116 13.2251 12.2238 13.2251 13.0985C13.2251 13.9729 13.8747 14.6852 14.6631 14.6852C15.4703 14.6852 16.1009 13.9729 16.1009 13.0985Z" fill="white"/>
</svg>
