<svg width="31" height="30" viewBox="0 0 31 30" fill="none" xmlns="http://www.w3.org/2000/svg">
<rect x="0.5" width="30" height="30" rx="15" fill="white"/>
<path fill-rule="evenodd" clip-rule="evenodd" d="M14.2501 9.03725H18.833C19.938 9.03725 20.9977 9.48662 21.779 10.2865C22.5603 11.0864 22.9993 12.1713 22.9993 13.3026V17.9944C23.0051 18.164 22.9767 18.3331 22.916 18.491C22.8552 18.649 22.7634 18.7924 22.6461 18.9125C22.5289 19.0325 22.3888 19.1265 22.2345 19.1887C22.0802 19.2509 21.9151 19.2799 21.7494 19.274H18.4164C18.2507 19.2799 18.0855 19.2509 17.9313 19.1887C17.777 19.1265 17.6369 19.0325 17.5196 18.9125C17.4024 18.7924 17.3105 18.649 17.2498 18.491C17.189 18.3331 17.1607 18.164 17.1665 17.9944V15.0087H9.25062C9.08492 15.0146 8.91979 14.9856 8.76551 14.9234C8.61124 14.8612 8.47112 14.7672 8.35388 14.6471C8.23663 14.5271 8.14478 14.3837 8.08403 14.2257C8.02327 14.0678 7.99492 13.8987 8.00074 13.7291V10.3168C7.99492 10.1472 8.02327 9.97814 8.08403 9.8202C8.14478 9.66225 8.23663 9.5188 8.35388 9.39877C8.47112 9.27874 8.61124 9.1847 8.76551 9.12251C8.91979 9.06031 9.08492 9.03129 9.25062 9.03725H12.5836V7.33112H10.5005C10.2795 7.33112 10.0676 7.24125 9.9113 7.08127C9.75503 6.92129 9.66725 6.70431 9.66725 6.47806C9.66725 6.25182 9.75503 6.03484 9.9113 5.87486C10.0676 5.71488 10.2795 5.625 10.5005 5.625H16.3333C16.5542 5.625 16.7662 5.71488 16.9224 5.87486C17.0787 6.03484 17.1665 6.25182 17.1665 6.47806C17.1665 6.70431 17.0787 6.92129 16.9224 7.08127C16.7662 7.24125 16.5542 7.33112 16.3333 7.33112H14.2501V9.03725ZM18.833 17.5679H21.3328V13.3026C21.3328 12.6238 21.0694 11.9729 20.6006 11.4929C20.1318 11.013 19.496 10.7434 18.833 10.7434H9.66725V13.3026H17.5831C17.7488 13.2966 17.914 13.3256 18.0682 13.3878C18.2225 13.45 18.3626 13.5441 18.4799 13.6641C18.5971 13.7841 18.689 13.9276 18.7497 14.0855C18.8105 14.2434 18.8388 14.4125 18.833 14.5821V17.5679ZM18.8326 21.5772L20.0825 20.127L21.3324 21.5772C21.4783 21.7434 21.59 21.938 21.6609 22.1495C21.7317 22.3609 21.7602 22.5847 21.7446 22.8077C21.7291 23.0306 21.6698 23.2481 21.5703 23.447C21.4709 23.646 21.3333 23.8224 21.1657 23.9657C20.8639 24.2301 20.4797 24.3753 20.0825 24.3753C19.6853 24.3753 19.3011 24.2301 18.9993 23.9657C18.8317 23.8224 18.6941 23.646 18.5946 23.447C18.4952 23.2481 18.4359 23.0306 18.4203 22.8077C18.4048 22.5847 18.4333 22.3609 18.5041 22.1495C18.5749 21.938 18.6867 21.7434 18.8326 21.5772Z" fill="#090A09"/>
</svg>
