<svg width="16" height="16" viewBox="0 0 16 16" fill="none" xmlns="http://www.w3.org/2000/svg">
<path d="M4.06105 12.8469C4.03179 12.9203 4.08584 13 4.16483 13C4.20086 13 4.23467 12.9826 4.25565 12.9533L8.14255 7.52688C8.19383 7.43011 8.16534 7.38172 8.05708 7.38172H6.78645C6.63222 7.38172 6.53603 7.21452 6.61355 7.08119L8.14255 4.45161C8.19383 4.35484 8.15395 4.30645 8.02859 4.30645H5.8576C5.80268 4.30645 5.75651 4.33122 5.71142 4.38075C5.69826 4.3952 5.68867 4.41245 5.68144 4.43062L4.118 8.35727C4.11154 8.3735 4.10679 8.3905 4.10626 8.40796C4.10382 8.48724 4.13917 8.52688 4.21653 8.52688H5.48846C5.62986 8.52688 5.72661 8.66961 5.67424 8.80095L4.06105 12.8469ZM8.88577 9.49067C8.86548 9.54151 8.90293 9.59677 8.95766 9.59677C8.98254 9.59677 9.00589 9.58482 9.02044 9.56465L11.9717 5.47312C12.0002 5.43011 12.0059 5.39247 11.9945 5.36559C11.9831 5.33871 11.9489 5.32796 11.8976 5.32796H11.0462C10.8925 5.32796 10.7963 5.16181 10.8727 5.02848L11.9432 3.16129C12.0116 3.05376 11.9774 3 11.8406 3H10.2794C10.2053 3 10.1483 3.03226 10.1084 3.10215L8.9232 6.04839C8.9061 6.09677 8.9061 6.13441 8.9289 6.16129C8.95169 6.18817 8.98588 6.19892 9.03716 6.19892H9.90442C10.0458 6.19892 10.1426 6.34171 10.0902 6.47306L8.88577 9.49067Z" fill="url(#paint0_linear_3006_1077)"/>
<defs>
<linearGradient id="paint0_linear_3006_1077" x1="8" y1="3" x2="8" y2="13" gradientUnits="userSpaceOnUse">
<stop stop-color="#55FFDD"/>
<stop offset="1" stop-color="#00A29F"/>
</linearGradient>
</defs>
</svg>
