<svg width="24" height="25" viewBox="0 0 24 25" fill="none" xmlns="http://www.w3.org/2000/svg">
<path d="M20.4 0.5H3.6C1.61177 0.5 0 2.11177 0 4.1V20.9C0 22.8882 1.61177 24.5 3.6 24.5H20.4C22.3882 24.5 24 22.8882 24 20.9V4.1C24 2.11177 22.3882 0.5 20.4 0.5Z" fill="white"/>
<path d="M7.40625 18.8281V12.1719L3.5625 9.21875V17.4219C3.5625 18.3594 4.03125 18.8281 4.96875 18.8281" fill="#4285F4"/>
<path d="M7.21875 12.125L12 15.7344L16.7812 12.125V7.53125L12 11.1406L7.21875 7.53125" fill="#EA4335"/>
<path d="M16.5938 18.8281V12.1719L20.4375 9.21875V17.4219C20.4375 18.3594 19.9688 18.8281 19.0312 18.8281" fill="#34A853"/>
<path d="M3.5625 9.31252L7.40625 12.2656V7.6719L6 6.59377C4.73438 5.6094 3.5625 6.59377 3.5625 7.81252" fill="#C5221F"/>
<path d="M20.4375 9.31252L16.5938 12.2656V7.6719L18 6.59377C19.2656 5.6094 20.4375 6.59377 20.4375 7.81252" fill="#FBBC04"/>
</svg>
