<svg width="49" height="48" viewBox="0 0 49 48" fill="none" xmlns="http://www.w3.org/2000/svg">
<path d="M37.25 9H12.25C11.587 9 10.9511 9.26339 10.4822 9.73223C10.0134 10.2011 9.75 10.837 9.75 11.5V36.5C9.75 37.163 10.0134 37.7989 10.4822 38.2678C10.9511 38.7366 11.587 39 12.25 39H37.25C37.913 39 38.5489 38.7366 39.0178 38.2678C39.4866 37.7989 39.75 37.163 39.75 36.5V11.5C39.75 10.837 39.4866 10.2011 39.0178 9.73223C38.5489 9.26339 37.913 9 37.25 9ZM17.25 29C17.0028 29 16.7611 28.9267 16.5555 28.7893C16.35 28.652 16.1898 28.4568 16.0952 28.2284C16.0005 27.9999 15.9758 27.7486 16.024 27.5061C16.0722 27.2637 16.1913 27.0409 16.3661 26.8661C16.5409 26.6913 16.7637 26.5723 17.0061 26.524C17.2486 26.4758 17.4999 26.5005 17.7284 26.5951C17.9568 26.6898 18.152 26.85 18.2893 27.0555C18.4267 27.2611 18.5 27.5028 18.5 27.75C18.4996 28.0814 18.3678 28.3991 18.1335 28.6335C17.8991 28.8678 17.5814 28.9996 17.25 29ZM37.25 16.5H34.5204C34.2255 15.666 33.6453 14.9631 32.8822 14.5155C32.1192 14.0679 31.2226 13.9044 30.3507 14.054C29.4788 14.2036 28.6879 14.6566 28.1177 15.3329C27.5475 16.0093 27.2348 16.8654 27.2348 17.75C27.2348 18.6346 27.5475 19.4907 28.1177 20.1671C28.6879 20.8434 29.4788 21.2964 30.3507 21.446C31.2226 21.5956 32.1192 21.4321 32.8822 20.9845C33.6453 20.5369 34.2255 19.834 34.5204 19H37.25V24H32.25V26.5H37.25V29H34.75V31.5H37.25V36.5H27.25V35.0204C28.084 34.7255 28.7869 34.1453 29.2345 33.3822C29.6821 32.6192 29.8456 31.7226 29.696 30.8507C29.5464 29.9788 29.0934 29.1879 28.4171 28.6177C27.7407 28.0475 26.8846 27.7348 26 27.7348C25.1154 27.7348 24.2593 28.0475 23.5829 28.6177C22.9066 29.1879 22.4536 29.9788 22.304 30.8507C22.1544 31.7226 22.3179 32.6192 22.7655 33.3822C23.2131 34.1453 23.916 34.7255 24.75 35.0204V36.5H18.5V31.2704C19.334 30.9755 20.0369 30.3953 20.4845 29.6322C20.9321 28.8692 21.0956 27.9726 20.946 27.1007C20.7964 26.2288 20.3434 25.4379 19.6671 24.8677C18.9907 24.2975 18.1346 23.9848 17.25 23.9848C16.3654 23.9848 15.5093 24.2975 14.8329 24.8677C14.1566 25.4379 13.7036 26.2288 13.554 27.1007C13.4044 27.9726 13.5679 28.8692 14.0155 29.6322C14.4631 30.3953 15.166 30.9755 16 31.2704V36.5H12.25V11.5H17.25V19H19.75V11.5H22.25V24H24.75V11.5H37.25V16.5ZM32.25 17.75C32.25 17.9972 32.1767 18.2389 32.0393 18.4445C31.902 18.65 31.7068 18.8102 31.4784 18.9049C31.2499 18.9995 30.9986 19.0242 30.7561 18.976C30.5137 18.9278 30.2909 18.8087 30.1161 18.6339C29.9413 18.4591 29.8223 18.2363 29.774 17.9939C29.7258 17.7514 29.7505 17.5001 29.8451 17.2716C29.9398 17.0432 30.1 16.848 30.3055 16.7107C30.5111 16.5733 30.7528 16.5 31 16.5C31.3314 16.5004 31.6491 16.6322 31.8835 16.8665C32.1178 17.1009 32.2496 17.4186 32.25 17.75Z" fill="white"/>
</svg>
