<svg width="49" height="48" viewBox="0 0 49 48" fill="none" xmlns="http://www.w3.org/2000/svg">
<path d="M38.4038 33C38.8933 32.9994 39.3625 32.8061 39.7086 32.4624C40.0547 32.1187 40.2494 31.6527 40.25 31.1667V12.8333C40.2494 12.3473 40.0547 11.8813 39.7086 11.5376C39.3625 11.1939 38.8933 11.0006 38.4038 11H10.0962C9.6067 11.0006 9.13745 11.1939 8.79136 11.5376C8.44526 11.8813 8.25057 12.3473 8.25 12.8333V31.1667C8.25057 31.6527 8.44526 32.1187 8.79136 32.4624C9.13745 32.8061 9.6067 32.9994 10.0962 33H38.4038ZM10.7115 13.4444H37.7885V30.5556H10.7115V13.4444Z" fill="white"/>
<path d="M42.25 36H6.25V39H42.25V36Z" fill="white"/>
</svg>
