<svg width="49" height="48" viewBox="0 0 49 48" fill="none" xmlns="http://www.w3.org/2000/svg">
<path d="M23.8143 33.7782C24.2829 33.3096 25.043 33.3097 25.5116 33.7782C25.9802 34.2468 25.9802 35.0068 25.5116 35.4755L18.6552 42.3329C18.2158 42.7722 17.52 42.7994 17.0487 42.4149L16.9579 42.3329L10.1005 35.4755L10.0184 35.3847C9.6337 34.9133 9.66102 34.2177 10.1005 33.7782C10.5399 33.3388 11.2356 33.3114 11.7069 33.6962L11.7977 33.7782L17.8056 39.786L23.8143 33.7782Z" fill="white"/>
<path d="M16.6064 41.4854V20.9141C16.6064 20.2513 17.1439 19.7139 17.8066 19.7139C18.4694 19.7139 19.0068 20.2513 19.0068 20.9141V41.4854C19.0068 42.1481 18.4694 42.6855 17.8066 42.6855C17.1439 42.6855 16.6065 42.1481 16.6064 41.4854Z" fill="white"/>
<path d="M31.2479 6.06913C31.7192 5.68456 32.4149 5.71177 32.8543 6.15116L39.7108 13.0086L39.7938 13.0994C40.1781 13.5707 40.1501 14.2666 39.7108 14.7058C39.2715 15.1448 38.5765 15.172 38.1053 14.7879L38.0135 14.7058L32.0047 8.69706L25.9969 14.7058C25.5283 15.1743 24.7682 15.1743 24.2996 14.7058C23.8311 14.2373 23.8312 13.4772 24.2996 13.0086L31.1571 6.15116L31.2479 6.06913Z" fill="white"/>
<path d="M30.8057 27.5713V7C30.8057 6.33726 31.3431 5.7998 32.0059 5.7998C32.6686 5.7998 33.2061 6.33726 33.2061 7V27.5713C33.206 28.234 32.6686 28.7715 32.0059 28.7715C31.3431 28.7715 30.8057 28.234 30.8057 27.5713Z" fill="white"/>
</svg>
