<svg width="40" height="40" viewBox="0 0 40 40" fill="none" xmlns="http://www.w3.org/2000/svg">
<path fill-rule="evenodd" clip-rule="evenodd" d="M24.1164 25.5562V11.1112C24.1164 10.8165 24.2404 10.5338 24.461 10.3254C24.6816 10.1171 24.9808 10 25.2929 10C25.6049 10 25.9041 10.1171 26.1247 10.3254C26.3454 10.5338 26.4693 10.8165 26.4693 11.1112V25.645L27.8928 23.9005C28.0847 23.6677 28.3666 23.5164 28.6766 23.48C28.9866 23.4435 29.2992 23.5248 29.5457 23.7061C29.7922 23.8873 29.9524 24.1536 29.991 24.4464C30.0296 24.7392 29.9435 25.0344 29.7516 25.2673L26.2222 29.5563C26.1125 29.6922 25.9709 29.8024 25.8087 29.8782C25.6465 29.954 25.468 29.9934 25.287 29.9934C25.106 29.9934 24.9274 29.954 24.7652 29.8782C24.603 29.8024 24.4615 29.6922 24.3517 29.5563L20.8224 25.1117C20.6696 24.9194 20.5871 24.6854 20.5871 24.445C20.5871 24.2725 20.6296 24.1024 20.7113 23.9481C20.793 23.7938 20.9116 23.6596 21.0577 23.5561C21.1813 23.4685 21.3219 23.4048 21.4716 23.3686C21.6212 23.3324 21.777 23.3244 21.9299 23.345C22.0828 23.3656 22.23 23.4145 22.3629 23.4889C22.4959 23.5632 22.612 23.6616 22.7047 23.7783L24.1164 25.5562ZM15.8822 14.4443L15.8822 28.8893C15.8822 29.184 15.7583 29.4666 15.5376 29.675C15.317 29.8834 15.0178 30.0005 14.7058 30.0005C14.3938 30.0005 14.0945 29.8834 13.8739 29.675C13.6533 29.4666 13.5293 29.184 13.5293 28.8893V14.3554L12.1058 16.0999C11.9134 16.3306 11.6322 16.4799 11.3236 16.5153C11.015 16.5507 10.7041 16.4693 10.4588 16.2888C10.3164 16.1853 10.2011 16.0524 10.1215 15.9002C10.042 15.7481 10.0004 15.5807 10 15.411C10.0008 15.1655 10.0877 14.9272 10.2471 14.7332L13.7764 10.4442C13.8862 10.3083 14.0277 10.1981 14.1899 10.1223C14.3521 10.0465 14.5307 10.0071 14.7117 10.0071C14.8926 10.0071 15.0712 10.0465 15.2334 10.1223C15.3956 10.1981 15.5371 10.3083 15.6469 10.4442L19.1763 14.8888C19.3635 15.1245 19.4438 15.4209 19.3997 15.7126C19.3556 16.0044 19.1906 16.2676 18.941 16.4444C18.6914 16.6212 18.3776 16.6971 18.0687 16.6555C17.7599 16.6138 17.4812 16.4579 17.2939 16.2222L15.8822 14.4443Z" fill="#090A09"/>
</svg>
