<svg width="48" height="48" viewBox="0 0 48 48" fill="none" xmlns="http://www.w3.org/2000/svg">
<path d="M44.3262 26.4473V33.7401C44.3262 36.8991 36.7076 41.0329 27.3096 41.0329C17.9116 41.0329 10.293 36.8991 10.293 33.7401C10.293 32.7008 10.293 30.675 10.293 27.6627" stroke="white" stroke-width="2" stroke-linecap="round" stroke-linejoin="round"/>
<path d="M11.0078 28.2917C13.1101 31.083 19.6133 33.7003 27.3101 33.7003C36.7081 33.7003 44.3267 29.7981 44.3267 26.4417C44.3267 24.5583 41.9278 22.494 38.1618 21.0449" stroke="white" stroke-width="2" stroke-linecap="round" stroke-linejoin="round"/>
<path d="M37.0332 14.293V21.5858C37.0332 24.7448 29.4146 28.8786 20.0166 28.8786C10.6186 28.8786 3 24.7448 3 21.5858C3 20.0269 3 15.8519 3 14.293" stroke="white" stroke-width="2" stroke-linecap="round" stroke-linejoin="round"/>
<path fill-rule="evenodd" clip-rule="evenodd" d="M20.0166 21.5459C29.4146 21.5459 37.0332 17.6436 37.0332 14.2872C37.0332 10.9308 29.4146 7 20.0166 7C10.6186 7 3 10.9308 3 14.2872C3 17.6436 10.6186 21.5459 20.0166 21.5459Z" stroke="white" stroke-width="2" stroke-linecap="round" stroke-linejoin="round"/>
</svg>
