<svg width="49" height="48" viewBox="0 0 49 48" fill="none" xmlns="http://www.w3.org/2000/svg">
<path d="M28.9945 22.1258H31.6883C32.275 22.1258 32.7508 22.6015 32.7508 23.1883C32.7508 23.7751 32.275 24.2508 31.6883 24.2508H16.8135C16.2267 24.2508 15.751 23.7751 15.751 23.1883C15.751 22.6015 16.2267 22.1258 16.8135 22.1258H18.4225C17.8222 21.4602 17.6886 20.4584 18.161 19.6402L23.4734 10.4388C24.0602 9.42245 25.3599 9.07423 26.3763 9.66102L31.897 12.8485C32.9133 13.4353 33.2616 14.7349 32.6749 15.7513L28.9945 22.1258ZM30.8345 14.6888L25.3138 11.5013L20.0013 20.7027L22.4662 22.1258H26.5407L30.8345 14.6888Z" fill="white"/>
<path d="M32.665 20.001L33.8911 17.8774C34.5308 17.9008 35.1274 18.2117 35.5131 18.726L40.8256 25.8091C41.1014 26.177 41.2506 26.6245 41.2506 27.0841V37.0007C41.2506 38.1744 40.2992 39.1257 39.1256 39.1257H9.37595C8.20237 39.1257 7.25098 38.1744 7.25098 37.0007V27.0841C7.25098 26.6245 7.40011 26.177 7.67597 25.8091L12.9884 18.726C13.3897 18.1909 14.0195 17.876 14.6884 17.876H16.7358L15.7171 19.6403C15.6496 19.7573 15.5945 19.878 15.5513 20.001H14.6884L9.90719 26.3759H38.5943L33.8131 20.001H32.665ZM9.37595 37.0007H39.1256V28.5008H9.37595V37.0007Z" fill="white"/>
</svg>
