<svg width="24" height="25" viewBox="0 0 24 25" fill="none" xmlns="http://www.w3.org/2000/svg">
<path d="M20.4 0.5H3.6C1.61177 0.5 0 2.11177 0 4.1V20.9C0 22.8882 1.61177 24.5 3.6 24.5H20.4C22.3882 24.5 24 22.8882 24 20.9V4.1C24 2.11177 22.3882 0.5 20.4 0.5Z" fill="white"/>
<path d="M13.3319 11.428L18.5437 5.5H17.3087L12.7833 10.6472L9.16883 5.5H5L10.4657 13.2835L5 19.5H6.2351L11.0141 14.0643L14.8312 19.5H19L13.3316 11.428H13.3319ZM11.6403 13.3521L11.0865 12.577L6.68013 6.40978H8.57717L12.1331 11.387L12.6869 12.162L17.3093 18.6316H15.4122L11.6403 13.3524V13.3521Z" fill="#141514"/>
</svg>
