<svg width="49" height="48" viewBox="0 0 49 48" fill="none" xmlns="http://www.w3.org/2000/svg">
<path d="M24.75 31C28.6161 31 31.75 27.8661 31.75 24C31.75 20.1339 28.6161 17 24.75 17C20.8839 17 17.75 20.1339 17.75 24C17.75 27.8661 20.8839 31 24.75 31Z" stroke="white" stroke-width="2.5" stroke-linecap="round" stroke-linejoin="round"/>
<path d="M38.4703 21.1117L36.4945 16.3406L39.15 13.2L35.55 9.6L32.4265 12.2693L27.554 10.2655L26.4335 6H22.9158L21.7784 10.322L17.0179 12.3287L13.95 9.6L10.35 13.2L12.9661 16.4199L11.0205 21.2033L6.75 22.2V25.8L11.072 26.9799L13.0783 31.7395L10.35 34.8L13.95 38.4L17.1741 35.7725L21.8646 37.7021L22.95 42H26.55L27.6381 37.7038L32.4092 35.7279C33.2044 36.2963 35.55 38.4 35.55 38.4L39.15 34.8L36.4786 31.6489L38.455 26.8764L42.7498 25.759L42.75 22.2L38.4703 21.1117Z" stroke="white" stroke-width="2.5" stroke-linecap="round" stroke-linejoin="round"/>
</svg>
