<svg width="49" height="48" viewBox="0 0 49 48" fill="none" xmlns="http://www.w3.org/2000/svg">
<path d="M42.675 22.5C42.318 18.2634 40.4729 14.2899 37.4665 11.2835C34.4601 8.27715 30.4866 6.432 26.25 6.075V0H23.25V6.075C19.0134 6.432 15.0399 8.27715 12.0335 11.2835C9.02715 14.2899 7.182 18.2634 6.825 22.5H0.75V25.5H6.825C7.182 29.7366 9.02715 33.7101 12.0335 36.7165C15.0399 39.7229 19.0134 41.568 23.25 41.925V48H26.25V41.925C30.4866 41.568 34.4601 39.7229 37.4665 36.7165C40.4729 33.7101 42.318 29.7366 42.675 25.5H48.75V22.5H42.675ZM39.675 25.5C39.329 28.9428 37.8035 32.1601 35.3568 34.6068C32.9101 37.0535 29.6928 38.579 26.25 38.925V33H23.25V38.925C19.8072 38.579 16.5899 37.0535 14.1432 34.6068C11.6965 32.1601 10.171 28.9428 9.825 25.5H15.75V22.5H9.825C10.171 19.0572 11.6965 15.8399 14.1432 13.3932C16.5899 10.9465 19.8072 9.42097 23.25 9.075V15H26.25V9.075C29.6928 9.42097 32.9101 10.9465 35.3568 13.3932C37.8035 15.8399 39.329 19.0572 39.675 22.5H33.75V25.5H39.675Z" fill="white"/>
<path d="M24.75 27C26.4069 27 27.75 25.6569 27.75 24C27.75 22.3431 26.4069 21 24.75 21C23.0931 21 21.75 22.3431 21.75 24C21.75 25.6569 23.0931 27 24.75 27Z" fill="white"/>
</svg>
