<svg width="32" height="32" viewBox="0 0 32 32" fill="none" xmlns="http://www.w3.org/2000/svg">
<path d="M2.66699 0H29.3337V6.86762C29.3337 7.57015 28.9651 8.22116 28.3627 8.58261L16.0003 16L3.638 8.58261C3.03559 8.22116 2.66699 7.57015 2.66699 6.86762V0Z" fill="url(#paint0_linear_1053_2471)"/>
<path d="M10.667 0H21.3337V12H10.667V0Z" fill="url(#paint1_linear_1053_2471)"/>
<path d="M14.8998 7.35627C15.5805 6.96327 16.4191 6.96327 17.0998 7.35627L25.0998 11.9751C25.7805 12.3681 26.1998 13.0943 26.1998 13.8803V23.1179C26.1998 23.9039 25.7805 24.6302 25.0998 25.0232L17.0998 29.642C16.4191 30.035 15.5805 30.035 14.8998 29.642L6.8998 25.0232C6.21912 24.6302 5.7998 23.9039 5.7998 23.1179V13.8803C5.7998 13.0943 6.21912 12.3681 6.8998 11.9751L14.8998 7.35627Z" fill="url(#paint2_linear_1053_2471)" stroke="url(#paint3_linear_1053_2471)" stroke-width="0.7"/>
<path d="M15.3389 10.4249C15.7488 10.1907 16.252 10.1907 16.6619 10.4249L22.7225 13.8882C23.1379 14.1255 23.3943 14.5673 23.3943 15.0458V21.9485C23.3943 22.427 23.1379 22.8687 22.7225 23.1062L16.6619 26.5694C16.252 26.8035 15.7488 26.8035 15.3389 26.5694L9.27826 23.1062C8.86283 22.8687 8.60645 22.427 8.60645 21.9485V15.0458C8.60645 14.5673 8.86283 14.1255 9.27826 13.8882L15.3389 10.4249Z" fill="url(#paint4_linear_1053_2471)"/>
<path fill-rule="evenodd" clip-rule="evenodd" d="M25.9155 12.2171L19.5 15.9211C17.3342 17.1715 14.6658 17.1715 12.5 15.9211L5.92383 12.1244V11.9451L14.6671 6.95491C15.4921 6.4841 16.5051 6.4876 17.3268 6.96411L25.9155 11.9451V12.2171Z" fill="url(#paint5_linear_1053_2471)"/>
<path d="M12.7139 17.4733V15.1266L16.0725 13.2493H18.0379V23.9999H15.5005V15.9333L12.7139 17.4733Z" fill="#3A2808"/>
<defs>
<linearGradient id="paint0_linear_1053_2471" x1="29.3335" y1="9.20753" x2="3.77027" y2="-3.3318" gradientUnits="userSpaceOnUse">
<stop offset="0.168929" stop-color="#282828"/>
<stop offset="0.696361" stop-color="#8B8B8B"/>
<stop offset="1" stop-color="#D7D7D7"/>
</linearGradient>
<linearGradient id="paint1_linear_1053_2471" x1="10.667" y1="-1.19403" x2="13.6433" y2="8.15347" gradientUnits="userSpaceOnUse">
<stop stop-color="#FFE2A2"/>
<stop offset="1" stop-color="#CF9B2C"/>
</linearGradient>
<linearGradient id="paint2_linear_1053_2471" x1="9.21192" y1="9.57626" x2="22.7877" y2="26.5459" gradientUnits="userSpaceOnUse">
<stop stop-color="#FFF1A6"/>
<stop offset="1" stop-color="#F7C545"/>
</linearGradient>
<linearGradient id="paint3_linear_1053_2471" x1="10.6665" y1="11.0308" x2="22.7877" y2="27.0308" gradientUnits="userSpaceOnUse">
<stop stop-color="#75A3AD" stop-opacity="0.12"/>
<stop offset="1" stop-color="#420C78"/>
</linearGradient>
<linearGradient id="paint4_linear_1053_2471" x1="11.2952" y1="12.3754" x2="20.5875" y2="24.1113" gradientUnits="userSpaceOnUse">
<stop stop-color="#FFDF6B"/>
<stop offset="1" stop-color="#F0B92A"/>
</linearGradient>
<linearGradient id="paint5_linear_1053_2471" x1="10.9217" y1="8.9916" x2="20.0248" y2="15.3441" gradientUnits="userSpaceOnUse">
<stop stop-color="white"/>
<stop offset="1" stop-color="white" stop-opacity="0"/>
</linearGradient>
</defs>
</svg>
