<svg width="32" height="32" viewBox="0 0 32 32" fill="none" xmlns="http://www.w3.org/2000/svg">
<path d="M2.66699 0H29.3337V6.86762C29.3337 7.57015 28.9651 8.22116 28.3627 8.58261L16.0003 16L3.638 8.58261C3.03559 8.22116 2.66699 7.57015 2.66699 6.86762V0Z" fill="url(#paint0_linear_1053_12882)"/>
<path d="M10.667 0H21.3337V12H10.667V0Z" fill="url(#paint1_linear_1053_12882)"/>
<path d="M15.767 7.41877C16.4477 7.02577 17.2863 7.02577 17.967 7.41877L25.967 12.0376C26.6477 12.4306 27.067 13.1568 27.067 13.9428V23.1804C27.067 23.9664 26.6477 24.6927 25.967 25.0857L17.967 29.7045C17.2863 30.0975 16.4477 30.0975 15.767 29.7045L7.76699 25.0857C7.08631 24.6927 6.66699 23.9664 6.66699 23.1804V13.9428C6.66699 13.1568 7.08631 12.4306 7.76699 12.0376L15.767 7.41877Z" fill="url(#paint2_linear_1053_12882)" stroke="url(#paint3_linear_1053_12882)" stroke-width="0.7"/>
<path d="M16.2051 10.4874C16.615 10.2532 17.1182 10.2532 17.5281 10.4874L23.5887 13.9507C24.0041 14.188 24.2605 14.6298 24.2605 15.1083V22.011C24.2605 22.4895 24.0041 22.9312 23.5887 23.1687L17.5281 26.6319C17.1182 26.866 16.615 26.866 16.2051 26.6319L10.1445 23.1687C9.72904 22.9312 9.47266 22.4895 9.47266 22.011V15.1083C9.47266 14.6298 9.72904 14.188 10.1445 13.9507L16.2051 10.4874Z" fill="url(#paint4_linear_1053_12882)"/>
<path fill-rule="evenodd" clip-rule="evenodd" d="M26.7817 12.2796L20.3662 15.9836C18.2004 17.234 15.532 17.234 13.3662 15.9836L6.79004 12.1869V12.0076L15.5333 7.01741C16.3583 6.5466 17.3713 6.5501 18.193 7.02661L26.7817 12.0076V12.2796Z" fill="url(#paint5_linear_1053_12882)"/>
<path d="M16.6745 21.85H20.7225V24.0208H13.0665V22.3926L16.2052 18.858C16.7234 18.2713 17.0852 17.8166 17.2905 17.494C17.4958 17.1713 17.5985 16.8438 17.5985 16.5113C17.5985 16.1789 17.5056 15.9052 17.3198 15.69C17.1341 15.4749 16.875 15.3673 16.5425 15.3673C15.7994 15.3673 15.2616 15.9052 14.9292 16.9806L12.9932 15.8513C13.267 14.9518 13.7412 14.2625 14.4158 13.7834C15.0905 13.3043 15.8776 13.0647 16.7772 13.0647C17.5105 13.0647 18.1363 13.2114 18.6545 13.5047C19.1825 13.798 19.5785 14.1989 19.8425 14.7074C20.1065 15.206 20.2385 15.7633 20.2385 16.3793C20.2385 16.9953 20.0918 17.5673 19.7985 18.0953C19.5052 18.6136 18.9821 19.2833 18.2292 20.1046L16.6745 21.85Z" fill="#373335"/>
<defs>
<linearGradient id="paint0_linear_1053_12882" x1="29.3335" y1="9.20753" x2="3.77027" y2="-3.3318" gradientUnits="userSpaceOnUse">
<stop offset="0.168929" stop-color="#282828"/>
<stop offset="0.696361" stop-color="#8B8B8B"/>
<stop offset="1" stop-color="#D7D7D7"/>
</linearGradient>
<linearGradient id="paint1_linear_1053_12882" x1="10.667" y1="-1.19403" x2="13.6433" y2="8.15347" gradientUnits="userSpaceOnUse">
<stop stop-color="#E2E1E2"/>
<stop offset="1" stop-color="#7A7A7A"/>
</linearGradient>
<linearGradient id="paint2_linear_1053_12882" x1="8.62457" y1="11.5782" x2="23.6549" y2="26.6084" gradientUnits="userSpaceOnUse">
<stop stop-color="#E3E3E3"/>
<stop offset="1" stop-color="#C2BEC0"/>
</linearGradient>
<linearGradient id="paint3_linear_1053_12882" x1="11.5337" y1="11.0933" x2="23.6549" y2="27.0933" gradientUnits="userSpaceOnUse">
<stop stop-opacity="0.12"/>
<stop offset="1"/>
</linearGradient>
<linearGradient id="paint4_linear_1053_12882" x1="12.1614" y1="12.4379" x2="21.4537" y2="24.1738" gradientUnits="userSpaceOnUse">
<stop stop-color="#CAC7C8"/>
<stop offset="1" stop-color="#B5B0B2"/>
</linearGradient>
<linearGradient id="paint5_linear_1053_12882" x1="11.788" y1="9.0541" x2="20.891" y2="15.4066" gradientUnits="userSpaceOnUse">
<stop stop-color="white"/>
<stop offset="1" stop-color="white" stop-opacity="0"/>
</linearGradient>
</defs>
</svg>
