<svg width="64" height="64" viewBox="0 0 64 64" fill="none" xmlns="http://www.w3.org/2000/svg">
<g clip-path="url(#clip0_176_10923)">
<path d="M32 64C49.6731 64 64 49.6731 64 32C64 14.3269 49.6731 0 32 0C14.3269 0 0 14.3269 0 32C0 49.6731 14.3269 64 32 64Z" fill="#21E9FA"/>
<text fill="#032E6C" font-weight="700" font-size="20" x="26" y="38" >?</text>
<!-- <path d="M31.8601 29.2216H29.201C29.0987 28.6534 28.9084 28.1534 28.63 27.7216C28.3516 27.2898 28.0107 26.9233 27.6072 26.6222C27.2038 26.321 26.7521 26.0937 26.2521 25.9403C25.7578 25.7869 25.2322 25.7102 24.6754 25.7102C23.6697 25.7102 22.7692 25.9631 21.9737 26.4688C21.1839 26.9744 20.5589 27.7159 20.0987 28.6932C19.6442 29.6705 19.4169 30.8636 19.4169 32.2727C19.4169 33.6932 19.6442 34.892 20.0987 35.8693C20.5589 36.8466 21.1868 37.5852 21.9822 38.0852C22.7777 38.5852 23.6726 38.8352 24.6669 38.8352C25.218 38.8352 25.7408 38.7614 26.2351 38.6136C26.7351 38.4602 27.1868 38.2358 27.5902 37.9403C27.9936 37.6449 28.3345 37.2841 28.6129 36.858C28.897 36.4261 29.093 35.9318 29.201 35.375L31.8601 35.3835C31.718 36.2415 31.4425 37.0312 31.0334 37.7528C30.63 38.4688 30.1101 39.0881 29.4737 39.6108C28.843 40.1278 28.1214 40.5284 27.3089 40.8125C26.4964 41.0966 25.6101 41.2386 24.6499 41.2386C23.1385 41.2386 21.7919 40.8807 20.6101 40.1648C19.4283 39.4432 18.4964 38.4119 17.8146 37.071C17.1385 35.7301 16.8004 34.1307 16.8004 32.2727C16.8004 30.4091 17.1413 28.8097 17.8232 27.4744C18.505 26.1335 19.4368 25.1051 20.6186 24.3892C21.8004 23.6676 23.1442 23.3068 24.6499 23.3068C25.576 23.3068 26.4396 23.4403 27.2408 23.7074C28.0476 23.9687 28.772 24.3551 29.4141 24.8665C30.0561 25.3722 30.5874 25.9915 31.0078 26.7244C31.4283 27.4517 31.7124 28.2841 31.8601 29.2216ZM35.0114 41V23.5455H45.9545V25.8125H37.6449V31.1307H45.3835V33.3892H37.6449V38.733H46.0568V41H35.0114Z" fill="#032E6C"/> -->
</g>
<defs>
<clipPath id="clip0_176_10923">
<rect width="64" height="64" fill="white"/>
</clipPath>
</defs>
</svg>
