<svg width="16" height="16" viewBox="0 0 16 16" fill="none" xmlns="http://www.w3.org/2000/svg">
<circle cx="8" cy="8" r="8" fill="#A3A3A3"/>
<path d="M7.99494 12.8451C8.56734 12.8451 8.92507 12.432 8.92507 11.9501C8.92507 11.4682 8.56734 11.0552 7.99494 11.0552C7.42254 11.0552 7.06481 11.4682 7.06481 11.9501C7.06481 12.432 7.42254 12.8451 7.99494 12.8451ZM7.2079 9.26509C7.2079 9.6073 7.48532 9.88472 7.82752 9.88472H8.01926C8.36146 9.88472 8.63889 9.6073 8.63889 9.26509C8.63889 7.68161 11 7.75046 11 5.54735C11 3.96386 9.71212 3 7.92339 3C6.55241 3 5.47937 3.66899 5.03529 4.88754C4.88603 5.29711 5.23174 5.68504 5.66766 5.68504C6.02026 5.68504 6.30615 5.42129 6.46622 5.10712C6.73162 4.58624 7.22734 4.23925 7.92339 4.23925C8.92507 4.23925 9.49747 4.79003 9.49747 5.54735C9.49747 7.19968 7.2079 6.92429 7.2079 9.26509Z" fill="white"/>
</svg>
