<svg width="156" height="32" viewBox="0 0 156 32" fill="none" xmlns="http://www.w3.org/2000/svg">
<path fill-rule="evenodd" clip-rule="evenodd" d="M0.699453 13.6822L0.700385 13.6756C1.64941 6.59822 7.71154 1.14013 15.049 1.14013H24.3757C24.6628 0.469911 25.3281 0 26.1037 0C27.1419 0 27.9832 0.841422 27.9832 1.87933C27.9832 2.91729 27.1419 3.75867 26.1037 3.75867C25.3117 3.75867 24.6343 3.26876 24.3579 2.57573H15.049C8.42323 2.57573 2.95132 7.51644 2.11701 13.9147C2.08074 14.2431 1.79959 14.5267 1.40634 14.5267C1.0323 14.5267 0.725051 14.2404 0.691406 13.8751L0.699453 13.6822ZM26.8606 1.88058C26.8606 2.29947 26.521 2.63902 26.1023 2.63902C25.6832 2.63902 25.3437 2.29947 25.3437 1.88058C25.3437 1.46169 25.6832 1.12213 26.1023 1.12213C26.521 1.12213 26.8606 1.46169 26.8606 1.88058Z" fill="white"/>
<path fill-rule="evenodd" clip-rule="evenodd" d="M0.746978 18.6573C0.612489 17.8542 0.890046 17.1977 1.33182 16.6644C1.76853 16.1377 2.37284 15.7217 2.91613 15.3835C2.98129 15.3431 3.05854 15.2995 3.1388 15.2542L3.14156 15.2524C3.66853 14.9546 4.43222 14.5124 4.62249 13.6342C4.63076 13.5959 4.63925 13.5577 4.64791 13.5195C4.67911 13.3826 4.71285 13.2466 4.74907 13.1119C6.03311 8.33016 10.429 4.92305 15.4348 4.92305H28.1339C28.421 4.25239 29.0868 3.78217 29.8628 3.78217C30.9005 3.78217 31.7419 4.6235 31.7419 5.66172C31.7419 6.6995 30.9005 7.54083 29.8628 7.54083C29.069 7.54083 28.3912 7.04927 28.1152 6.35461L21.7805 6.35505V6.35416H15.4348C11.1352 6.35416 7.35093 9.24305 6.17747 13.3168C6.13618 13.4604 6.09814 13.6048 6.06338 13.7511C6.05391 13.7911 6.04467 13.8311 6.03569 13.8715C5.71178 15.3177 4.36787 16.0662 3.49578 16.5519L3.45302 16.5759C3.22324 16.7039 2.85476 16.9466 2.56511 17.2697C2.27418 17.5937 2.08742 17.9693 2.15022 18.3764C2.98982 23.8173 7.59053 29.3933 15.4348 29.3933H21.7805V29.3924H24.3708C24.6552 28.7164 25.3236 28.2413 26.1036 28.2413C27.1419 28.2413 27.9832 29.0826 27.9832 30.1204C27.9832 31.1586 27.1419 31.9999 26.1036 31.9999C25.3143 31.9999 24.6392 31.5133 24.361 30.8244H22.6094H15.4348C6.92 30.8244 1.75373 24.7626 0.746978 18.6573ZM30.621 5.66083C30.621 6.0795 30.2814 6.41905 29.8628 6.41905C29.4436 6.41905 29.1041 6.0795 29.1041 5.66083C29.1041 5.24172 29.4436 4.90216 29.8628 4.90216C30.2814 4.90216 30.621 5.24172 30.621 5.66083ZM26.8632 30.1248C26.8632 30.5439 26.5236 30.8835 26.105 30.8835C25.6859 30.8835 25.3463 30.5439 25.3463 30.1248C25.3463 29.7062 25.6859 29.3666 26.105 29.3666C26.5236 29.3666 26.8632 29.7062 26.8632 30.1248Z" fill="white"/>
<path fill-rule="evenodd" clip-rule="evenodd" d="M21.7807 27.0494L15.4349 27.0489C9.89492 27.0489 5.17915 22.9129 4.4651 17.4267C4.41386 17.0351 4.69021 16.6765 5.08146 16.6249C5.47297 16.5716 5.83341 16.8516 5.88448 17.2423C6.50573 22.0165 10.6118 25.6178 15.4349 25.6178L28.1251 25.6174C28.4074 24.936 29.0785 24.456 29.8629 24.456C30.9007 24.456 31.742 25.2974 31.742 26.3351C31.742 27.3729 30.9007 28.2147 29.8629 28.2147C29.0771 28.2147 28.4051 27.7329 28.1238 27.0494H21.7807ZM30.6211 26.3391C30.6211 26.7578 30.2816 27.0974 29.8629 27.0974C29.4438 27.0974 29.1043 26.7578 29.1043 26.3391C29.1043 25.92 29.4438 25.5805 29.8629 25.5805C30.2816 25.5805 30.6211 25.92 30.6211 26.3391Z" fill="white"/>
<path d="M46.9387 5.44708H58.0356C58.6316 5.44708 59.1151 5.93064 59.1151 6.52664V8.19553C59.1151 8.79197 58.6316 9.27509 58.0356 9.27509H46.9387C46.4383 9.27509 45.9898 9.35331 45.592 9.50975C45.1947 9.66797 44.8543 9.88931 44.5707 10.1729C44.2849 10.4564 44.0663 10.8022 43.9143 11.2111C43.7627 11.6173 43.6867 12.0706 43.6867 12.5706V19.4729C43.7471 19.8369 43.8227 20.2097 43.9143 20.5915C44.008 20.9755 44.1676 21.3235 44.3934 21.6364C44.6187 21.9511 44.9325 22.2111 45.3343 22.4164C45.7383 22.6244 46.2734 22.728 46.9387 22.728H58.0356C58.6316 22.728 59.1151 23.2115 59.1151 23.8075V25.4729C59.1151 26.0693 58.6316 26.5524 58.0356 26.5524H46.9387C46.0654 26.5524 45.2863 26.4422 44.6009 26.2209C43.9134 26 43.3071 25.7089 42.7823 25.3471C42.2578 24.9831 41.8089 24.5591 41.436 24.0742C41.0631 23.5875 40.7565 23.084 40.5151 22.564C40.2765 22.044 40.1023 21.5169 39.9929 20.9831C39.8854 20.4475 39.832 19.944 39.832 19.4729V12.544C39.832 12.0729 39.8854 11.5693 39.9929 11.0333C40.1023 10.5 40.2765 9.96975 40.5151 9.44264C40.7565 8.91775 41.0631 8.41553 41.436 7.93553C41.8089 7.45553 42.2578 7.03153 42.7823 6.66308C43.3071 6.29464 43.9156 5.99997 44.6076 5.77864C45.2996 5.55775 46.0769 5.44708 46.9387 5.44708Z" fill="white"/>
<path d="M66.2388 12.5137V6.52708C66.2388 5.93064 66.7219 5.44708 67.3183 5.44708H68.9868C69.5832 5.44708 70.0663 5.93064 70.0663 6.52664V12.5137C70.0663 13.0137 70.1445 13.4626 70.301 13.86C70.4592 14.2573 70.6805 14.5978 70.9641 14.8813C71.2477 15.1671 71.5934 15.3862 72.0023 15.5377C72.4085 15.6897 72.8619 15.7657 73.3619 15.7657H80.2641C80.6281 15.7053 81.001 15.6293 81.3828 15.5377C81.7668 15.444 82.1152 15.2844 82.4277 15.0591C82.7423 14.8333 83.0023 14.5195 83.2081 14.1178C83.4157 13.7137 83.5192 13.1791 83.5192 12.5137V6.52708C83.5192 5.93064 84.0028 5.44708 84.5988 5.44708H86.2645C86.8605 5.44708 87.3441 5.93064 87.3441 6.52664V12.5137C87.3441 13.3866 87.2334 14.1658 87.0126 14.8511C86.7912 15.5391 86.5001 16.1453 86.1383 16.6698C85.7743 17.1946 85.3503 17.6431 84.8659 18.016C84.3788 18.3889 83.8757 18.696 83.3552 18.9369C82.8352 19.176 82.3081 19.3502 81.7743 19.4595C81.2388 19.5666 80.7352 19.6204 80.2641 19.6204H78.7201V25.4729C78.7201 26.0693 78.237 26.5524 77.6405 26.5524H75.945C75.349 26.5524 74.8654 26.0693 74.8654 25.4729V19.6204H73.3352C72.8641 19.6204 72.3605 19.5666 71.8245 19.4595C71.2912 19.3502 70.761 19.176 70.2339 18.9369C69.7094 18.696 69.2068 18.3889 68.7268 18.016C68.2468 17.6431 67.8228 17.1946 67.4543 16.6698C67.0859 16.1453 66.7912 15.5369 66.5703 14.8444C66.349 14.1524 66.2388 13.3755 66.2388 12.5137Z" fill="white"/>
<path d="M94.5913 11.6898C94.5913 10.54 94.7944 9.57108 95.2006 8.78308C95.6095 7.99242 96.1193 7.34931 96.7313 6.85375C97.3451 6.35819 98.0104 5.99997 98.7273 5.77864C99.4415 5.55775 100.108 5.44708 100.726 5.44708H113.751C114.347 5.44708 114.83 5.93064 114.83 6.52664V8.19553C114.83 8.79197 114.347 9.27509 113.751 9.27509H100.726C100.001 9.27509 99.4349 9.49642 99.0286 9.93819C98.6202 10.3782 98.4158 10.9618 98.4158 11.6898C98.4158 12.4244 98.6202 13.0049 99.0286 13.4311C99.4349 13.8578 100.001 14.0711 100.726 14.0711H109.558C109.971 14.0822 110.407 14.1391 110.867 14.2417C111.33 14.3444 111.788 14.504 112.244 14.7209C112.699 14.9351 113.134 15.2075 113.546 15.5377C113.958 15.8662 114.322 16.26 114.642 16.72C114.961 17.1822 115.214 17.7124 115.402 18.3106C115.587 18.9093 115.68 19.5866 115.68 20.3435C115.68 21.0982 115.584 21.7769 115.392 22.38C115.202 22.9826 114.95 23.5151 114.635 23.9773C114.32 24.4373 113.953 24.8302 113.533 25.156C113.111 25.48 112.674 25.7444 112.22 25.9497C111.769 26.1551 111.312 26.3071 110.847 26.4053C110.381 26.5035 109.941 26.5524 109.528 26.5524H95.8451C95.2486 26.5524 94.7655 26.0693 94.7655 25.4729V23.8044C94.7655 23.208 95.2486 22.7249 95.8451 22.7249H109.528C110.265 22.7249 110.836 22.5093 111.242 22.0782C111.651 21.6475 111.855 21.0693 111.855 20.3435C111.855 19.9884 111.801 19.664 111.691 19.3689C111.584 19.0764 111.43 18.8222 111.229 18.6053C111.028 18.3889 110.782 18.2226 110.492 18.1066C110.202 17.988 109.881 17.9289 109.528 17.9289H100.726C100.108 17.9289 99.4415 17.8186 98.7273 17.5973C98.0104 17.3764 97.3451 17.0204 96.7313 16.5293C96.1193 16.04 95.6095 15.3982 95.2006 14.6035C94.7944 13.8084 94.5913 12.8373 94.5913 11.6898Z" fill="white"/>
<path d="M127.328 25.4729C127.328 26.0693 126.844 26.5524 126.248 26.5524H124.579C123.983 26.5524 123.5 26.0693 123.5 25.4729V6.52664C123.5 5.93064 123.983 5.44708 124.579 5.44708H126.248C126.844 5.44708 127.328 5.93064 127.328 6.52664V25.4729Z" fill="white"/>
<path d="M154.229 5.44708H143.133C142.27 5.44708 141.493 5.55775 140.801 5.77864C140.109 5.99997 139.501 6.29464 138.976 6.66308C138.452 7.03153 138.003 7.45553 137.63 7.93553C137.257 8.41553 136.95 8.91775 136.709 9.44264C136.47 9.96975 136.296 10.5 136.186 11.0333C136.079 11.5693 136.026 12.0729 136.026 12.544V19.4729C136.026 19.944 136.079 20.4475 136.186 20.9831C136.296 21.5169 136.47 22.044 136.709 22.564C136.95 23.084 137.257 23.5875 137.63 24.0742C138.003 24.5591 138.452 24.9831 138.976 25.3471C139.501 25.7089 140.107 26 140.795 26.2209C141.48 26.4422 142.259 26.5524 143.133 26.5524H154.229C154.825 26.5524 155.309 26.0693 155.309 25.4729V23.8075C155.309 23.2115 154.825 22.728 154.229 22.728H143.133C142.467 22.728 141.932 22.6244 141.528 22.4164C141.126 22.2111 140.813 21.9511 140.587 21.6364C140.361 21.3235 140.202 20.9755 140.108 20.5915C140.017 20.2097 139.941 19.8369 139.881 19.4729V12.5706C139.881 12.0706 139.957 11.6173 140.108 11.2111C140.26 10.8022 140.479 10.4564 140.765 10.1729C141.048 9.88931 141.389 9.66797 141.786 9.50975C142.184 9.35331 142.632 9.27509 143.133 9.27509H154.229C154.825 9.27509 155.309 8.79197 155.309 8.19553V6.52664C155.309 5.93064 154.825 5.44708 154.229 5.44708Z" fill="white"/>
</svg>
