<svg width="40" height="40" viewBox="0 0 40 40" fill="none" xmlns="http://www.w3.org/2000/svg">
<rect width="40" height="40" rx="8" fill="white" fill-opacity="0.08"/>
<path fill-rule="evenodd" clip-rule="evenodd" d="M22.4001 17.6H24.8001V15.2C24.8001 13.927 24.2944 12.7061 23.3942 11.8059C22.494 10.9057 21.2731 10.4 20.0001 10.4C18.7271 10.4 17.5062 10.9057 16.606 11.8059C15.7058 12.7061 15.2001 13.927 15.2001 15.2V17.6H17.6001V15.2C17.6001 14.5635 17.853 13.9531 18.303 13.503C18.7531 13.0529 19.3636 12.8 20.0001 12.8C20.6366 12.8 21.2471 13.0529 21.6972 13.503C22.1472 13.9531 22.4001 14.5635 22.4001 15.2V17.6ZM11.9517 19.1516C12.1767 18.9266 12.4819 18.8001 12.8001 18.8H27.2001C27.5184 18.8 27.8236 18.9265 28.0486 19.1515C28.2737 19.3765 28.4001 19.6818 28.4001 20V28.4C28.4001 28.7183 28.2737 29.0235 28.0486 29.2486C27.8236 29.4736 27.5184 29.6 27.2001 29.6H12.8001C12.4818 29.6 12.1766 29.4736 11.9516 29.2486C11.7265 29.0235 11.6001 28.7183 11.6001 28.4V20C11.6002 19.6818 11.7266 19.3766 11.9517 19.1516ZM19.0005 25.6964C19.3975 25.9615 19.8836 26.0581 20.3518 25.9648C20.82 25.8715 21.232 25.5961 21.4971 25.199C21.7622 24.802 21.8587 24.3159 21.7655 23.8477C21.6722 23.3795 21.3967 22.9675 20.9997 22.7024C20.8031 22.5712 20.5826 22.4799 20.3507 22.4338C20.1189 22.3878 19.8802 22.3879 19.6484 22.4341C19.4166 22.4802 19.1961 22.5716 18.9996 22.703C18.8031 22.8344 18.6344 23.0032 18.5031 23.1998C18.3718 23.3964 18.2806 23.6169 18.2345 23.8488C18.1885 24.0807 18.1885 24.3193 18.2347 24.5511C18.328 25.0193 18.6035 25.4313 19.0005 25.6964Z" fill="white"/>
</svg>
