<svg width="40" height="40" viewBox="0 0 40 40" fill="none" xmlns="http://www.w3.org/2000/svg">
<rect width="40" height="40" rx="8" fill="white" fill-opacity="0.08"/>
<path fill-rule="evenodd" clip-rule="evenodd" d="M19.2068 11.4368L17.2052 16.148C17.1308 16.3232 17.0936 16.4108 17.036 16.4768C16.9858 16.5356 16.9236 16.583 16.8536 16.616C16.7744 16.652 16.6844 16.664 16.5032 16.6832L11.6132 17.2232C10.9988 17.2916 10.6916 17.3264 10.5548 17.4728C10.496 17.5368 10.4522 17.613 10.4264 17.696C10.4007 17.779 10.3937 17.8667 10.406 17.9528C10.4348 18.1568 10.664 18.3728 11.1224 18.806L14.7752 22.2584C14.9108 22.3868 14.9792 22.4504 15.0212 22.5284C15.0594 22.5981 15.0831 22.6748 15.0908 22.754C15.1004 22.8428 15.0812 22.9364 15.0428 23.1236L14.0228 28.1684C13.8944 28.8008 13.8308 29.1176 13.922 29.2988C13.9592 29.3754 14.0139 29.4423 14.0816 29.4939C14.1493 29.5456 14.2283 29.5807 14.312 29.5964C14.504 29.6312 14.7716 29.4692 15.3068 29.1464L19.5668 26.57C19.724 26.474 19.8032 26.426 19.8872 26.4068C19.9615 26.3902 20.0385 26.3902 20.1128 26.4068C20.1968 26.426 20.276 26.474 20.4344 26.57L24.6944 29.1452C25.2284 29.4692 25.496 29.6312 25.688 29.5964C25.772 29.5809 25.8511 29.5459 25.9191 29.4942C25.987 29.4425 26.0419 29.3755 26.0792 29.2988C26.1692 29.1188 26.1056 28.8008 25.9772 28.1684L24.9572 23.1236C24.9188 22.9364 24.8996 22.8428 24.9092 22.7528C24.9171 22.674 24.9408 22.5977 24.9788 22.5284C25.022 22.4504 25.0892 22.3868 25.2248 22.2584L28.8776 18.806C29.336 18.374 29.5652 18.1568 29.594 17.954C29.6064 17.8677 29.5995 17.7798 29.5737 17.6966C29.548 17.6134 29.5041 17.5369 29.4452 17.4728C29.3084 17.3264 29.0012 17.2928 28.388 17.2244L23.498 16.6832C23.3156 16.6628 23.2256 16.6532 23.1464 16.616C23.0764 16.583 23.0142 16.5356 22.964 16.4768C22.9064 16.4108 22.8692 16.3232 22.796 16.148L20.792 11.4368C20.54 10.8464 20.4152 10.55 20.24 10.4588C20.1656 10.4199 20.0828 10.3995 19.9988 10.3995C19.9148 10.3995 19.8321 10.4199 19.7576 10.4588C19.5824 10.55 19.4588 10.8464 19.2068 11.4368ZM26.3792 12.896C26.4899 12.7793 26.5516 12.6247 26.5516 12.464C26.5516 12.3032 26.4899 12.1486 26.3792 12.032C26.3256 11.9754 26.261 11.9303 26.1895 11.8995C26.1179 11.8687 26.0407 11.8529 25.9628 11.8529C25.8849 11.8529 25.8078 11.8687 25.7362 11.8995C25.6646 11.9303 25.6 11.9754 25.5464 12.032L24.0164 13.6208C23.9058 13.7374 23.8441 13.892 23.8441 14.0528C23.8441 14.2135 23.9058 14.3681 24.0164 14.4848C24.07 14.5413 24.1346 14.5864 24.2062 14.6172C24.2778 14.648 24.3549 14.6639 24.4328 14.6639C24.5107 14.6639 24.5879 14.648 24.6595 14.6172C24.731 14.5864 24.7956 14.5413 24.8492 14.4848L26.3792 12.896ZM13.5836 12.032C13.473 12.1486 13.4113 12.3032 13.4113 12.464C13.4113 12.6247 13.473 12.7793 13.5836 12.896L15.116 14.486C15.1696 14.5423 15.2341 14.5872 15.3056 14.6179C15.377 14.6486 15.454 14.6644 15.5318 14.6644C15.6096 14.6644 15.6866 14.6486 15.7581 14.6179C15.8295 14.5872 15.894 14.5423 15.9476 14.486C16.0583 14.3693 16.12 14.2147 16.12 14.054C16.12 13.8932 16.0583 13.7386 15.9476 13.622L14.4164 12.032C14.3628 11.9754 14.2982 11.9303 14.2267 11.8995C14.1551 11.8687 14.0779 11.8529 14 11.8529C13.9221 11.8529 13.845 11.8687 13.7734 11.8995C13.7018 11.9303 13.6372 11.9754 13.5836 12.032ZM10.2164 23.7392C10.0652 23.7922 9.9405 23.902 9.86883 24.0454C9.79715 24.1887 9.78409 24.3543 9.83241 24.5072C9.85595 24.5819 9.8943 24.6511 9.94517 24.7106C9.99604 24.7702 10.0584 24.8189 10.1285 24.8539C10.1986 24.8888 10.275 24.9093 10.3532 24.914C10.4314 24.9188 10.5098 24.9077 10.5836 24.8816L12.632 24.1712C12.7833 24.1181 12.9079 24.0083 12.9796 23.8649C13.0513 23.7216 13.0643 23.556 13.016 23.4032C12.9923 23.3285 12.9539 23.2594 12.903 23.2C12.8521 23.1405 12.7897 23.0918 12.7197 23.0569C12.6496 23.022 12.5732 23.0015 12.4951 22.9967C12.417 22.9918 12.3386 23.0027 12.2648 23.0288L10.2164 23.7392ZM29.816 24.5072C29.8643 24.3543 29.8513 24.1887 29.7796 24.0454C29.7079 23.902 29.5833 23.7922 29.432 23.7392L27.3836 23.0288C27.3098 23.0029 27.2316 22.9922 27.1536 22.9971C27.0756 23.002 26.9994 23.0226 26.9295 23.0575C26.8596 23.0924 26.7973 23.141 26.7465 23.2003C26.6957 23.2597 26.6573 23.3287 26.6336 23.4032C26.5853 23.556 26.5984 23.7216 26.67 23.8649C26.7417 24.0083 26.8664 24.1181 27.0176 24.1712L29.0648 24.8816C29.378 24.9896 29.714 24.8228 29.816 24.5072ZM19.4 30.5636C19.4 30.7227 19.4632 30.8753 19.5757 30.9878C19.6883 31.1003 19.8409 31.1636 20 31.1636C20.1591 31.1636 20.3118 31.1003 20.4243 30.9878C20.5368 30.8753 20.6 30.7227 20.6 30.5636V28.4C20.6 28.2408 20.5368 28.0882 20.4243 27.9757C20.3118 27.8632 20.1591 27.8 20 27.8C19.8409 27.8 19.6883 27.8632 19.5757 27.9757C19.4632 28.0882 19.4 28.2408 19.4 28.4V30.5648V30.5636Z" fill="white"/>
</svg>
