<svg width="40" height="40" viewBox="0 0 40 40" fill="none" xmlns="http://www.w3.org/2000/svg">
<rect width="40" height="40" rx="8" fill="white" fill-opacity="0.08"/>
<path d="M23.6001 21.2C23.6001 21.5183 23.7265 21.8235 23.9516 22.0485C24.1766 22.2736 24.4818 22.4 24.8001 22.4C25.1184 22.4 25.4236 22.2736 25.6486 22.0485C25.8737 21.8235 26.0001 21.5183 26.0001 21.2C26.0001 20.8817 25.8737 20.5765 25.6486 20.3515C25.4236 20.1264 25.1184 20 24.8001 20C24.4818 20 24.1766 20.1264 23.9516 20.3515C23.7265 20.5765 23.6001 20.8817 23.6001 21.2Z" fill="white"/>
<path fill-rule="evenodd" clip-rule="evenodd" d="M22.9999 11.6C23.4773 11.6 23.9351 11.7896 24.2727 12.1272C24.6103 12.4647 24.7999 12.9226 24.7999 13.4H14.5999V14H27.1999C27.8364 14 28.4469 14.2528 28.897 14.7029C29.347 15.153 29.5999 15.7635 29.5999 16.4V26C29.5999 26.6365 29.347 27.2469 28.897 27.697C28.4469 28.1471 27.8364 28.4 27.1999 28.4H13.0183C12.6744 28.4 12.334 28.3322 12.0163 28.2007C11.6986 28.0691 11.41 27.8762 11.1668 27.6331C10.6758 27.142 10.3999 26.476 10.3999 25.7816V13.4C10.3999 13.592 10.4311 13.7312 10.4887 13.832C10.431 13.6952 10.4009 13.5484 10.3999 13.4C10.3999 12.4052 11.8051 11.6 12.7999 11.6H22.9999ZM24.7999 18.8C24.1634 18.8 23.5529 19.0528 23.1028 19.5029C22.6528 19.953 22.3999 20.5635 22.3999 21.2C22.3999 21.8365 22.6528 22.4469 23.1028 22.897C23.5529 23.3471 24.1634 23.6 24.7999 23.6C25.4364 23.6 26.0469 23.3471 26.497 22.897C26.947 22.4469 27.1999 21.8365 27.1999 21.2C27.1999 20.5635 26.947 19.953 26.497 19.5029C26.0469 19.0528 25.4364 18.8 24.7999 18.8Z" fill="white"/>
</svg>
