<svg width="32" height="32" viewBox="0 0 32 32" fill="none" xmlns="http://www.w3.org/2000/svg">
<circle cx="16" cy="16" r="15.5" fill="black" stroke="url(#paint0_linear_1811_16104)"/>
<path fill-rule="evenodd" clip-rule="evenodd" d="M7 14.6344C7.58065 10.4187 11.0645 7.15312 15.3613 7.15312H20.7613C20.9355 6.79687 21.2839 6.5 21.7484 6.5C22.329 6.5 22.8516 6.975 22.8516 7.62812C22.8516 8.22187 22.3871 8.75625 21.7484 8.75625C21.2839 8.75625 20.8774 8.45937 20.7613 8.04375H15.3613C11.471 8.04375 8.33548 10.9531 7.8129 14.7531C7.8129 14.9313 7.63871 15.1094 7.40645 15.1094C7.17419 15.1094 7 14.9313 7 14.6938V14.6344ZM22.2129 7.62812C22.2129 7.86562 22.0387 8.10312 21.7484 8.10312C21.5161 8.10312 21.2839 7.925 21.2839 7.62812C21.2839 7.33125 21.4581 7.15312 21.7484 7.15312C21.9806 7.15312 22.2129 7.39062 22.2129 7.62812ZM7.05806 17.6031C7 17.1281 7.11613 16.7125 7.40645 16.4156C7.63871 16.1188 7.9871 15.8813 8.33548 15.6438C8.39355 15.6438 8.39355 15.5844 8.45161 15.5844C8.74194 15.4062 9.14839 15.1094 9.26452 14.575V14.5156C9.26452 14.4563 9.32258 14.3375 9.32258 14.2781C10.0774 11.4281 12.6323 9.40937 15.5355 9.40937H22.9097C23.0839 8.99375 23.4903 8.75625 23.8968 8.75625C24.4774 8.75625 25 9.23125 25 9.88437C25 10.4781 24.5355 11.0125 23.8968 11.0125C23.4323 11.0125 23.0258 10.7156 22.9097 10.3H19.2516H15.5935C13.0968 10.3 10.8903 12.0219 10.1935 14.4562C10.1935 14.5156 10.1355 14.6344 10.1355 14.6938V14.7531C9.96129 15.5844 9.14839 16.0594 8.68387 16.3562C8.56774 16.4156 8.33548 16.5937 8.16129 16.7719C7.9871 16.95 7.87097 17.1875 7.92903 17.425C8.39355 20.6313 11.0645 23.9562 15.6516 23.9562H19.3097H20.8194C20.9935 23.5406 21.4 23.2437 21.8065 23.2437C22.3871 23.2437 22.9097 23.7188 22.9097 24.3719C22.9097 24.9656 22.4452 25.5 21.8065 25.5C21.3419 25.5 20.9355 25.2031 20.8194 24.7875H19.7742H15.5935C10.6 24.7875 7.63871 21.225 7.05806 17.6031ZM24.3613 9.88437C24.3613 10.1219 24.1871 10.3594 23.8968 10.3594C23.6645 10.3594 23.4323 10.1812 23.4323 9.88437C23.4323 9.64687 23.6065 9.40937 23.8968 9.40937C24.1871 9.40937 24.3613 9.5875 24.3613 9.88437ZM22.2129 24.3719C22.2129 24.6094 22.0387 24.8469 21.7484 24.8469C21.5161 24.8469 21.2839 24.6688 21.2839 24.3719C21.2839 24.1344 21.4581 23.8969 21.7484 23.8969C21.9806 23.9563 22.2129 24.1344 22.2129 24.3719ZM15.5355 22.5312H19.1935H22.8516C23.0258 22.9469 23.4323 23.2437 23.8387 23.2437C24.4194 23.2437 24.9419 22.7687 24.9419 22.1156C24.9419 21.5219 24.4774 20.9875 23.8387 20.9875C23.3742 20.9875 22.9677 21.2844 22.8516 21.7H15.4774C12.6903 21.7 10.3097 19.5625 9.90323 16.7125C9.84516 16.475 9.67097 16.2969 9.43871 16.3562C9.32258 16.4156 9.14839 16.5938 9.20645 16.8313C9.6129 20.0969 12.3419 22.5312 15.5355 22.5312ZM23.9548 22.5906C24.1871 22.5906 24.4194 22.4125 24.4194 22.1156C24.4194 21.8781 24.2452 21.6406 23.9548 21.6406C23.7226 21.6406 23.4903 21.8187 23.4903 22.1156C23.4903 22.4125 23.7226 22.5906 23.9548 22.5906Z" fill="url(#paint1_linear_1811_16104)" stroke="url(#paint2_linear_1811_16104)" stroke-width="0.2"/>
<defs>
<linearGradient id="paint0_linear_1811_16104" x1="0" y1="16" x2="17.5072" y2="13.8623" gradientUnits="userSpaceOnUse">
<stop stop-color="#9D47FF"/>
<stop offset="1" stop-color="#00F0FF"/>
</linearGradient>
<linearGradient id="paint1_linear_1811_16104" x1="7" y1="16" x2="16.8627" y2="14.8591" gradientUnits="userSpaceOnUse">
<stop stop-color="#9D47FF"/>
<stop offset="1" stop-color="#00F0FF"/>
</linearGradient>
<linearGradient id="paint2_linear_1811_16104" x1="7" y1="16" x2="16.8627" y2="14.8591" gradientUnits="userSpaceOnUse">
<stop stop-color="#9D47FF"/>
<stop offset="1" stop-color="#00F0FF"/>
</linearGradient>
</defs>
</svg>
