<svg width="24" height="24" viewBox="0 0 24 24" fill="none" xmlns="http://www.w3.org/2000/svg">
<circle cx="12" cy="12" r="12" fill="black"/>
<path fill-rule="evenodd" clip-rule="evenodd" d="M5.14548 11.0069L5.14588 11.0041C5.5526 7.97091 8.15066 5.63173 11.2953 5.63173H15.2924C15.4155 5.34449 15.7006 5.1431 16.033 5.1431C16.478 5.1431 16.8385 5.50371 16.8385 5.94853C16.8385 6.39336 16.478 6.75395 16.033 6.75395C15.6936 6.75395 15.4033 6.54399 15.2848 6.24698H11.2953C8.45567 6.24698 6.11056 8.36443 5.753 11.1065C5.73746 11.2473 5.61696 11.3688 5.44843 11.3688C5.28812 11.3688 5.15645 11.2461 5.14203 11.0896L5.14548 11.0069ZM16.3574 5.94906C16.3574 6.12858 16.2119 6.27411 16.0324 6.27411C15.8528 6.27411 15.7073 6.12858 15.7073 5.94906C15.7073 5.76954 15.8528 5.62401 16.0324 5.62401C16.2119 5.62401 16.3574 5.76954 16.3574 5.94906Z" fill="url(#paint0_linear_1568_156172)"/>
<path fill-rule="evenodd" clip-rule="evenodd" d="M5.16659 13.1389C5.10895 12.7947 5.2279 12.5134 5.41723 12.2848C5.6044 12.0591 5.86339 11.8808 6.09623 11.7359C6.12415 11.7185 6.15726 11.6999 6.19166 11.6804L6.19284 11.6797C6.41868 11.552 6.74598 11.3625 6.82752 10.9861C6.83106 10.9698 6.8347 10.9534 6.83842 10.937C6.85179 10.8783 6.86625 10.82 6.88177 10.7623C7.43208 8.713 9.31602 7.25281 11.4614 7.25281H16.9038C17.0269 6.96538 17.3122 6.76385 17.6448 6.76385C18.0895 6.76385 18.4501 7.12443 18.4501 7.56938C18.4501 8.01414 18.0895 8.37471 17.6448 8.37471C17.3046 8.37471 17.0141 8.16405 16.8958 7.86633L14.181 7.86652V7.86614H11.4614C9.61869 7.86614 7.99686 9.10424 7.49394 10.8501C7.47625 10.9117 7.45994 10.9736 7.44505 11.0362C7.44099 11.0534 7.43703 11.0705 7.43318 11.0879C7.29436 11.7077 6.7184 12.0284 6.34465 12.2366L6.32632 12.2469C6.22784 12.3018 6.06992 12.4058 5.94579 12.5442C5.8211 12.6831 5.74106 12.844 5.76798 13.0185C6.12781 15.3503 8.09954 17.7401 11.4614 17.7401H14.181V17.7397H15.2911C15.413 17.45 15.6995 17.2463 16.0337 17.2463C16.4787 17.2463 16.8393 17.6069 16.8393 18.0517C16.8393 18.4966 16.4787 18.8572 16.0337 18.8572C15.6955 18.8572 15.4061 18.6486 15.2869 18.3534H14.5362H11.4614C7.81217 18.3534 5.59805 15.7555 5.16659 13.1389ZM17.9697 7.569C17.9697 7.74843 17.8242 7.89395 17.6448 7.89395C17.4652 7.89395 17.3196 7.74843 17.3196 7.569C17.3196 7.38938 17.4652 7.24385 17.6448 7.24385C17.8242 7.24385 17.9697 7.38938 17.9697 7.569ZM16.3593 18.0536C16.3593 18.2332 16.2137 18.3787 16.0343 18.3787C15.8547 18.3787 15.7092 18.2332 15.7092 18.0536C15.7092 17.8741 15.8547 17.7286 16.0343 17.7286C16.2137 17.7286 16.3593 17.8741 16.3593 18.0536Z" fill="url(#paint1_linear_1568_156172)"/>
<path fill-rule="evenodd" clip-rule="evenodd" d="M14.1821 16.7353L11.4625 16.7351C9.08823 16.7351 7.06719 14.9626 6.76117 12.6113C6.7392 12.4435 6.85764 12.2898 7.02532 12.2677C7.19311 12.2449 7.34759 12.3649 7.36947 12.5323C7.63572 14.5784 9.39547 16.1218 11.4625 16.1218L16.9012 16.1216C17.0221 15.8296 17.3098 15.6239 17.646 15.6239C18.0907 15.6239 18.4513 15.9845 18.4513 16.4292C18.4513 16.874 18.0907 17.2348 17.646 17.2348C17.3092 17.2348 17.0212 17.0283 16.9006 16.7353H14.1821ZM17.9709 16.431C17.9709 16.6104 17.8254 16.7559 17.646 16.7559C17.4663 16.7559 17.3208 16.6104 17.3208 16.431C17.3208 16.2513 17.4663 16.1058 17.646 16.1058C17.8254 16.1058 17.9709 16.2513 17.9709 16.431Z" fill="url(#paint2_linear_1568_156172)"/>
<defs>
<linearGradient id="paint0_linear_1568_156172" x1="16.8987" y1="6.19075" x2="13.2782" y2="18.2985" gradientUnits="userSpaceOnUse">
<stop offset="0.103627" stop-color="#19FFE0"/>
<stop offset="1" stop-color="#9D47FF"/>
</linearGradient>
<linearGradient id="paint1_linear_1568_156172" x1="16.8995" y1="6.19056" x2="13.2789" y2="18.2983" gradientUnits="userSpaceOnUse">
<stop offset="0.103627" stop-color="#19FFE0"/>
<stop offset="1" stop-color="#9D47FF"/>
</linearGradient>
<linearGradient id="paint2_linear_1568_156172" x1="16.9006" y1="6.19042" x2="13.28" y2="18.2982" gradientUnits="userSpaceOnUse">
<stop offset="0.103627" stop-color="#19FFE0"/>
<stop offset="1" stop-color="#9D47FF"/>
</linearGradient>
</defs>
</svg>
