<svg width="24" height="24" viewBox="0 0 24 24" fill="none" xmlns="http://www.w3.org/2000/svg">
<path d="M12 24C18.6274 24 24 18.6274 24 12C24 5.37258 18.6274 0 12 0C5.37258 0 0 5.37258 0 12C0 18.6274 5.37258 24 12 24Z" fill="white"/>
<path d="M9.16667 6C7.976 6 7 6.976 7 8.16667V15.6667H5.83333C5.61291 15.6686 5.40206 15.757 5.24619 15.9129C5.09033 16.0687 5.00191 16.2796 5 16.5V17.1667C5 17.9893 5.67733 18.6667 6.5 18.6667H15.5C16.3227 18.6667 17 17.9893 17 17.1667V9H18.1667C18.6213 9 19 8.62133 19 8.16667V7.5C19 6.70433 18.3647 6.05 17.5787 6.00767C17.5527 6.00304 17.5264 6.00048 17.5 6H9.16667ZM9.16667 7H16.1023C16.045 7.158 16 7.32333 16 7.5V8.418C15.9912 8.47164 15.9912 8.52636 16 8.58V17.1667C16 17.4487 15.782 17.6667 15.5 17.6667C15.218 17.6667 15 17.4487 15 17.1667V16.5C15 16.0453 14.6213 15.6667 14.1667 15.6667H8V8.16667C8 7.51667 8.51667 7 9.16667 7ZM17.5 7C17.782 7 18 7.218 18 7.5V8H17V7.5C17 7.218 17.218 7 17.5 7ZM9.83333 8.66667C9.70073 8.66667 9.57355 8.71934 9.47978 8.81311C9.38601 8.90688 9.33333 9.03406 9.33333 9.16667C9.33333 9.29927 9.38601 9.42645 9.47978 9.52022C9.57355 9.61399 9.70073 9.66667 9.83333 9.66667H14.1667C14.2993 9.66667 14.4265 9.61399 14.5202 9.52022C14.614 9.42645 14.6667 9.29927 14.6667 9.16667C14.6667 9.03406 14.614 8.90688 14.5202 8.81311C14.4265 8.71934 14.2993 8.66667 14.1667 8.66667H9.83333ZM9.83333 11C9.70073 11 9.57355 11.0527 9.47978 11.1464C9.38601 11.2402 9.33333 11.3674 9.33333 11.5C9.33333 11.6326 9.38601 11.7598 9.47978 11.8536C9.57355 11.9473 9.70073 12 9.83333 12H14.1667C14.2993 12 14.4265 11.9473 14.5202 11.8536C14.614 11.7598 14.6667 11.6326 14.6667 11.5C14.6667 11.3674 14.614 11.2402 14.5202 11.1464C14.4265 11.0527 14.2993 11 14.1667 11H9.83333ZM9.83333 13.3333C9.70073 13.3333 9.57355 13.386 9.47978 13.4798C9.38601 13.5735 9.33333 13.7007 9.33333 13.8333C9.33333 13.9659 9.38601 14.0931 9.47978 14.1869C9.57355 14.2807 9.70073 14.3333 9.83333 14.3333H13.5C13.6326 14.3333 13.7598 14.2807 13.8536 14.1869C13.9473 14.0931 14 13.9659 14 13.8333C14 13.7007 13.9473 13.5735 13.8536 13.4798C13.7598 13.386 13.6326 13.3333 13.5 13.3333H9.83333ZM6 16.6667H7.418C7.47164 16.6755 7.52636 16.6755 7.58 16.6667H14V17.1667C14 17.3433 14.045 17.5087 14.1023 17.6667H6.5C6.218 17.6667 6 17.4487 6 17.1667V16.6667Z" fill="black"/>
</svg>
