<svg width="32" height="32" viewBox="0 0 32 32" fill="none" xmlns="http://www.w3.org/2000/svg">
<path d="M2.66699 0H29.3337V6.86762C29.3337 7.57015 28.9651 8.22116 28.3627 8.58261L16.0003 16L3.638 8.58261C3.03559 8.22116 2.66699 7.57015 2.66699 6.86762V0Z" fill="url(#paint0_linear_1053_4976)"/>
<path d="M10.667 0H21.3337V12H10.667V0Z" fill="url(#paint1_linear_1053_4976)"/>
<path d="M15.767 7.41877C16.4477 7.02577 17.2863 7.02577 17.967 7.41877L25.967 12.0376C26.6477 12.4306 27.067 13.1568 27.067 13.9428V23.1804C27.067 23.9664 26.6477 24.6927 25.967 25.0857L17.967 29.7045C17.2863 30.0975 16.4477 30.0975 15.767 29.7045L7.76699 25.0857C7.08631 24.6927 6.66699 23.9664 6.66699 23.1804V13.9428C6.66699 13.1568 7.08631 12.4306 7.76699 12.0376L15.767 7.41877Z" fill="url(#paint2_linear_1053_4976)" stroke="url(#paint3_linear_1053_4976)" stroke-width="0.7"/>
<path d="M16.2051 10.4874C16.615 10.2532 17.1182 10.2532 17.5281 10.4874L23.5887 13.9507C24.0041 14.188 24.2605 14.6298 24.2605 15.1083V22.011C24.2605 22.4895 24.0041 22.9312 23.5887 23.1687L17.5281 26.6319C17.1182 26.866 16.615 26.866 16.2051 26.6319L10.1445 23.1687C9.72904 22.9312 9.47266 22.4895 9.47266 22.011V15.1083C9.47266 14.6298 9.72904 14.188 10.1445 13.9507L16.2051 10.4874Z" fill="url(#paint4_linear_1053_4976)"/>
<path fill-rule="evenodd" clip-rule="evenodd" d="M26.7817 12.2796L20.3662 15.9836C18.2004 17.234 15.532 17.234 13.3662 15.9836L6.79004 12.1869V12.0076L15.5333 7.01741C16.3583 6.5466 17.3713 6.5501 18.193 7.02661L26.7817 12.0076V12.2796Z" fill="url(#paint5_linear_1053_4976)"/>
<path d="M18.8013 18.4766C19.3782 18.7016 19.823 19.0292 20.136 19.4593C20.4489 19.8896 20.6053 20.4176 20.6053 21.0433C20.6053 21.7082 20.4293 22.2802 20.0773 22.7593C19.735 23.2385 19.2658 23.6002 18.6693 23.8446C18.0729 24.0892 17.408 24.2114 16.6747 24.2114C15.736 24.2114 14.9342 24.0012 14.2693 23.5806C13.6142 23.1505 13.1449 22.5246 12.8613 21.7033L14.8267 20.5593C14.9636 21.0286 15.1933 21.3856 15.516 21.63C15.8387 21.8745 16.2004 21.9966 16.6013 21.9966C16.9924 21.9966 17.3151 21.894 17.5693 21.6886C17.8333 21.4736 17.9653 21.1802 17.9653 20.8086C17.9653 19.9776 17.2711 19.562 15.8827 19.562H15.516V17.538H16.1173C16.5867 17.538 16.9533 17.4256 17.2173 17.2006C17.4911 16.966 17.628 16.6776 17.628 16.3353C17.628 16.0225 17.5204 15.7732 17.3053 15.5873C17.0902 15.3918 16.8164 15.294 16.484 15.294C16.1124 15.294 15.7849 15.4212 15.5013 15.6753C15.2178 15.9296 15.0076 16.2865 14.8707 16.746L12.9933 15.6606C13.2476 14.8198 13.7022 14.1794 14.3573 13.7394C15.0222 13.2896 15.8093 13.0647 16.7187 13.0647C17.4129 13.0647 18.0289 13.1918 18.5667 13.446C19.1142 13.7003 19.5346 14.0571 19.828 14.5167C20.131 14.9762 20.2826 15.5042 20.2826 16.1006C20.2826 16.6482 20.1556 17.1273 19.9013 17.538C19.647 17.9389 19.2804 18.2518 18.8013 18.4766Z" fill="#463428"/>
<defs>
<linearGradient id="paint0_linear_1053_4976" x1="29.3335" y1="9.20753" x2="3.77027" y2="-3.3318" gradientUnits="userSpaceOnUse">
<stop offset="0.168929" stop-color="#282828"/>
<stop offset="0.696361" stop-color="#8B8B8B"/>
<stop offset="1" stop-color="#D7D7D7"/>
</linearGradient>
<linearGradient id="paint1_linear_1053_4976" x1="10.667" y1="-1.19403" x2="13.6433" y2="8.15347" gradientUnits="userSpaceOnUse">
<stop stop-color="#DFC1A9"/>
<stop offset="1" stop-color="#B58468"/>
</linearGradient>
<linearGradient id="paint2_linear_1053_4976" x1="7.74954" y1="12.1041" x2="23.6549" y2="26.6084" gradientUnits="userSpaceOnUse">
<stop stop-color="#EFD5C1"/>
<stop offset="1" stop-color="#CEA48E"/>
</linearGradient>
<linearGradient id="paint3_linear_1053_4976" x1="11.5337" y1="11.0933" x2="23.6549" y2="27.0933" gradientUnits="userSpaceOnUse">
<stop stop-opacity="0.12"/>
<stop offset="1"/>
</linearGradient>
<linearGradient id="paint4_linear_1053_4976" x1="10.9335" y1="14.8595" x2="21.478" y2="24.1864" gradientUnits="userSpaceOnUse">
<stop offset="0.000832664" stop-color="#E0BAA0"/>
<stop offset="0.980696" stop-color="#C6977C"/>
</linearGradient>
<linearGradient id="paint5_linear_1053_4976" x1="11.788" y1="9.0541" x2="20.891" y2="15.4066" gradientUnits="userSpaceOnUse">
<stop stop-color="white"/>
<stop offset="1" stop-color="white" stop-opacity="0"/>
</linearGradient>
</defs>
</svg>
