<svg width="148" height="44" viewBox="0 0 148 44" fill="none" xmlns="http://www.w3.org/2000/svg">
<path d="M142.518 0H5.48173C2.45425 0 0 2.46256 0 5.50028V38.4997C0 41.5374 2.45425 44 5.48173 44H142.518C145.546 44 148 41.5374 148 38.4997V5.50028C148 2.46256 145.546 0 142.518 0Z" fill="black"/>
<path d="M142.523 0.866251C143.744 0.870204 144.914 1.35975 145.776 2.22762C146.638 3.09549 147.122 4.2709 147.122 5.49627V38.5037C147.118 39.7265 146.632 40.8981 145.77 41.7627C144.909 42.6274 143.741 43.1149 142.523 43.1188H5.47735C4.25877 43.1149 3.09123 42.6274 2.22957 41.7627C1.3679 40.8981 0.882086 39.7265 0.878162 38.5037V5.49627C0.878155 4.2709 1.36224 3.09549 2.22432 2.22762C3.08641 1.35975 4.2562 0.870204 5.47735 0.866251H142.523ZM142.523 0H5.47735C4.02527 0.00197572 2.63323 0.581679 1.60645 1.612C0.579677 2.64232 0.00196892 4.03917 0 5.49627V38.5037C0.00196892 39.9608 0.579677 41.3577 1.60645 42.388C2.63323 43.4183 4.02527 43.998 5.47735 44H142.523C143.975 43.998 145.367 43.4183 146.394 42.388C147.42 41.3577 147.998 39.9608 148 38.5037V5.49627C147.998 4.04046 147.421 2.64474 146.396 1.61463C145.371 0.584524 143.981 0.00394929 142.53 0H142.523Z" fill="white"/>
<path fill-rule="evenodd" clip-rule="evenodd" d="M78.6159 7.98767C78.186 7.98767 77.7604 8.07292 77.3637 8.2385C76.967 8.40408 76.607 8.6467 76.3047 8.9523L76.3034 8.95366C75.7036 9.58321 75.3691 10.4194 75.3691 11.2889C75.3691 12.1584 75.7036 12.9946 76.3034 13.6242L76.3052 13.626C76.9188 14.2375 77.7497 14.5808 78.6159 14.5808C79.4822 14.5808 80.3131 14.2375 80.9266 13.626L80.9561 13.5967V13.5873C81.5363 12.9616 81.8592 12.1395 81.8592 11.2852C81.8592 10.4175 81.5261 9.58293 80.9286 8.95376L80.9271 8.9523C80.6248 8.6467 80.2649 8.40408 79.8681 8.2385C79.4714 8.07292 79.0458 7.98767 78.6159 7.98767ZM77.0214 12.9617L76.9352 12.8757C76.573 12.429 76.374 11.8704 76.374 11.2926C76.374 10.6697 76.6054 10.0689 77.0232 9.60687C77.4452 9.18666 78.0166 8.95071 78.6122 8.95071C79.2078 8.95071 79.7791 9.18662 80.2011 9.60676C80.6148 10.0679 80.8436 10.6656 80.8436 11.2852C80.8436 11.9047 80.6148 12.5024 80.2011 12.9636C79.7791 13.3837 79.2078 13.6196 78.6122 13.6196C78.0157 13.6196 77.4436 13.383 77.0214 12.9617Z" fill="white"/>
<path d="M49.9515 8.24002C50.3487 8.07715 50.775 7.9969 51.2042 8.00416C51.6529 7.99769 52.098 8.08416 52.5116 8.25813C52.89 8.41092 53.2275 8.65012 53.497 8.9566L53.5589 9.02703L52.8707 9.71519L52.8005 9.63242C52.607 9.40434 52.3634 9.22412 52.0887 9.10586C51.814 8.9876 51.5157 8.93451 51.217 8.95073L51.2109 8.95088C50.9062 8.94877 50.6043 9.0083 50.3232 9.12588C50.0421 9.24347 49.7877 9.41667 49.5753 9.6351C49.3629 9.85353 49.1968 10.1127 49.0871 10.3969C48.9774 10.6812 48.9264 10.9847 48.937 11.2891L48.937 11.295C48.9263 11.7513 49.0521 12.2003 49.2984 12.5846C49.5447 12.9688 49.9002 13.2706 50.3193 13.4513C50.7384 13.6321 51.202 13.6834 51.6505 13.5987C52.0982 13.5143 52.5105 13.2981 52.8346 12.978C53.1061 12.6822 53.2719 12.3059 53.308 11.9079H51.1191V10.9761H54.2603L54.2746 11.0591C54.301 11.2129 54.314 11.3686 54.3134 11.5245L54.3133 11.5405L54.3067 11.5605C54.3231 11.9389 54.2643 12.317 54.1335 12.6727C54.0006 13.0343 53.796 13.3654 53.532 13.6461L53.531 13.6472C53.2318 13.9557 52.8709 14.1977 52.4718 14.3573C52.0732 14.5168 51.6454 14.5905 51.2164 14.5736C50.5697 14.5643 49.9399 14.3658 49.4048 14.0026C48.8692 13.6392 48.452 13.1268 48.2046 12.5287C47.9572 11.9307 47.8905 11.2733 48.0127 10.6378C48.135 10.0022 48.441 9.41624 48.8926 8.95265C49.1934 8.64559 49.5537 8.4031 49.9515 8.24002Z" fill="white"/>
<path d="M64.0654 8.13858H59.6092V9.10022H61.3266V14.4467H62.3109L62.296 9.0853H64.0654V8.13858Z" fill="white"/>
<path d="M73.011 8.13858H68.6145V9.10022H70.332V14.4467H71.3084L71.3159 9.0853H73.011V8.13858Z" fill="white"/>
<path d="M83.876 8.13858H82.7498V14.4402L83.7413 14.4308V9.7164L86.6771 14.4392H87.6541V8.13858H86.685V12.6386L83.876 8.13858Z" fill="white"/>
<path d="M58.9729 8.14605H55.211V14.4467H58.9729V13.5H56.225V11.7585H58.7264V10.8267H56.225V9.1077H58.9729V8.14605Z" fill="white"/>
<path d="M67.8363 8.14605H66.8523V14.4467H67.8363V8.14605Z" fill="white"/>
<path d="M75.2915 23.2473C74.4356 23.2503 73.5997 23.5068 72.8895 23.9844C72.1792 24.4621 71.6264 25.1396 71.3009 25.9312C70.9754 26.7228 70.8918 27.5931 71.0606 28.4323C71.2293 29.2714 71.643 30.0417 72.2493 30.6459C72.8556 31.2501 73.6273 31.6611 74.467 31.827C75.3067 31.9929 76.1767 31.9063 76.9672 31.578C77.7577 31.2498 78.4333 30.6947 78.9085 29.9828C79.3837 29.2709 79.6374 28.4342 79.6374 27.5782C79.6476 27.0054 79.542 26.4365 79.327 25.9054C79.112 25.3744 78.792 24.8922 78.3862 24.4878C77.9804 24.0834 77.4972 23.7651 76.9654 23.5519C76.4336 23.3388 75.8643 23.2352 75.2915 23.2473ZM75.2915 30.1917C74.7647 30.2293 74.2388 30.1072 73.7823 29.8414C73.3259 29.5756 72.9601 29.1786 72.7326 28.7019C72.5052 28.2252 72.4266 27.6911 72.5072 27.1691C72.5877 26.6471 72.8237 26.1615 73.1842 25.7755C73.5448 25.3896 74.0133 25.1212 74.5286 25.0055C75.0439 24.8897 75.5822 24.9318 76.0732 25.1264C76.5642 25.321 76.9852 25.659 77.2813 26.0963C77.5774 26.5337 77.7349 27.0501 77.7333 27.5782C77.7483 27.9105 77.6969 28.2423 77.5821 28.5545C77.4673 28.8666 77.2914 29.1527 77.0648 29.396C76.8381 29.6394 76.5652 29.8351 76.262 29.9717C75.9588 30.1083 75.6314 30.1831 75.299 30.1917H75.2915ZM65.8232 23.2473C64.9666 23.2473 64.1293 23.5013 63.4171 23.9772C62.7048 24.4531 62.1497 25.1295 61.8219 25.9209C61.4941 26.7122 61.4084 27.583 61.5755 28.4232C61.7426 29.2633 62.1551 30.035 62.7608 30.6407C63.3665 31.2464 64.1382 31.6588 64.9783 31.8259C65.8184 31.9931 66.6892 31.9073 67.4806 31.5795C68.2719 31.2517 68.9483 30.6966 69.4242 29.9844C69.9001 29.2722 70.1541 28.4348 70.1541 27.5782C70.1643 27.0054 70.0587 26.4365 69.8438 25.9054C69.6288 25.3744 69.3088 24.8922 68.903 24.4878C68.4972 24.0834 68.0139 23.7651 67.4821 23.5519C66.9504 23.3388 66.381 23.2352 65.8083 23.2473H65.8232ZM65.8232 30.1917C65.296 30.2323 64.7688 30.1129 64.3105 29.8491C63.8523 29.5854 63.4842 29.1896 63.2544 28.7134C63.0246 28.2372 62.9437 27.7027 63.0224 27.1798C63.1011 26.657 63.3357 26.17 63.6955 25.7825C64.0553 25.3951 64.5236 25.1251 65.0392 25.008C65.5548 24.8908 66.0938 24.9319 66.5857 25.1258C67.0776 25.3198 67.4996 25.6576 67.7965 26.0951C68.0934 26.5326 68.2515 27.0495 68.25 27.5782C68.265 27.9105 68.2136 28.2423 68.0988 28.5545C67.9841 28.8666 67.8082 29.1527 67.5815 29.396C67.3549 29.6394 67.082 29.8351 66.7788 29.9717C66.4756 30.1083 66.1482 30.1831 65.8157 30.1917H65.8232ZM54.5478 24.5914V26.4134H58.931C58.8636 27.2775 58.5057 28.0934 57.9155 28.7282C57.4757 29.1766 56.9468 29.5279 56.3629 29.7594C55.779 29.9909 55.1531 30.0975 54.5254 30.0723C53.2303 30.0723 51.9881 29.5578 51.0723 28.6419C50.1565 27.7261 49.6419 26.4839 49.6419 25.1888C49.6419 23.8936 50.1565 22.6514 51.0723 21.7356C51.9881 20.8198 53.2303 20.3053 54.5254 20.3053C55.7658 20.2848 56.9636 20.7575 57.8558 21.6195L59.1401 20.3277C58.5386 19.7182 57.8209 19.2356 57.0296 18.9085C56.2382 18.5815 55.3892 18.4165 54.5329 18.4236C52.7505 18.4236 51.0412 19.1316 49.7809 20.3919C48.5205 21.6522 47.8125 23.3616 47.8125 25.144C47.8125 26.9263 48.5205 28.6357 49.7809 29.896C51.0412 31.1563 52.7505 31.8644 54.5329 31.8644C55.4035 31.9034 56.2725 31.7557 57.0813 31.4311C57.8901 31.1066 58.6201 30.6127 59.2223 29.9827C60.2864 28.8107 60.8539 27.2713 60.8053 25.6891C60.8101 25.3035 60.7776 24.9184 60.7082 24.5391H54.5329L54.5478 24.5914ZM100.635 26.0101C100.371 25.2284 99.8747 24.5455 99.2132 24.0521C98.5517 23.5587 97.7559 23.278 96.9312 23.2473C96.3741 23.2462 95.8226 23.3594 95.311 23.5801C94.7995 23.8007 94.3386 24.1241 93.9571 24.5301C93.5756 24.9361 93.2815 25.4162 93.0931 25.9405C92.9046 26.4648 92.8259 27.0223 92.8616 27.5782C92.8506 28.1462 92.9539 28.7105 93.1654 29.2377C93.377 29.7649 93.6925 30.2441 94.0931 30.6468C94.4937 31.0495 94.9713 31.3675 95.4974 31.5818C96.0234 31.7961 96.5873 31.9024 97.1552 31.8942C97.8664 31.898 98.5675 31.7254 99.1956 31.3918C99.8237 31.0582 100.359 30.574 100.754 29.9827L99.2834 28.9596C99.0629 29.3264 98.7508 29.6295 98.3776 29.839C98.0044 30.0485 97.5832 30.1572 97.1552 30.1544C96.716 30.1709 96.2818 30.0552 95.9091 29.8223C95.5363 29.5893 95.2421 29.2498 95.0644 28.8476L100.851 26.4582L100.635 26.0101ZM94.7359 27.4513C94.7147 27.1367 94.7565 26.8211 94.859 26.5229C94.9614 26.2248 95.1224 25.9501 95.3325 25.715C95.5425 25.4799 95.7974 25.2891 96.0822 25.1538C96.367 25.0186 96.676 24.9416 96.991 24.9274C97.3191 24.9066 97.6461 24.9826 97.9314 25.1458C98.2168 25.3091 98.448 25.5525 98.5964 25.8459L94.7359 27.4513ZM90.0316 31.6329H91.9357V18.9388H90.0316V31.6329ZM86.9178 24.218H86.8581C86.571 23.8985 86.2198 23.6429 85.8274 23.4679C85.435 23.2929 85.0102 23.2025 84.5806 23.2025C83.432 23.2025 82.3304 23.6588 81.5182 24.471C80.706 25.2832 80.2497 26.3848 80.2497 27.5334C80.2497 28.6821 80.706 29.7837 81.5182 30.5959C82.3304 31.4081 83.432 31.8644 84.5806 31.8644C85.0113 31.8717 85.4385 31.7846 85.8319 31.6091C86.2254 31.4337 86.5757 31.1742 86.8581 30.8488H86.9178V31.5507C86.9178 33.2084 86.0218 34.0896 84.603 34.0896C84.1312 34.0768 83.6738 33.9246 83.2884 33.6522C82.903 33.3797 82.607 32.9993 82.4375 32.5588L80.7724 33.2458C81.0848 34.0054 81.6172 34.6544 82.301 35.1094C82.9849 35.5644 83.7891 35.8047 84.6105 35.7995C86.8506 35.7995 88.6875 34.4928 88.6875 31.2969V23.4937H86.9327L86.9178 24.218ZM84.7523 30.1917C84.1055 30.1226 83.507 29.8166 83.0721 29.3328C82.6372 28.8489 82.3966 28.2213 82.3966 27.5708C82.3966 26.9202 82.6372 26.2926 83.0721 25.8088C83.507 25.3249 84.1055 25.019 84.7523 24.9498C85.0785 24.9658 85.3982 25.0471 85.6924 25.1888C85.9866 25.3305 86.2494 25.5298 86.4652 25.7748C86.681 26.0199 86.8455 26.3058 86.9489 26.6156C87.0523 26.9253 87.0925 27.2527 87.0672 27.5782C87.0936 27.9045 87.0536 28.2327 86.9495 28.543C86.8454 28.8533 86.6795 29.1393 86.4617 29.3837C86.2439 29.628 85.9788 29.8256 85.6824 29.9645C85.386 30.1034 85.0645 30.1807 84.7374 30.1917H84.7523ZM109.543 18.9164H105.003V31.6403H106.907V26.8315H109.566C110.105 26.8637 110.645 26.7851 111.153 26.6006C111.66 26.4161 112.125 26.1296 112.518 25.7588C112.91 25.388 113.223 24.9408 113.437 24.4445C113.65 23.9483 113.76 23.4136 113.759 22.8735C113.758 22.3333 113.646 21.7991 113.431 21.3036C113.215 20.8082 112.901 20.3621 112.507 19.9928C112.113 19.6235 111.647 19.3388 111.139 19.1563C110.63 18.9737 110.09 18.8971 109.551 18.9313L109.543 18.9164ZM109.543 25.0394H106.9V20.6936H109.588C109.874 20.6936 110.158 20.75 110.422 20.8595C110.687 20.9691 110.927 21.1297 111.13 21.3322C111.332 21.5346 111.493 21.775 111.602 22.0396C111.712 22.3041 111.768 22.5876 111.768 22.874C111.768 23.1603 111.712 23.4438 111.602 23.7084C111.493 23.9729 111.332 24.2133 111.13 24.4157C110.927 24.6182 110.687 24.7788 110.422 24.8884C110.158 24.9979 109.874 25.0544 109.588 25.0544L109.543 25.0394ZM121.282 23.2025C120.59 23.1621 119.902 23.3243 119.301 23.6691C118.7 24.0139 118.213 24.5265 117.899 25.144L119.579 25.8533C119.743 25.5468 119.993 25.2946 120.298 25.1276C120.603 24.9605 120.95 24.8858 121.296 24.9125C121.539 24.8824 121.786 24.9014 122.021 24.9682C122.256 25.035 122.476 25.1484 122.667 25.3015C122.857 25.4547 123.015 25.6446 123.131 25.8599C123.248 26.0753 123.319 26.3117 123.342 26.5552V26.6822C122.729 26.3556 122.044 26.1863 121.349 26.1894C119.527 26.1894 117.69 27.2123 117.69 29.0567C117.708 29.4492 117.804 29.8342 117.973 30.1888C118.142 30.5435 118.381 30.8607 118.675 31.1217C118.968 31.3827 119.311 31.5822 119.683 31.7085C120.055 31.8348 120.449 31.8852 120.841 31.8569C121.321 31.8904 121.802 31.7936 122.231 31.5768C122.661 31.3599 123.024 31.031 123.283 30.6248H123.342V31.6403H125.179V26.7569C125.179 24.5317 123.484 23.2473 121.319 23.2473L121.282 23.2025ZM121.057 30.1768C120.718 30.2268 120.372 30.1425 120.093 29.9418C119.814 29.7411 119.624 29.4397 119.564 29.1015C119.564 28.0785 120.647 27.7425 121.603 27.7425C122.203 27.7291 122.796 27.8761 123.32 28.1681C123.257 28.7179 122.999 29.2266 122.591 29.601C122.184 29.9754 121.655 30.1905 121.102 30.2067L121.057 30.1768ZM131.862 23.5161L129.682 29.0268H129.622L127.36 23.5161H125.329L128.711 31.2222L126.785 35.5083H128.764L133.976 23.5161H131.87H131.862ZM114.763 31.6553H116.659V18.9313H114.755L114.763 31.6553Z" fill="white"/>
<path d="M16.5896 8.78346C16.2552 9.1836 16.0868 9.69667 16.1192 10.2171V32.723C16.0907 33.2385 16.2588 33.7455 16.5896 34.1418L16.6643 34.2165L29.2613 21.6269V21.3133L16.6568 8.72372L16.5896 8.78346Z" fill="url(#paint0_linear_4170_83014)"/>
<path d="M33.4433 25.8236L29.2617 21.6196V21.3209L33.4433 17.1094L33.518 17.1617L38.5209 19.9992C39.9397 20.7982 39.9397 22.1273 38.5209 22.9413L33.5478 25.7638L33.4433 25.8236Z" fill="url(#paint1_linear_4170_83014)"/>
<path d="M33.559 25.7639L29.2655 21.4703L16.5938 34.142C16.884 34.3964 17.2538 34.5415 17.6396 34.5524C18.0254 34.5633 18.4028 34.4393 18.7069 34.2017L33.5665 25.7639" fill="url(#paint2_linear_4170_83014)"/>
<path d="M33.5603 17.1767L18.7007 8.73882C18.3969 8.49827 18.0184 8.37178 17.631 8.38133C17.2435 8.39088 16.8717 8.53586 16.5801 8.79108L29.2742 21.4852L33.5603 17.1767Z" fill="url(#paint3_linear_4170_83014)"/>
<defs>
<linearGradient id="paint0_linear_4170_83014" x1="28.1327" y1="10.0484" x2="11.0671" y2="27.114" gradientUnits="userSpaceOnUse">
<stop stop-color="#00A0FF"/>
<stop offset="0.01" stop-color="#00A1FF"/>
<stop offset="0.26" stop-color="#00BEFF"/>
<stop offset="0.51" stop-color="#00D2FF"/>
<stop offset="0.76" stop-color="#00DFFF"/>
<stop offset="1" stop-color="#00E3FF"/>
</linearGradient>
<linearGradient id="paint1_linear_4170_83014" x1="40.3679" y1="21.5307" x2="15.7662" y2="21.5307" gradientUnits="userSpaceOnUse">
<stop stop-color="#FFE000"/>
<stop offset="0.41" stop-color="#FFBD00"/>
<stop offset="0.78" stop-color="#FFA500"/>
<stop offset="1" stop-color="#FF9C00"/>
</linearGradient>
<linearGradient id="paint2_linear_4170_83014" x1="31.2185" y1="23.8699" x2="8.07104" y2="47.0072" gradientUnits="userSpaceOnUse">
<stop stop-color="#FF3A44"/>
<stop offset="1" stop-color="#C31162"/>
</linearGradient>
<linearGradient id="paint3_linear_4170_83014" x1="13.3913" y1="1.37336" x2="23.7243" y2="11.7063" gradientUnits="userSpaceOnUse">
<stop stop-color="#32A071"/>
<stop offset="0.07" stop-color="#2DA771"/>
<stop offset="0.48" stop-color="#15CF74"/>
<stop offset="0.8" stop-color="#06E775"/>
<stop offset="1" stop-color="#00F076"/>
</linearGradient>
</defs>
</svg>
