<svg width="18" height="20" viewBox="0 0 18 20" fill="none" xmlns="http://www.w3.org/2000/svg">
<path d="M0.36381 0.307796C0.107328 0.613566 -0.0217916 1.00564 0.00301164 1.40337V18.6017C-0.0188309 18.9956 0.110111 19.383 0.36381 19.6859L0.42108 19.7429L10.0825 10.1224V9.8827L0.415353 0.262146L0.36381 0.307796Z" fill="url(#paint0_linear_4165_82689)"/>
<path d="M13.2891 13.3295L10.082 10.1169V9.88868L13.2891 6.67041L13.3464 6.71036L17.1835 8.87868C18.2716 9.48924 18.2716 10.5049 17.1835 11.1269L13.3693 13.2838L13.2891 13.3295Z" fill="url(#paint1_linear_4165_82689)"/>
<path d="M13.3749 13.2835L10.0819 10.0024L0.363281 19.6858C0.58586 19.8802 0.869534 19.9911 1.1654 19.9994C1.46126 20.0077 1.75077 19.913 1.98401 19.7314L13.3807 13.2835" fill="url(#paint2_linear_4165_82689)"/>
<path d="M13.3747 6.7215L1.97802 0.273563C1.74498 0.089746 1.45467 -0.00691221 1.15754 0.000384892C0.860405 0.00768199 0.575228 0.118469 0.351562 0.313502L10.0874 10.014L13.3747 6.7215Z" fill="url(#paint3_linear_4165_82689)"/>
<defs>
<linearGradient id="paint0_linear_4165_82689" x1="9.2169" y1="1.27443" x2="-3.82404" y2="14.363" gradientUnits="userSpaceOnUse">
<stop stop-color="#00A0FF"/>
<stop offset="0.01" stop-color="#00A1FF"/>
<stop offset="0.26" stop-color="#00BEFF"/>
<stop offset="0.51" stop-color="#00D2FF"/>
<stop offset="0.76" stop-color="#00DFFF"/>
<stop offset="1" stop-color="#00E3FF"/>
</linearGradient>
<linearGradient id="paint1_linear_4165_82689" x1="18.6" y1="10.049" x2="-0.268497" y2="10.049" gradientUnits="userSpaceOnUse">
<stop stop-color="#FFE000"/>
<stop offset="0.41" stop-color="#FFBD00"/>
<stop offset="0.78" stop-color="#FFA500"/>
<stop offset="1" stop-color="#FF9C00"/>
</linearGradient>
<linearGradient id="paint2_linear_4165_82689" x1="11.5798" y1="11.8362" x2="-6.10864" y2="29.5814" gradientUnits="userSpaceOnUse">
<stop stop-color="#FF3A44"/>
<stop offset="1" stop-color="#C31162"/>
</linearGradient>
<linearGradient id="paint3_linear_4165_82689" x1="-2.09408" y1="-5.35489" x2="5.80199" y2="2.56999" gradientUnits="userSpaceOnUse">
<stop stop-color="#32A071"/>
<stop offset="0.07" stop-color="#2DA771"/>
<stop offset="0.48" stop-color="#15CF74"/>
<stop offset="0.8" stop-color="#06E775"/>
<stop offset="1" stop-color="#00F076"/>
</linearGradient>
</defs>
</svg>
