<svg width="16" height="16" viewBox="0 0 16 16" fill="none" xmlns="http://www.w3.org/2000/svg">
<path d="M12.6875 14.7188H3.3125C2.1925 14.7188 1.28125 13.8075 1.28125 12.6875V10.5C1.28125 10.2413 1.49109 10.0312 1.75 10.0312C2.00891 10.0312 2.21875 10.2413 2.21875 10.5V12.6875C2.21875 13.2905 2.70953 13.7812 3.3125 13.7812H12.6875C13.2905 13.7812 13.7812 13.2905 13.7812 12.6875V10.5C13.7812 10.2413 13.9913 10.0312 14.25 10.0312C14.5087 10.0312 14.7188 10.2413 14.7188 10.5V12.6875C14.7188 13.8075 13.8075 14.7188 12.6875 14.7188Z" fill="white"/>
<path d="M7.99996 11.5937C7.87996 11.5937 7.76012 11.5479 7.66855 11.4564L3.69105 7.47887C3.50793 7.2959 3.50793 6.99902 3.69105 6.81605C3.87418 6.63293 4.17074 6.63293 4.35387 6.81605L8.33137 10.7936C8.51449 10.9767 8.51449 11.2732 8.33137 11.4564C8.2879 11.5 8.23625 11.5346 8.17938 11.5581C8.1225 11.5817 8.06153 11.5938 7.99996 11.5937Z" fill="white"/>
<path d="M8 11.5937C7.88 11.5937 7.76016 11.5479 7.66859 11.4564C7.48547 11.2732 7.48547 10.9767 7.66859 10.7936L11.6459 6.81605C11.8291 6.63293 12.1256 6.63293 12.3088 6.81605C12.4919 6.99902 12.4919 7.29574 12.3088 7.47887L8.33141 11.4564C8.28794 11.5 8.23629 11.5346 8.17941 11.5581C8.12254 11.5817 8.06157 11.5938 8 11.5937Z" fill="white"/>
<path d="M8 11.5938C7.74109 11.5938 7.53125 11.3837 7.53125 11.125V1.75C7.53125 1.49109 7.74109 1.28125 8 1.28125C8.25891 1.28125 8.46875 1.49109 8.46875 1.75V11.125C8.46875 11.3837 8.25891 11.5938 8 11.5938Z" fill="white"/>
</svg>
