<svg width="32" height="32" viewBox="0 0 32 32" fill="none" xmlns="http://www.w3.org/2000/svg">
<path fill-rule="evenodd" clip-rule="evenodd" d="M0.452382 13.6822L0.453315 13.6755C1.40234 6.5982 7.46446 1.14013 14.8019 1.14013H24.1285C24.4156 0.46991 25.081 0 25.8565 0C26.8948 0 27.7361 0.84142 27.7361 1.87933C27.7361 2.91728 26.8948 3.75865 25.8565 3.75865C25.0645 3.75865 24.3872 3.26875 24.1108 2.57573H14.8019C8.17614 2.57573 2.70424 7.51642 1.86993 13.9146C1.83367 14.2431 1.55251 14.5266 1.15927 14.5266C0.785226 14.5266 0.47798 14.2404 0.444336 13.8751L0.452382 13.6822ZM26.6134 1.88057C26.6134 2.29946 26.2739 2.63901 25.8552 2.63901C25.4361 2.63901 25.0965 2.29946 25.0965 1.88057C25.0965 1.46168 25.4361 1.12213 25.8552 1.12213C26.2739 1.12213 26.6134 1.46168 26.6134 1.88057Z" fill="url(#paint0_linear_608_4280)"/>
<path fill-rule="evenodd" clip-rule="evenodd" d="M0.499908 18.6573C0.365419 17.8542 0.642975 17.1977 1.08475 16.6644C1.52146 16.1377 2.12577 15.7217 2.66906 15.3835C2.73421 15.3431 2.81146 15.2995 2.89173 15.2542L2.89448 15.2524C3.42145 14.9546 4.18514 14.5124 4.37541 13.6342C4.38367 13.596 4.39216 13.5577 4.40083 13.5195C4.43203 13.3826 4.46576 13.2466 4.50199 13.112C5.78601 8.3302 10.1819 4.9231 15.1876 4.9231H27.8867C28.1738 4.25245 28.8396 3.78223 29.6156 3.78223C30.6534 3.78223 31.4947 4.62355 31.4947 5.66177C31.4947 6.69954 30.6534 7.54087 29.6156 7.54087C28.8218 7.54087 28.144 7.04932 27.868 6.35465L21.5334 6.3551V6.35421H15.1876C10.8881 6.35421 7.10383 9.24309 5.93037 13.3169C5.88908 13.4604 5.85104 13.6049 5.81628 13.7511C5.80681 13.7911 5.79757 13.8311 5.78859 13.8715C5.46468 15.3177 4.12079 16.0662 3.2487 16.552L3.20594 16.576C2.97617 16.704 2.60768 16.9466 2.31804 17.2697C2.02711 17.5937 1.84035 17.9693 1.90315 18.3764C2.74274 23.8173 7.34343 29.3932 15.1876 29.3932H21.5334V29.3924H24.1236C24.408 28.7164 25.0765 28.2412 25.8565 28.2412C26.8947 28.2412 27.736 29.0826 27.736 30.1204C27.736 31.1586 26.8947 31.9999 25.8565 31.9999C25.0672 31.9999 24.392 31.5132 24.1138 30.8244H22.3623H15.1876C6.6729 30.8244 1.50666 24.7626 0.499908 18.6573ZM30.3738 5.66088C30.3738 6.07954 30.0342 6.4191 29.6156 6.4191C29.1965 6.4191 28.8569 6.07954 28.8569 5.66088C28.8569 5.24177 29.1965 4.90221 29.6156 4.90221C30.0342 4.90221 30.3738 5.24177 30.3738 5.66088ZM26.616 30.1248C26.616 30.5439 26.2765 30.8835 25.8578 30.8835C25.4387 30.8835 25.0991 30.5439 25.0991 30.1248C25.0991 29.7061 25.4387 29.3666 25.8578 29.3666C26.2765 29.3666 26.616 29.7061 26.616 30.1248Z" fill="url(#paint1_linear_608_4280)"/>
<path fill-rule="evenodd" clip-rule="evenodd" d="M21.5331 27.0491L15.1873 27.0486C9.64735 27.0486 4.93159 22.9127 4.21754 17.4265C4.1663 17.0349 4.44265 16.6762 4.8339 16.6247C5.22541 16.5713 5.58585 16.8513 5.63692 17.242C6.25816 22.0162 10.3642 25.6175 15.1873 25.6175L27.8775 25.6171C28.1597 24.9358 28.8308 24.4558 29.6153 24.4558C30.6531 24.4558 31.4944 25.2971 31.4944 26.3349C31.4944 27.3726 30.6531 28.2144 29.6153 28.2144C28.8295 28.2144 28.1575 27.7326 27.8762 27.0491H21.5331ZM30.3735 26.3389C30.3735 26.7575 30.0339 27.0971 29.6153 27.0971C29.1962 27.0971 28.8566 26.7575 28.8566 26.3389C28.8566 25.9198 29.1962 25.5802 29.6153 25.5802C30.0339 25.5802 30.3735 25.9198 30.3735 26.3389Z" fill="url(#paint2_linear_608_4280)"/>
<defs>
<linearGradient id="paint0_linear_608_4280" x1="27.8765" y1="2.44453" x2="19.4286" y2="30.6959" gradientUnits="userSpaceOnUse">
<stop offset="0.103627" stop-color="#19FFE0"/>
<stop offset="1" stop-color="#9D47FF"/>
</linearGradient>
<linearGradient id="paint1_linear_608_4280" x1="27.8765" y1="2.44454" x2="19.4285" y2="30.6959" gradientUnits="userSpaceOnUse">
<stop offset="0.103627" stop-color="#19FFE0"/>
<stop offset="1" stop-color="#9D47FF"/>
</linearGradient>
<linearGradient id="paint2_linear_608_4280" x1="27.8762" y1="2.44439" x2="19.4282" y2="30.6957" gradientUnits="userSpaceOnUse">
<stop offset="0.103627" stop-color="#19FFE0"/>
<stop offset="1" stop-color="#9D47FF"/>
</linearGradient>
</defs>
</svg>
