<svg width="22" height="22" viewBox="0 0 22 22" fill="none" xmlns="http://www.w3.org/2000/svg">
<g clip-path="url(#clip0_3342_24147)">
<path d="M0 11C0 13.9174 1.15893 16.7153 3.22183 18.7782C5.28473 20.8411 8.08262 22 11 22C13.9174 22 16.7153 20.8411 18.7782 18.7782C20.8411 16.7153 22 13.9174 22 11C22 8.08262 20.8411 5.28473 18.7782 3.22183C16.7153 1.15893 13.9174 0 11 0C8.08262 0 5.28473 1.15893 3.22183 3.22183C1.15893 5.28473 0 8.08262 0 11Z" fill="#00F0FF"/>
<path fill-rule="evenodd" clip-rule="evenodd" d="M14 17.5C14.5523 17.5 15 17.0523 15 16.5V14.3889H7V16.5005C7 17.0527 7.44772 17.5 8 17.5H14ZM8 4.5C7.44772 4.5 7 4.94816 7 5.50044V13.6111H15V5.5C15 4.94772 14.5523 4.5 14 4.5H8ZM11 16.75C11.4142 16.75 11.75 16.4142 11.75 16C11.75 15.5858 11.4142 15.25 11 15.25C10.5858 15.25 10.25 15.5858 10.25 16C10.25 16.4142 10.5858 16.75 11 16.75Z" fill="#10141A"/>
</g>
<defs>
<clipPath id="clip0_3342_24147">
<rect width="22" height="22" fill="white"/>
</clipPath>
</defs>
</svg>
