<svg width="26" height="26" viewBox="0 0 26 26" fill="none" xmlns="http://www.w3.org/2000/svg">
<circle cx="13" cy="5.5" r="4.5" fill="white"/>
<circle cx="4" cy="10.5" r="3" fill="white"/>
<circle cx="22" cy="10.5" r="3" fill="white"/>
<path d="M2 18C2 16.3431 3.34315 15 5 15C5.55228 15 6 15.4477 6 16V24C6 24.5523 5.55228 25 5 25H3C2.44772 25 2 24.5523 2 24V18Z" fill="white"/>
<path d="M8 15C8 13.3431 9.34315 12 11 12H15C16.6569 12 18 13.3431 18 15V24C18 24.5523 17.5523 25 17 25H9C8.44772 25 8 24.5523 8 24V15Z" fill="white"/>
<path d="M24 18C24 16.3431 22.6569 15 21 15C20.4477 15 20 15.4477 20 16V24C20 24.5523 20.4477 25 21 25H23C23.5523 25 24 24.5523 24 24V18Z" fill="white"/>
</svg>
