<svg width="148" height="148" viewBox="0 0 148 148" fill="none" xmlns="http://www.w3.org/2000/svg">
<g clip-path="url(#clip0_7819_26938)">
<path d="M132 0H16C7.16344 0 0 7.16344 0 16V132C0 140.837 7.16344 148 16 148H132C140.837 148 148 140.837 148 132V16C148 7.16344 140.837 0 132 0Z" fill="black"/>
<path fill-rule="evenodd" clip-rule="evenodd" d="M33.6316 68.1834L33.6339 68.1667C36.0157 50.4045 51.2295 36.707 69.6433 36.707H93.0504C93.7707 35.025 95.4409 33.8457 97.3875 33.8457C99.9925 33.8457 102.104 35.9574 102.104 38.5622C102.104 41.167 99.9925 43.2787 97.3875 43.2787C95.3999 43.2787 93.7002 42.0491 93.0059 40.31H69.6433C53.0155 40.31 39.2829 52.7095 37.1891 68.7662C37.0981 69.5906 36.3926 70.3017 35.4057 70.3017C34.4669 70.3017 33.6958 69.5842 33.6115 68.6673L33.6316 68.1834ZM99.2866 38.5653C99.2866 39.6165 98.4345 40.4687 97.3834 40.4687C96.3318 40.4687 95.4797 39.6165 95.4797 38.5653C95.4797 37.514 96.3318 36.6618 97.3834 36.6618C98.4345 36.6618 99.2866 37.514 99.2866 38.5653Z" fill="white"/>
<path fill-rule="evenodd" clip-rule="evenodd" d="M33.7509 80.6687C33.4135 78.6534 34.11 77.0057 35.2188 75.6679C36.3147 74.3457 37.8313 73.3016 39.1948 72.4535C39.3583 72.3518 39.5521 72.2419 39.7535 72.1281L39.7605 72.124C41.083 71.3765 42.9996 70.2671 43.4771 68.0621C43.4979 67.9667 43.5192 67.8707 43.5409 67.7754C43.6192 67.4314 43.7039 67.0903 43.7947 66.7515C47.0172 54.752 58.0496 46.2013 70.6122 46.2013L102.483 46.2005C103.203 44.5178 104.873 43.3379 106.821 43.3379C109.425 43.3379 111.537 45.4495 111.537 48.0544C111.537 50.6592 109.425 52.7708 106.821 52.7708C104.83 52.7708 103.128 51.5374 102.436 49.7939L86.5373 49.7943V49.7929H70.6122C59.8221 49.7929 50.3245 57.0422 47.3795 67.2666C47.2759 67.6262 47.1804 67.9898 47.0933 68.3564C47.0695 68.457 47.0463 68.557 47.0238 68.6581C46.2108 72.2876 42.8381 74.1665 40.6494 75.3858L40.5422 75.4459C39.9655 75.7668 39.0408 76.3761 38.3138 77.1861C37.5837 78.0001 37.115 78.9424 37.2726 79.9634C39.3797 93.6193 50.9259 107.613 70.6122 107.613H86.5373V107.61H93.0383C93.7523 105.914 95.43 104.722 97.3875 104.722C99.9925 104.722 102.104 106.833 102.104 109.438C102.104 112.042 99.9925 114.154 97.3875 114.154C95.4069 114.154 93.7118 112.933 93.0134 111.204H88.6179V111.205H70.6122C49.2431 111.205 36.2776 95.9913 33.7509 80.6687ZM108.724 48.0524C108.724 49.1037 107.872 49.9559 106.821 49.9559C105.77 49.9559 104.918 49.1037 104.918 48.0524C104.918 47.0012 105.77 46.149 106.821 46.149C107.872 46.149 108.724 47.0012 108.724 48.0524ZM99.2936 109.449C99.2936 110.5 98.4414 111.352 97.3898 111.352C96.3388 111.352 95.4866 110.5 95.4866 109.449C95.4866 108.398 96.3388 107.545 97.3898 107.545C98.4414 107.545 99.2936 108.398 99.2936 109.449Z" fill="white"/>
<path fill-rule="evenodd" clip-rule="evenodd" d="M86.5372 101.73V101.729H70.6121C56.7087 101.729 44.8736 91.3491 43.0817 77.5811C42.953 76.5977 43.6466 75.6976 44.6285 75.5681C45.611 75.4345 46.5155 76.1369 46.6438 77.1174C48.2029 89.0991 58.5079 98.1369 70.6121 98.1369L102.46 98.1363C103.168 96.4256 104.853 95.2214 106.821 95.2214C109.425 95.2214 111.537 97.3327 111.537 99.9378C111.537 102.543 109.425 104.654 106.821 104.654C104.849 104.654 103.162 103.445 102.456 101.73H86.5372ZM108.724 99.947C108.724 100.999 107.872 101.851 106.821 101.851C105.77 101.851 104.918 100.999 104.918 99.947C104.918 98.896 105.77 98.0438 106.821 98.0438C107.872 98.0438 108.724 98.896 108.724 99.947Z" fill="white"/>
</g>
<defs>
<clipPath id="clip0_7819_26938">
<rect width="148" height="148" fill="white"/>
</clipPath>
</defs>
</svg>
