<svg width="148" height="148" viewBox="0 0 148 148" fill="none" xmlns="http://www.w3.org/2000/svg">
<g clip-path="url(#clip0_7819_26898)">
<path d="M132 0H16C7.16344 0 0 7.16344 0 16V132C0 140.837 7.16344 148 16 148H132C140.837 148 148 140.837 148 132V16C148 7.16344 140.837 0 132 0Z" fill="white"/>
<path fill-rule="evenodd" clip-rule="evenodd" d="M33.6315 68.1834L33.6338 68.1667C36.0156 50.4045 51.2293 36.707 69.6431 36.707H93.0503C93.7706 35.025 95.4408 33.8457 97.3874 33.8457C99.9924 33.8457 102.104 35.9574 102.104 38.5622C102.104 41.167 99.9924 43.2787 97.3874 43.2787C95.3998 43.2787 93.7001 42.0491 93.0057 40.31H69.6431C53.0154 40.31 39.2828 52.7095 37.189 68.7662C37.098 69.5906 36.3925 70.3017 35.4055 70.3017C34.4668 70.3017 33.6957 69.5842 33.6113 68.6673L33.6315 68.1834ZM99.2865 38.5653C99.2865 39.6165 98.4343 40.4687 97.3833 40.4687C96.3317 40.4687 95.4795 39.6165 95.4795 38.5653C95.4795 37.514 96.3317 36.6618 97.3833 36.6618C98.4343 36.6618 99.2865 37.514 99.2865 38.5653Z" fill="black"/>
<path fill-rule="evenodd" clip-rule="evenodd" d="M33.7508 80.6687C33.4134 78.6534 34.1099 77.0057 35.2187 75.6679C36.3146 74.3457 37.8312 73.3016 39.1947 72.4535C39.3582 72.3518 39.552 72.2419 39.7534 72.1281L39.7604 72.124C41.0829 71.3765 42.9995 70.2671 43.4769 68.0621C43.4978 67.9667 43.519 67.8707 43.5408 67.7754C43.6191 67.4314 43.7037 67.0903 43.7946 66.7515C47.0171 54.752 58.0495 46.2013 70.6121 46.2013L102.482 46.2005C103.203 44.5178 104.873 43.3379 106.821 43.3379C109.425 43.3379 111.537 45.4495 111.537 48.0544C111.537 50.6592 109.425 52.7708 106.821 52.7708C104.83 52.7708 103.128 51.5374 102.436 49.7939L86.5371 49.7943V49.7929H70.6121C59.822 49.7929 50.3244 57.0422 47.3794 67.2666C47.2758 67.6262 47.1803 67.9898 47.0932 68.3564C47.0694 68.457 47.0462 68.557 47.0236 68.6581C46.2107 72.2876 42.838 74.1665 40.6493 75.3858L40.542 75.4459C39.9654 75.7668 39.0406 76.3761 38.3137 77.1861C37.5835 78.0001 37.1149 78.9424 37.2725 79.9634C39.3795 93.6193 50.9258 107.613 70.6121 107.613H86.5371V107.61H93.0382C93.7521 105.914 95.4299 104.722 97.3874 104.722C99.9924 104.722 102.104 106.833 102.104 109.438C102.104 112.042 99.9924 114.154 97.3874 114.154C95.4067 114.154 93.7117 112.933 93.0133 111.204H88.6178V111.205H70.6121C49.2429 111.205 36.2775 95.9913 33.7508 80.6687ZM108.724 48.0524C108.724 49.1037 107.872 49.9559 106.821 49.9559C105.77 49.9559 104.917 49.1037 104.917 48.0524C104.917 47.0012 105.77 46.149 106.821 46.149C107.872 46.149 108.724 47.0012 108.724 48.0524ZM99.2935 109.449C99.2935 110.5 98.4413 111.352 97.3897 111.352C96.3387 111.352 95.4865 110.5 95.4865 109.449C95.4865 108.398 96.3387 107.545 97.3897 107.545C98.4413 107.545 99.2935 108.398 99.2935 109.449Z" fill="black"/>
<path fill-rule="evenodd" clip-rule="evenodd" d="M86.5373 101.73V101.729H70.6123C56.7088 101.729 44.8737 91.3491 43.0818 77.5811C42.9531 76.5977 43.6467 75.6976 44.6286 75.5681C45.6111 75.4345 46.5157 76.1369 46.6439 77.1174C48.203 89.0991 58.5081 98.1369 70.6123 98.1369L102.461 98.1363C103.168 96.4256 104.853 95.2214 106.821 95.2214C109.425 95.2214 111.537 97.3327 111.537 99.9378C111.537 102.543 109.425 104.654 106.821 104.654C104.849 104.654 103.162 103.445 102.457 101.73H86.5373ZM108.724 99.947C108.724 100.999 107.872 101.851 106.821 101.851C105.77 101.851 104.918 100.999 104.918 99.947C104.918 98.896 105.77 98.0438 106.821 98.0438C107.872 98.0438 108.724 98.896 108.724 99.947Z" fill="black"/>
</g>
<defs>
<clipPath id="clip0_7819_26898">
<rect width="148" height="148" fill="white"/>
</clipPath>
</defs>
</svg>
