<svg width="40" height="40" viewBox="0 0 40 40" fill="none" xmlns="http://www.w3.org/2000/svg">
<path d="M15 21.25C17.418 21.25 19.375 19.293 19.375 16.875C19.375 14.457 17.418 12.5 15 12.5C12.582 12.5 10.625 14.457 10.625 16.875C10.625 19.293 12.582 21.25 15 21.25ZM18 22.5H17.6758C16.8633 22.8906 15.9609 23.125 15 23.125C14.0391 23.125 13.1406 22.8906 12.3242 22.5H12C9.51562 22.5 7.5 24.5156 7.5 27V28.125C7.5 29.1602 8.33984 30 9.375 30H20.625C21.6602 30 22.5 29.1602 22.5 28.125V27C22.5 24.5156 20.4844 22.5 18 22.5ZM26.25 21.25C28.3203 21.25 30 19.5703 30 17.5C30 15.4297 28.3203 13.75 26.25 13.75C24.1797 13.75 22.5 15.4297 22.5 17.5C22.5 19.5703 24.1797 21.25 26.25 21.25ZM28.125 22.5H27.9766C27.4336 22.6875 26.8594 22.8125 26.25 22.8125C25.6406 22.8125 25.0664 22.6875 24.5234 22.5H24.375C23.5781 22.5 22.8438 22.7305 22.1992 23.1016C23.1523 24.1289 23.75 25.4922 23.75 27V28.5C23.75 28.5859 23.7305 28.668 23.7266 28.75H30.625C31.6602 28.75 32.5 27.9102 32.5 26.875C32.5 24.457 30.543 22.5 28.125 22.5Z" fill="white"/>
</svg>
