<svg width="25" height="24" viewBox="0 0 25 24" fill="none" xmlns="http://www.w3.org/2000/svg">
<g clip-path="url(#clip0_3318_23767)">
<path d="M6.85634 18.1429C6.85634 18.6274 7.29435 19.0229 7.82929 19.0229H8.8034V22.1074C8.8034 22.8389 9.4547 23.4286 10.2634 23.4286C11.071 23.4286 11.7234 22.8377 11.7234 22.1074V19.024H13.6693V22.1074C13.6693 22.8389 14.3218 23.4286 15.1293 23.4286C15.9369 23.4286 16.5893 22.8377 16.5893 22.1074V19.024H17.5623C18.0984 19.024 18.5352 18.6274 18.5352 18.144V9.33258H6.85634V18.1417V18.1429ZM4.42338 9.3337C3.61582 9.3337 2.96338 9.92456 2.96338 10.6549V16.8217C2.96338 17.5531 3.61582 18.1429 4.42338 18.1429C5.23096 18.1429 5.88338 17.5531 5.88338 16.8217V10.6549C5.88338 9.92344 5.23096 9.3337 4.42338 9.3337ZM20.9682 9.3337C20.1606 9.3337 19.5082 9.92456 19.5082 10.6549V16.8217C19.5082 17.5531 20.1606 18.1429 20.9682 18.1429C21.7758 18.1429 22.4282 17.5531 22.4282 16.8217V10.6549C22.4282 9.92344 21.7758 9.3337 20.9682 9.3337ZM16.132 4.18971L17.4015 3.04001C17.4461 3.0016 17.4819 2.95398 17.5064 2.90043C17.5309 2.84688 17.5436 2.78864 17.5436 2.72972C17.5436 2.67079 17.5309 2.61256 17.5064 2.559C17.4819 2.50545 17.4461 2.45784 17.4015 2.41943C17.3064 2.33662 17.1847 2.29101 17.0587 2.29101C16.9327 2.29101 16.811 2.33662 16.7159 2.41943L15.2753 3.7177C14.4639 3.35465 13.5851 3.16733 12.6964 3.168C11.761 3.168 10.8862 3.37026 10.1026 3.72229L8.65739 2.41486C8.56225 2.33174 8.44029 2.28595 8.31407 2.28595C8.18784 2.28595 8.06588 2.33174 7.97074 2.41486C7.92614 2.45327 7.89035 2.50088 7.86581 2.55443C7.84127 2.60798 7.82856 2.66622 7.82856 2.72515C7.82856 2.78407 7.84127 2.84231 7.86581 2.89586C7.89035 2.94941 7.92614 2.99702 7.97074 3.03544L9.24595 4.18973C7.8008 5.15428 6.85634 6.70399 6.85634 8.45257H18.5364C18.5364 6.70057 17.5863 5.14971 16.132 4.18971ZM10.7493 6.69143H9.77633V5.81142H10.7493V6.69143ZM15.6152 6.69143H14.6422V5.81142H15.6152V6.69143Z" fill="#2FC2B0"/>
</g>
<defs>
<clipPath id="clip0_3318_23767">
<rect width="24" height="24" fill="white" transform="translate(0.625)"/>
</clipPath>
</defs>
</svg>
