<svg width="32" height="33" viewBox="0 0 32 33" fill="none" xmlns="http://www.w3.org/2000/svg">
<path d="M8.60321 22.7499C8.60321 23.3229 9.12113 23.7905 9.75368 23.7905H10.9055V27.4378C10.9055 28.3027 11.6756 29 12.6319 29C13.5868 29 14.3582 28.3013 14.3582 27.4378V23.7918H16.6592V27.4378C16.6592 28.3027 17.4307 29 18.3856 29C19.3405 29 20.112 28.3013 20.112 27.4378V23.7918H21.2624C21.8963 23.7918 22.4129 23.3229 22.4129 22.7513V12.3323H8.60321V22.7486V22.7499ZM5.72637 12.3336C4.77148 12.3336 4 13.0322 4 13.8958V21.1877C4 22.0526 4.77148 22.75 5.72637 22.75C6.68129 22.75 7.45274 22.0526 7.45274 21.1877V13.8958C7.45274 13.0309 6.68129 12.3336 5.72637 12.3336ZM25.2897 12.3336C24.3348 12.3336 23.5633 13.0322 23.5633 13.8958V21.1877C23.5633 22.0526 24.3348 22.75 25.2897 22.75C26.2446 22.75 27.0161 22.0526 27.0161 21.1877V13.8958C27.0161 13.0309 26.2446 12.3336 25.2897 12.3336ZM19.5711 6.25109L21.0722 4.89163C21.125 4.84621 21.1673 4.78991 21.1963 4.72659C21.2253 4.66327 21.2404 4.59441 21.2404 4.52473C21.2404 4.45505 21.2253 4.38619 21.1963 4.32287C21.1673 4.25954 21.125 4.20325 21.0722 4.15783C20.9598 4.05991 20.8159 4.00598 20.6669 4.00598C20.518 4.00598 20.3741 4.05991 20.2616 4.15783L18.5582 5.69297C17.5987 5.26367 16.5596 5.04218 15.5087 5.04297C14.4027 5.04297 13.3683 5.28214 12.4417 5.6984L10.7329 4.15243C10.6204 4.05415 10.4762 4 10.3269 4C10.1776 4 10.0334 4.05415 9.92094 4.15243C9.8682 4.19784 9.82587 4.25414 9.79685 4.31746C9.76784 4.38079 9.75282 4.44965 9.75282 4.51933C9.75282 4.58901 9.76784 4.65786 9.79685 4.72119C9.82587 4.78451 9.8682 4.84081 9.92094 4.88623L11.4288 6.25112C9.71999 7.39164 8.60321 9.22409 8.60321 11.2917H22.4142C22.4142 9.22005 21.2908 7.38624 19.5711 6.25109ZM13.2064 9.20924H12.0559V8.16868H13.2064V9.20924ZM18.9601 9.20924H17.8096V8.16868H18.9601V9.20924Z" fill="white"/>
</svg>
