<svg width="32" height="33" viewBox="0 0 32 33" fill="none" xmlns="http://www.w3.org/2000/svg">
<path d="M27.3332 17.8087V23.8333H21.3332V19.8327H19.3332V27.926H17.3332V17.8333H23.3332V21.8327H25.3332V17.8087H27.3332ZM14.6665 17.8333V27.8333H4.6665V17.8333H14.6665ZM27.3332 25.8333V27.8333H21.3332V25.8333H27.3332ZM12.6665 19.8333H6.6665V25.8333H12.6665V19.8333ZM10.6665 21.8333V23.8333H8.6665V21.8333H10.6665ZM14.6665 5.16666V15.1667H4.6665V5.16666H14.6665ZM27.3332 5.16666V15.1667H17.3332V5.16666H27.3332ZM12.6665 7.16666H6.6665V13.1667H12.6665V7.16666ZM25.3332 7.16666H19.3332V13.1667H25.3332V7.16666ZM10.6665 9.16666V11.1667H8.6665V9.16666H10.6665ZM23.3332 9.16666V11.1667H21.3332V9.16666H23.3332Z" fill="white"/>
</svg>
