<svg width="296" height="148" viewBox="0 0 296 148" fill="none" xmlns="http://www.w3.org/2000/svg">
<g clip-path="url(#clip0_7823_26954)">
<path d="M280 0H16C7.16344 0 0 7.16344 0 16V132C0 140.837 7.16345 148 16 148H280C288.837 148 296 140.837 296 132V16C296 7.16344 288.837 0 280 0Z" fill="white"/>
<path fill-rule="evenodd" clip-rule="evenodd" d="M47.4487 70.9851L47.4499 70.9764C48.6844 61.7703 56.5699 54.6706 66.1143 54.6706H78.2463C78.6198 53.7988 79.4852 53.1875 80.494 53.1875C81.8445 53.1875 82.9389 54.282 82.9389 55.6321C82.9389 56.9823 81.8445 58.0767 80.494 58.0767C79.4638 58.0767 78.5827 57.4394 78.2232 56.538H66.1143C57.4956 56.538 50.3779 62.9647 49.2926 71.2874C49.2455 71.7147 48.8797 72.0835 48.3682 72.0835C47.8817 72.0835 47.482 71.7112 47.4382 71.236L47.4487 70.9851ZM81.4786 55.6337C81.4786 56.1786 81.0369 56.6203 80.4923 56.6203C79.9471 56.6203 79.5054 56.1786 79.5054 55.6337C79.5054 55.0888 79.9471 54.6472 80.4923 54.6472C81.0369 54.6472 81.4786 55.0888 81.4786 55.6337Z" fill="black"/>
<path fill-rule="evenodd" clip-rule="evenodd" d="M47.5106 77.4567C47.3357 76.412 47.6967 75.5581 48.2714 74.8644C48.8395 74.1793 49.6255 73.6382 50.3322 73.1982C50.417 73.1456 50.5175 73.089 50.6219 73.03L50.6255 73.0277C51.311 72.6403 52.3043 72.0651 52.5518 70.9227C52.5626 70.873 52.5736 70.8233 52.5849 70.7736C52.6255 70.5955 52.6694 70.4186 52.7165 70.2434C54.3868 64.0234 60.1048 59.5915 66.6162 59.5915H83.135C83.5085 58.7191 84.3745 58.1074 85.3839 58.1074C86.7338 58.1074 87.8282 59.2018 87.8282 60.5523C87.8282 61.9022 86.7338 62.9966 85.3839 62.9966C84.3514 62.9966 83.4697 62.3572 83.1107 61.4536L74.8707 61.4542V61.453H66.6162C61.0235 61.453 56.101 65.2108 54.5745 70.5099C54.5208 70.6967 54.4713 70.8846 54.4261 71.0748C54.4138 71.1268 54.4018 71.1788 54.3901 71.2314C53.9688 73.1127 52.2206 74.0862 51.0862 74.7181L51.0306 74.7493C50.7317 74.9158 50.2524 75.2315 49.8756 75.6518C49.4972 76.0732 49.2543 76.5617 49.336 77.0913C50.4281 84.1687 56.4126 91.4219 66.6162 91.4219H74.8707V91.4207H78.24C78.61 90.5414 79.4795 89.9234 80.4941 89.9234C81.8446 89.9234 82.939 91.0178 82.939 92.3677C82.939 93.7182 81.8446 94.8126 80.4941 94.8126C79.4674 94.8126 78.5892 94.1795 78.2273 93.2834H75.9489H66.6162C55.5404 93.2834 48.8202 85.3984 47.5106 77.4567ZM86.3702 60.5512C86.3702 61.0957 85.9285 61.5374 85.3839 61.5374C84.8387 61.5374 84.397 61.0957 84.397 60.5512C84.397 60.006 84.8387 59.5643 85.3839 59.5643C85.9285 59.5643 86.3702 60.006 86.3702 60.5512ZM81.4821 92.3735C81.4821 92.9186 81.0405 93.3603 80.4959 93.3603C79.9507 93.3603 79.509 92.9186 79.509 92.3735C79.509 91.8289 79.9507 91.3872 80.4959 91.3872C81.0405 91.3872 81.4821 91.8289 81.4821 92.3735Z" fill="black"/>
<path fill-rule="evenodd" clip-rule="evenodd" d="M74.8706 88.3731L66.6162 88.3725C59.4098 88.3725 53.2756 82.9925 52.3468 75.8561C52.2802 75.3468 52.6396 74.8802 53.1486 74.8132C53.6578 74.7438 54.1267 75.108 54.1931 75.6162C55.0012 81.8264 60.3424 86.5109 66.6162 86.5109L83.1234 86.5104C83.4905 85.6241 84.3634 84.9997 85.3838 84.9997C86.7338 84.9997 87.8282 86.0941 87.8282 87.444C87.8282 88.794 86.7338 89.8889 85.3838 89.8889C84.3617 89.8889 83.4876 89.2622 83.1216 88.3731H74.8706ZM86.3701 87.4492C86.3701 87.9938 85.9284 88.4355 85.3838 88.4355C84.8387 88.4355 84.397 87.9938 84.397 87.4492C84.397 86.9041 84.8387 86.4624 85.3838 86.4624C85.9284 86.4624 86.3701 86.9041 86.3701 87.4492Z" fill="black"/>
<path d="M107.596 60.2734H122.031C122.806 60.2734 123.435 60.9024 123.435 61.6777V63.8486C123.435 64.6244 122.806 65.2528 122.031 65.2528H107.596C106.945 65.2528 106.362 65.3546 105.844 65.5581C105.327 65.7639 104.885 66.0518 104.516 66.4206C104.144 66.7895 103.86 67.2393 103.662 67.7711C103.465 68.2995 103.366 68.8892 103.366 69.5396V78.5179C103.445 78.9914 103.543 79.4764 103.662 79.973C103.784 80.4725 103.991 80.9252 104.285 81.3322C104.578 81.7415 104.986 82.0797 105.509 82.3468C106.035 82.6174 106.731 82.7521 107.596 82.7521H122.031C122.806 82.7521 123.435 83.3811 123.435 84.1564V86.3226C123.435 87.0984 122.806 87.7269 122.031 87.7269H107.596C106.46 87.7269 105.447 87.5835 104.555 87.2956C103.661 87.0082 102.872 86.6296 102.189 86.159C101.507 85.6855 100.923 85.134 100.438 84.5032C99.9532 83.8702 99.5543 83.2152 99.2404 82.5388C98.9299 81.8624 98.7033 81.1767 98.5611 80.4824C98.4212 79.7857 98.3518 79.1307 98.3518 78.5179V69.5049C98.3518 68.8921 98.4212 68.2371 98.5611 67.5399C98.7033 66.8461 98.9299 66.1564 99.2404 65.4708C99.5543 64.788 99.9532 64.1347 100.438 63.5104C100.923 62.886 101.507 62.3345 102.189 61.8552C102.872 61.3759 103.664 60.9926 104.564 60.7047C105.464 60.4174 106.475 60.2734 107.596 60.2734Z" fill="black"/>
<path d="M132.701 69.4656V61.6783C132.701 60.9024 133.33 60.2734 134.105 60.2734H136.276C137.052 60.2734 137.68 60.9024 137.68 61.6777V69.4656C137.68 70.116 137.782 70.6999 137.985 71.2168C138.191 71.7336 138.479 72.1765 138.848 72.5453C139.217 72.917 139.666 73.202 140.198 73.3992C140.727 73.5969 141.316 73.6958 141.967 73.6958H150.945C151.419 73.6171 151.904 73.5183 152.4 73.3992C152.9 73.2772 153.353 73.0697 153.759 72.7766C154.169 72.4829 154.507 72.0747 154.775 71.5521C155.045 71.0266 155.179 70.3311 155.179 69.4656V61.6783C155.179 60.9024 155.808 60.2734 156.584 60.2734H158.75C159.526 60.2734 160.155 60.9024 160.155 61.6777V69.4656C160.155 70.6011 160.011 71.6145 159.723 72.506C159.435 73.4009 159.057 74.1895 158.586 74.8717C158.113 75.5544 157.561 76.1378 156.931 76.6228C156.297 77.1079 155.643 77.5073 154.966 77.8207C154.29 78.1317 153.604 78.3583 152.91 78.5006C152.213 78.6399 151.558 78.7098 150.945 78.7098H148.937V86.3226C148.937 87.0984 148.308 87.7269 147.532 87.7269H145.327C144.552 87.7269 143.923 87.0984 143.923 86.3226V78.7098H141.932C141.319 78.7098 140.664 78.6399 139.967 78.5006C139.273 78.3583 138.584 78.1317 137.898 77.8207C137.216 77.5073 136.562 77.1079 135.938 76.6228C135.313 76.1378 134.762 75.5544 134.282 74.8717C133.803 74.1895 133.42 73.398 133.132 72.4973C132.845 71.5972 132.701 70.5866 132.701 69.4656Z" fill="black"/>
<path d="M169.581 68.3938C169.581 66.8982 169.846 65.6379 170.374 64.6128C170.906 63.5844 171.569 62.7478 172.365 62.1032C173.163 61.4586 174.029 60.9926 174.961 60.7047C175.89 60.4174 176.758 60.2734 177.562 60.2734H194.504C195.279 60.2734 195.908 60.9024 195.908 61.6777V63.8486C195.908 64.6244 195.279 65.2528 194.504 65.2528H177.562C176.618 65.2528 175.882 65.5407 175.353 66.1154C174.822 66.6877 174.556 67.4468 174.556 68.3938C174.556 69.3494 174.822 70.1045 175.353 70.6589C175.882 71.2139 176.618 71.4914 177.562 71.4914H189.05C189.587 71.5058 190.154 71.5798 190.753 71.7134C191.354 71.8469 191.951 72.0545 192.543 72.3366C193.136 72.6153 193.701 72.9696 194.238 73.3992C194.773 73.8264 195.247 74.3386 195.662 74.937C196.078 75.5382 196.407 76.228 196.651 77.0061C196.893 77.7848 197.013 78.6659 197.013 79.6505C197.013 80.6321 196.888 81.5149 196.638 82.2994C196.391 83.0834 196.063 83.776 195.654 84.3772C195.244 84.9756 194.766 85.4866 194.22 85.9104C193.672 86.3318 193.102 86.6758 192.513 86.9429C191.926 87.21 191.331 87.4077 190.727 87.5355C190.12 87.6633 189.547 87.7269 189.01 87.7269H171.212C170.436 87.7269 169.808 87.0984 169.808 86.3226V84.1523C169.808 83.3765 170.436 82.748 171.212 82.748H189.01C189.969 82.748 190.712 82.4677 191.241 81.9069C191.772 81.3467 192.038 80.5945 192.038 79.6505C192.038 79.1885 191.967 78.7665 191.825 78.3826C191.685 78.0022 191.485 77.6715 191.223 77.3894C190.962 77.1079 190.642 76.8916 190.265 76.7408C189.887 76.5864 189.469 76.5095 189.01 76.5095H177.562C176.758 76.5095 175.89 76.3661 174.961 76.0782C174.029 75.7909 173.163 75.3278 172.365 74.689C171.569 74.0525 170.906 73.2177 170.374 72.184C169.846 71.1497 169.581 69.8865 169.581 68.3938Z" fill="black"/>
<path d="M212.164 86.3226C212.164 87.0984 211.535 87.7269 210.76 87.7269H208.589C207.813 87.7269 207.185 87.0984 207.185 86.3226V61.6777C207.185 60.9024 207.813 60.2734 208.589 60.2734H210.76C211.535 60.2734 212.164 60.9024 212.164 61.6777V86.3226Z" fill="black"/>
<path d="M247.158 60.2734H232.723C231.601 60.2734 230.591 60.4174 229.691 60.7047C228.791 60.9926 227.999 61.3759 227.316 61.8552C226.634 62.3345 226.05 62.886 225.565 63.5104C225.08 64.1347 224.681 64.788 224.367 65.4708C224.056 66.1564 223.83 66.8461 223.687 67.5399C223.548 68.2371 223.479 68.8921 223.479 69.5049V78.5179C223.479 79.1307 223.548 79.7857 223.687 80.4824C223.83 81.1767 224.056 81.8624 224.367 82.5388C224.681 83.2152 225.08 83.8702 225.565 84.5032C226.05 85.134 226.634 85.6855 227.316 86.159C227.999 86.6296 228.788 87.0082 229.682 87.2956C230.573 87.5835 231.587 87.7269 232.723 87.7269H247.158C247.933 87.7269 248.562 87.0984 248.562 86.3226V84.1564C248.562 83.3811 247.933 82.7521 247.158 82.7521H232.723C231.858 82.7521 231.161 82.6174 230.636 82.3468C230.113 82.0797 229.705 81.7415 229.412 81.3322C229.118 80.9252 228.911 80.4725 228.789 79.973C228.67 79.4764 228.571 78.9914 228.493 78.5179V69.5396C228.493 68.8892 228.592 68.2995 228.789 67.7711C228.987 67.2393 229.271 66.7895 229.643 66.4206C230.012 66.0518 230.454 65.7639 230.971 65.5581C231.489 65.3546 232.072 65.2528 232.723 65.2528H247.158C247.933 65.2528 248.562 64.6244 248.562 63.8486V61.6777C248.562 60.9024 247.933 60.2734 247.158 60.2734Z" fill="black"/>
</g>
<defs>
<clipPath id="clip0_7823_26954">
<rect width="296" height="148" fill="white"/>
</clipPath>
</defs>
</svg>
