<svg width="148" height="148" viewBox="0 0 148 148" fill="none" xmlns="http://www.w3.org/2000/svg">
<g clip-path="url(#clip0_7823_27059)">
<path d="M132 0H16C7.16344 0 0 7.16344 0 16V132C0 140.837 7.16344 148 16 148H132C140.837 148 148 140.837 148 132V16C148 7.16344 140.837 0 132 0Z" fill="white"/>
<path fill-rule="evenodd" clip-rule="evenodd" d="M53.8154 52.4852L53.8166 52.4764C55.0511 43.2702 62.9364 36.1706 72.4806 36.1706H84.6126C84.986 35.2988 85.8521 34.6875 86.8609 34.6875C88.2114 34.6875 89.3058 35.782 89.3058 37.1321C89.3058 38.4823 88.2114 39.5767 86.8609 39.5767C85.8307 39.5767 84.9496 38.9394 84.59 38.038H72.4806C63.8625 38.038 56.7446 44.4649 55.6593 52.7874C55.6122 53.2146 55.2464 53.5833 54.7349 53.5833C54.2484 53.5833 53.8486 53.2112 53.8049 52.736L53.8154 52.4852ZM87.8455 37.1337C87.8455 37.6786 87.4038 38.1203 86.8586 38.1203C86.314 38.1203 85.8723 37.6786 85.8723 37.1337C85.8723 36.5888 86.314 36.1471 86.8586 36.1471C87.4038 36.1471 87.8455 36.5888 87.8455 37.1337Z" fill="black"/>
<path fill-rule="evenodd" clip-rule="evenodd" d="M53.8773 58.9566C53.7024 57.912 54.0634 57.0579 54.6381 56.3645C55.2062 55.6792 55.9922 55.1382 56.6989 54.6983C56.7837 54.6456 56.8842 54.5888 56.9886 54.5298L56.9922 54.5277C57.6777 54.1401 58.671 53.5652 58.9185 52.4224C58.9295 52.3727 58.9405 52.3231 58.9514 52.2736C58.9919 52.0954 59.0358 51.9185 59.0832 51.7431C60.7535 45.5235 66.4717 41.0916 72.9831 41.0916L89.5019 41.0912C89.8753 40.219 90.7408 39.6074 91.7502 39.6074C93.1007 39.6074 94.1951 40.7019 94.1951 42.052C94.1951 43.4021 93.1007 44.4966 91.7502 44.4966C90.7183 44.4966 89.836 43.8573 89.4776 42.9537L81.237 42.9539V42.9531H72.9831C67.3903 42.9531 62.4676 46.7106 60.9413 52.01C60.8876 52.1964 60.8379 52.3848 60.7928 52.5749C60.7806 52.6269 60.7685 52.6789 60.7569 52.7311C60.3355 54.6125 58.5872 55.5863 57.4529 56.2183L57.3973 56.2493C57.0984 56.4158 56.6191 56.7317 56.2423 57.1515C55.8639 57.5732 55.621 58.0617 55.7027 58.5913C56.7948 65.6687 62.7792 72.9218 72.9831 72.9218H81.237V72.9207H84.6069C84.9769 72.0413 85.8464 71.4233 86.861 71.4233C88.2115 71.4233 89.3059 72.5177 89.3059 73.8676C89.3059 75.2181 88.2115 76.3125 86.861 76.3125C85.8343 76.3125 84.9561 75.6795 84.5936 74.7834H82.3158H72.9831C61.9068 74.7834 55.1869 66.8983 53.8773 58.9566ZM92.7371 42.051C92.7371 42.5959 92.2954 43.0376 91.7502 43.0376C91.2056 43.0376 90.7639 42.5959 90.7639 42.051C90.7639 41.5062 91.2056 41.0645 91.7502 41.0645C92.2954 41.0645 92.7371 41.5062 92.7371 42.051ZM87.849 73.8734C87.849 74.4186 87.4073 74.8603 86.8622 74.8603C86.3176 74.8603 85.8759 74.4186 85.8759 73.8734C85.8759 73.3288 86.3176 72.8871 86.8622 72.8871C87.4073 72.8871 87.849 73.3288 87.849 73.8734Z" fill="black"/>
<path fill-rule="evenodd" clip-rule="evenodd" d="M81.237 69.8723L72.9831 69.8717C65.7768 69.8717 59.6423 64.4917 58.7139 57.3554C58.6468 56.846 59.0064 56.3793 59.5151 56.3122C60.0245 56.2428 60.4933 56.6071 60.5598 57.1153C61.368 63.3256 66.7093 68.0101 72.9831 68.0101L89.4903 68.0096C89.8569 67.1233 90.7304 66.4989 91.7502 66.4989C93.1007 66.4989 94.1951 67.5933 94.1951 68.9432C94.1951 70.2932 93.1007 71.3881 91.7502 71.3881C90.7287 71.3881 89.854 70.7614 89.4886 69.8723H81.237ZM92.7371 68.9484C92.7371 69.493 92.2954 69.9347 91.7502 69.9347C91.2056 69.9347 90.7639 69.493 90.7639 68.9484C90.7639 68.4033 91.2056 67.9616 91.7502 67.9616C92.2954 67.9616 92.7371 68.4033 92.7371 68.9484Z" fill="black"/>
<path d="M24.0707 92.5H35.0136C35.6016 92.5 36.0783 92.9764 36.0783 93.5643V95.2103C36.0783 95.7982 35.6016 96.2746 35.0136 96.2746H24.0707C23.5775 96.2746 23.135 96.352 22.7431 96.5058C22.3512 96.6625 22.0154 96.8805 21.7358 97.1597C21.454 97.4395 21.2383 97.7806 21.0885 98.1835C20.9388 98.5842 20.864 99.0311 20.864 99.5242V106.331C20.9234 106.69 20.9983 107.058 21.0885 107.434C21.181 107.813 21.3384 108.156 21.5608 108.464C21.7831 108.775 22.0925 109.031 22.4888 109.234C22.8873 109.438 23.4146 109.541 24.0707 109.541H35.0136C35.6016 109.541 36.0783 110.018 36.0783 110.606V112.248C36.0783 112.836 35.6016 113.312 35.0136 113.312H24.0707C23.2098 113.312 22.4414 113.203 21.7656 112.985C21.0874 112.767 20.4897 112.48 19.9723 112.124C19.4549 111.765 19.0124 111.346 18.6447 110.869C18.277 110.389 17.9743 109.892 17.7365 109.379C17.5009 108.866 17.3291 108.346 17.2213 107.82C17.1156 107.292 17.0627 106.795 17.0627 106.331V99.4982C17.0627 99.0334 17.1156 98.5368 17.2213 98.0084C17.3291 97.4823 17.5009 96.9597 17.7365 96.4399C17.9743 95.9225 18.277 95.427 18.6447 94.9536C19.0124 94.4807 19.4549 94.0621 19.9723 93.699C20.4897 93.3354 21.0896 93.0452 21.7722 92.8272C22.4547 92.6093 23.2209 92.5 24.0707 92.5Z" fill="black"/>
<path d="M43.103 99.4681V93.5643C43.103 92.9764 43.5796 92.5 44.1676 92.5H45.8132C46.4012 92.5 46.8778 92.9764 46.8778 93.5643V99.4681C46.8778 99.9613 46.9548 100.404 47.109 100.796C47.2653 101.188 47.4833 101.523 47.7629 101.803C48.0425 102.085 48.3837 102.301 48.7866 102.451C49.1873 102.6 49.6343 102.675 50.1275 102.675H56.934C57.2928 102.615 57.6605 102.541 58.0369 102.451C58.4156 102.358 58.759 102.2 59.0671 101.978C59.3776 101.756 59.6343 101.446 59.8366 101.05C60.0419 100.652 60.1442 100.124 60.1442 99.4681V93.5643C60.1442 92.9764 60.6206 92.5 61.2085 92.5H62.851C63.4389 92.5 63.9153 92.9764 63.9153 93.5643V99.4681C63.9153 100.329 63.8066 101.097 63.5887 101.774C63.3707 102.452 63.0834 103.05 62.7267 103.566C62.3677 104.084 61.9497 104.527 61.4716 104.894C60.9917 105.262 60.4951 105.565 59.9823 105.803C59.4689 106.038 58.9498 106.21 58.4237 106.318C57.8953 106.424 57.3985 106.476 56.934 106.476H55.4115V112.248C55.4115 112.836 54.9349 113.312 54.3469 113.312H52.6749C52.0869 113.312 51.6103 112.836 51.6103 112.248V106.476H50.1011C49.6365 106.476 49.14 106.424 48.6116 106.318C48.0854 106.21 47.5625 106.038 47.0429 105.803C46.5255 105.565 46.0301 105.262 45.5568 104.894C45.0834 104.527 44.6651 104.084 44.3018 103.566C43.9385 103.05 43.6479 102.45 43.43 101.767C43.212 101.085 43.103 100.318 43.103 99.4681Z" fill="black"/>
<path d="M71.062 98.6559C71.062 97.5222 71.2626 96.5665 71.6633 95.7895C72.0662 95.0096 72.5692 94.376 73.1722 93.8869C73.778 93.3984 74.4342 93.0452 75.1407 92.8272C75.8454 92.6093 76.5022 92.5 77.1121 92.5H89.9557C90.5437 92.5 91.0206 92.9764 91.0206 93.5643V95.2103C91.0206 95.7982 90.5437 96.2746 89.9557 96.2746H77.1121C76.3969 96.2746 75.8385 96.4925 75.4378 96.9284C75.0349 97.3626 74.8337 97.9384 74.8337 98.6559C74.8337 99.3803 75.0349 99.9526 75.4378 100.373C75.8385 100.794 76.3969 101.004 77.1121 101.004H85.821C86.2285 101.015 86.6587 101.071 87.1125 101.172C87.5681 101.274 88.0207 101.431 88.4699 101.645C88.9186 101.856 89.347 102.125 89.7545 102.451C90.1592 102.774 90.5194 103.163 90.8345 103.616C91.149 104.072 91.3993 104.595 91.5837 105.185C91.767 105.775 91.8583 106.443 91.8583 107.19C91.8583 107.934 91.7635 108.603 91.5739 109.197C91.3871 109.792 91.138 110.317 90.8275 110.773C90.5171 111.227 90.1552 111.614 89.7412 111.935C89.325 112.255 88.8937 112.515 88.4468 112.718C88.0017 112.921 87.5507 113.07 87.0923 113.167C86.6327 113.264 86.1985 113.312 85.7915 113.312H72.2986C71.7107 113.312 71.2337 112.836 71.2337 112.248V110.602C71.2337 110.014 71.7107 109.538 72.2986 109.538H85.7915C86.5182 109.538 87.0813 109.325 87.4825 108.9C87.8849 108.475 88.0866 107.905 88.0866 107.19C88.0866 106.84 88.0329 106.519 87.9248 106.229C87.819 105.94 87.6669 105.689 87.4692 105.475C87.2709 105.262 87.0287 105.098 86.7425 104.983C86.4563 104.867 86.1389 104.808 85.7915 104.808H77.1121C76.5022 104.808 75.8454 104.7 75.1407 104.482C74.4342 104.264 73.778 103.912 73.1722 103.428C72.5692 102.946 72.0662 102.313 71.6633 101.529C71.2626 100.745 71.062 99.7878 71.062 98.6559Z" fill="black"/>
<path d="M103.344 112.248C103.344 112.836 102.868 113.312 102.28 113.312H100.634C100.046 113.312 99.5693 112.836 99.5693 112.248V93.5643C99.5693 92.9764 100.046 92.5 100.634 92.5H102.28C102.868 92.5 103.344 92.9764 103.344 93.5643V112.248Z" fill="black"/>
<path d="M129.873 92.5H118.93C118.08 92.5 117.314 92.6093 116.631 92.8272C115.949 93.0452 115.349 93.3354 114.831 93.699C114.314 94.0621 113.872 94.4807 113.504 94.9536C113.136 95.427 112.833 95.9225 112.596 96.4399C112.36 96.9597 112.188 97.4823 112.081 98.0084C111.975 98.5368 111.922 99.0334 111.922 99.4982V106.331C111.922 106.795 111.975 107.292 112.081 107.82C112.188 108.346 112.36 108.866 112.596 109.379C112.833 109.892 113.136 110.389 113.504 110.869C113.872 111.346 114.314 111.765 114.831 112.124C115.349 112.48 115.947 112.767 116.625 112.985C117.301 113.203 118.069 113.312 118.93 113.312H129.873C130.461 113.312 130.937 112.836 130.937 112.248V110.606C130.937 110.018 130.461 109.541 129.873 109.541H118.93C118.273 109.541 117.746 109.438 117.348 109.234C116.952 109.031 116.643 108.775 116.42 108.464C116.197 108.156 116.04 107.813 115.948 107.434C115.858 107.058 115.782 106.69 115.723 106.331V99.5242C115.723 99.0311 115.798 98.5842 115.948 98.1835C116.097 97.7806 116.313 97.4395 116.595 97.1597C116.874 96.8805 117.21 96.6625 117.602 96.5058C117.994 96.352 118.437 96.2746 118.93 96.2746H129.873C130.461 96.2746 130.937 95.7982 130.937 95.2103V93.5643C130.937 92.9764 130.461 92.5 129.873 92.5Z" fill="black"/>
</g>
<defs>
<clipPath id="clip0_7823_27059">
<rect width="148" height="148" fill="white"/>
</clipPath>
</defs>
</svg>
