<svg width="52" height="52" viewBox="0 0 52 52" fill="none" xmlns="http://www.w3.org/2000/svg">
<path d="M14.0477 9.54909C21.1747 4.37105 30.8253 4.37105 37.9523 9.54909C45.0792 14.7271 48.0615 23.9054 45.3392 32.2837C42.6169 40.6619 34.8094 46.3344 26 46.3344C17.1906 46.3344 9.38305 40.6619 6.6608 32.2837C3.93854 23.9054 6.92075 14.7271 14.0477 9.54909Z" stroke="#21E9FA" stroke-width="1.4"/>
<path fill-rule="evenodd" clip-rule="evenodd" d="M19.3333 22.6666C18.8731 22.6666 18.5 23.0397 18.5 23.5V31.8333C18.5 32.2935 18.8731 32.6666 19.3333 32.6666H32.6666C33.1269 32.6666 33.5 32.2935 33.5 31.8333V23.5C33.5 23.0397 33.1269 22.6666 32.6666 22.6666H19.3333ZM16.8333 23.5C16.8333 22.1192 17.9526 21 19.3333 21H32.6666C34.0474 21 35.1666 22.1192 35.1666 23.5V31.8333C35.1666 33.214 34.0474 34.3333 32.6666 34.3333H19.3333C17.9526 34.3333 16.8333 33.214 16.8333 31.8333V23.5Z" fill="#21E9FA"/>
<path fill-rule="evenodd" clip-rule="evenodd" d="M22.5655 18.3989C23.0344 17.93 23.6703 17.6666 24.3333 17.6666H27.6666C28.3297 17.6666 28.9656 17.93 29.4344 18.3989C29.9033 18.8677 30.1666 19.5036 30.1666 20.1666V33.5C30.1666 33.9602 29.7935 34.3333 29.3333 34.3333C28.8731 34.3333 28.5 33.9602 28.5 33.5V20.1666C28.5 19.9456 28.4122 19.7337 28.2559 19.5774C28.0996 19.4211 27.8877 19.3333 27.6666 19.3333H24.3333C24.1123 19.3333 23.9003 19.4211 23.7441 19.5774C23.5878 19.7337 23.5 19.9456 23.5 20.1666V33.5C23.5 33.9602 23.1269 34.3333 22.6666 34.3333C22.2064 34.3333 21.8333 33.9602 21.8333 33.5V20.1666C21.8333 19.5036 22.0967 18.8677 22.5655 18.3989Z" fill="#21E9FA"/>
</svg>
