<svg width="155" height="32" viewBox="0 0 155 32" fill="none" xmlns="http://www.w3.org/2000/svg">
<path fill-rule="evenodd" clip-rule="evenodd" d="M0.00804647 13.6822L0.00897895 13.6756C0.958002 6.59822 7.02014 1.14013 14.3576 1.14013H23.6843C23.9714 0.469911 24.6367 0 25.4123 0C26.4505 0 27.2918 0.841423 27.2918 1.87933C27.2918 2.91729 26.4505 3.75867 25.4123 3.75867C24.6203 3.75867 23.9429 3.26876 23.6665 2.57574H14.3576C7.73183 2.57574 2.25991 7.51645 1.4256 13.9147C1.38934 14.2431 1.10818 14.5267 0.714936 14.5267C0.340891 14.5267 0.0336445 14.2405 0 13.8751L0.00804647 13.6822ZM26.1692 1.88058C26.1692 2.29947 25.8296 2.63902 25.4109 2.63902C24.9918 2.63902 24.6523 2.29947 24.6523 1.88058C24.6523 1.46169 24.9918 1.12214 25.4109 1.12214C25.8296 1.12214 26.1692 1.46169 26.1692 1.88058Z" fill="url(#paint0_linear_655_7173)"/>
<path fill-rule="evenodd" clip-rule="evenodd" d="M0.0555718 18.6573C-0.0789171 17.8542 0.19864 17.1978 0.640418 16.6645C1.07713 16.1378 1.68144 15.7218 2.22473 15.3836C2.28988 15.3431 2.36713 15.2996 2.4474 15.2542L2.45015 15.2525C2.97713 14.9547 3.74082 14.5125 3.93109 13.6342C3.93935 13.596 3.94784 13.5578 3.95651 13.5196C3.98771 13.3827 4.02144 13.2467 4.05767 13.112C5.34171 8.33023 9.73758 4.92312 14.7434 4.92312H27.4425C27.7296 4.25245 28.3954 3.78223 29.1714 3.78223C30.2091 3.78223 31.0505 4.62356 31.0505 5.66178C31.0505 6.69956 30.2091 7.5409 29.1714 7.5409C28.3776 7.5409 27.6998 7.04934 27.4238 6.35467L21.0891 6.35512V6.35423H14.7434C10.4438 6.35423 6.65953 9.24312 5.48607 13.3169C5.44478 13.4605 5.40673 13.6049 5.37198 13.7511C5.36251 13.7911 5.35327 13.8311 5.34429 13.8716C5.02038 15.3178 3.67647 16.0662 2.80438 16.552L2.76162 16.576C2.53184 16.704 2.16335 16.9467 1.87371 17.2698C1.58277 17.5938 1.39602 17.9693 1.45882 18.3765C2.29842 23.8173 6.89913 29.3933 14.7434 29.3933H21.0891V29.3925H23.6794C23.9638 28.7165 24.6323 28.2413 25.4123 28.2413C26.4505 28.2413 27.2918 29.0827 27.2918 30.1205C27.2918 31.1587 26.4505 32 25.4123 32C24.6229 32 23.9478 31.5133 23.6696 30.8245H21.918H14.7434C6.2286 30.8245 1.06233 24.7627 0.0555718 18.6573ZM29.9296 5.66089C29.9296 6.07956 29.59 6.41912 29.1714 6.41912C28.7523 6.41912 28.4127 6.07956 28.4127 5.66089C28.4127 5.24178 28.7523 4.90223 29.1714 4.90223C29.59 4.90223 29.9296 5.24178 29.9296 5.66089ZM26.1718 30.1249C26.1718 30.544 25.8323 30.8836 25.4136 30.8836C24.9945 30.8836 24.6549 30.544 24.6549 30.1249C24.6549 29.7062 24.9945 29.3667 25.4136 29.3667C25.8323 29.3667 26.1718 29.7062 26.1718 30.1249Z" fill="url(#paint1_linear_655_7173)"/>
<path fill-rule="evenodd" clip-rule="evenodd" d="M21.0893 27.0491L14.7435 27.0487C9.20352 27.0487 4.48774 22.9127 3.7737 17.4265C3.72245 17.0349 3.99881 16.6762 4.39005 16.6247C4.78156 16.5713 5.14201 16.8513 5.19308 17.242C5.81432 22.0162 9.92041 25.6176 14.7435 25.6176L27.4338 25.6171C27.716 24.9358 28.3871 24.4558 29.1715 24.4558C30.2093 24.4558 31.0506 25.2971 31.0506 26.3349C31.0506 27.3727 30.2093 28.2145 29.1715 28.2145C28.3857 28.2145 27.7138 27.7327 27.4324 27.0491H21.0893ZM29.9298 26.3389C29.9298 26.7576 29.5902 27.0971 29.1715 27.0971C28.7524 27.0971 28.4129 26.7576 28.4129 26.3389C28.4129 25.9198 28.7524 25.5802 29.1715 25.5802C29.5902 25.5802 29.9298 25.9198 29.9298 26.3389Z" fill="url(#paint2_linear_655_7173)"/>
<path d="M46.2473 5.44678H57.3442C57.9402 5.44678 58.4238 5.93033 58.4238 6.52633V8.19523C58.4238 8.79167 57.9402 9.27478 57.3442 9.27478H46.2473C45.7469 9.27478 45.2984 9.353 44.9006 9.50945C44.5033 9.66767 44.1629 9.889 43.8793 10.1726C43.5935 10.4561 43.3749 10.8019 43.2229 11.2108C43.0713 11.617 42.9953 12.0703 42.9953 12.5703V19.4726C43.0557 19.8366 43.1313 20.2094 43.2229 20.5912C43.3166 20.9752 43.4762 21.3232 43.702 21.6361C43.9273 21.9508 44.2411 22.2108 44.6429 22.4161C45.0469 22.6241 45.582 22.7277 46.2473 22.7277H57.3442C57.9402 22.7277 58.4238 23.2112 58.4238 23.8072V25.4726C58.4238 26.069 57.9402 26.5521 57.3442 26.5521H46.2473C45.374 26.5521 44.5949 26.4419 43.9095 26.2206C43.222 25.9997 42.6157 25.7086 42.0908 25.3468C41.5664 24.9828 41.1175 24.5588 40.7446 24.0739C40.3717 23.5872 40.0651 23.0837 39.8237 22.5637C39.5851 22.0437 39.4108 21.5166 39.3015 20.9828C39.194 20.4472 39.1406 19.9437 39.1406 19.4726V12.5437C39.1406 12.0726 39.194 11.569 39.3015 11.033C39.4108 10.4997 39.5851 9.96945 39.8237 9.44234C40.0651 8.91745 40.3717 8.41523 40.7446 7.93523C41.1175 7.45523 41.5664 7.03122 42.0908 6.66278C42.6157 6.29433 43.2242 5.99967 43.9162 5.77833C44.6082 5.55745 45.3855 5.44678 46.2473 5.44678Z" fill="white"/>
<path d="M65.5474 12.5134V6.52678C65.5474 5.93033 66.0305 5.44678 66.6269 5.44678H68.2954C68.8918 5.44678 69.3749 5.93033 69.3749 6.52633V12.5134C69.3749 13.0134 69.4531 13.4623 69.6096 13.8597C69.7678 14.257 69.9891 14.5975 70.2727 14.881C70.5563 15.1668 70.902 15.3859 71.3109 15.5374C71.7171 15.6895 72.1705 15.7655 72.6705 15.7655H79.5727C79.9367 15.705 80.3096 15.629 80.6914 15.5374C81.0754 15.4437 81.4238 15.2841 81.7363 15.0588C82.0509 14.833 82.3109 14.5192 82.5167 14.1174C82.7243 13.7134 82.8278 13.1788 82.8278 12.5134V6.52678C82.8278 5.93033 83.3114 5.44678 83.9074 5.44678H85.5732C86.1692 5.44678 86.6527 5.93033 86.6527 6.52633V12.5134C86.6527 13.3863 86.542 14.1655 86.3212 14.8508C86.0998 15.5388 85.8087 16.145 85.4469 16.6695C85.0829 17.1943 84.6589 17.6428 84.1745 18.0157C83.6874 18.3886 83.1843 18.6957 82.6638 18.9366C82.1438 19.1757 81.6167 19.3499 81.0829 19.4592C80.5474 19.5663 80.0438 19.6201 79.5727 19.6201H78.0287V25.4726C78.0287 26.069 77.5456 26.5521 76.9491 26.5521H75.2536C74.6576 26.5521 74.174 26.069 74.174 25.4726V19.6201H72.6438C72.1727 19.6201 71.6691 19.5663 71.1331 19.4592C70.5998 19.3499 70.0696 19.1757 69.5425 18.9366C69.018 18.6957 68.5154 18.3886 68.0354 18.0157C67.5554 17.6428 67.1314 17.1943 66.7629 16.6695C66.3945 16.145 66.0998 15.5366 65.8789 14.8441C65.6576 14.1521 65.5474 13.3752 65.5474 12.5134Z" fill="white"/>
<path d="M93.8999 11.6894C93.8999 10.5397 94.103 9.57078 94.5092 8.78278C94.9181 7.99211 95.4279 7.349 96.0399 6.85345C96.6537 6.35789 97.319 5.99967 98.0359 5.77833C98.7501 5.55745 99.4168 5.44678 100.035 5.44678H113.059C113.655 5.44678 114.139 5.93033 114.139 6.52633V8.19523C114.139 8.79167 113.655 9.27478 113.059 9.27478H100.035C99.3097 9.27478 98.7435 9.49611 98.3372 9.93789C97.9288 10.3779 97.7244 10.9614 97.7244 11.6894C97.7244 12.4241 97.9288 13.0046 98.3372 13.4308C98.7435 13.8575 99.3097 14.0708 100.035 14.0708H108.867C109.279 14.0819 109.716 14.1388 110.176 14.2414C110.638 14.3441 111.097 14.5037 111.552 14.7206C112.008 14.9348 112.442 15.2072 112.855 15.5374C113.266 15.8659 113.631 16.2597 113.95 16.7197C114.27 17.1819 114.523 17.7121 114.711 18.3103C114.896 18.909 114.988 19.5863 114.988 20.3432C114.988 21.0979 114.892 21.7766 114.7 22.3797C114.511 22.9823 114.258 23.5148 113.943 23.977C113.629 24.437 113.261 24.8299 112.842 25.1557C112.42 25.4797 111.982 25.7441 111.529 25.9495C111.078 26.1548 110.62 26.3068 110.156 26.405C109.689 26.5032 109.249 26.5521 108.836 26.5521H95.1537C94.5572 26.5521 94.0741 26.069 94.0741 25.4726V23.8041C94.0741 23.2077 94.5572 22.7246 95.1537 22.7246H108.836C109.573 22.7246 110.145 22.509 110.551 22.0779C110.959 21.6472 111.164 21.069 111.164 20.3432C111.164 19.9881 111.109 19.6637 111 19.3686C110.893 19.0761 110.739 18.8219 110.538 18.605C110.337 18.3886 110.091 18.2223 109.801 18.1063C109.511 17.9877 109.189 17.9286 108.836 17.9286H100.035C99.4168 17.9286 98.7501 17.8183 98.0359 17.597C97.319 17.3761 96.6537 17.0201 96.0399 16.529C95.4279 16.0397 94.9181 15.3979 94.5092 14.6032C94.103 13.8081 93.8999 12.837 93.8999 11.6894Z" fill="white"/>
<path d="M126.637 25.4726C126.637 26.069 126.154 26.5521 125.558 26.5521H123.889C123.292 26.5521 122.809 26.069 122.809 25.4726V6.52633C122.809 5.93033 123.292 5.44678 123.889 5.44678H125.558C126.154 5.44678 126.637 5.93033 126.637 6.52633V25.4726Z" fill="white"/>
<path d="M153.538 5.44678H142.441C141.579 5.44678 140.802 5.55745 140.11 5.77833C139.418 5.99967 138.81 6.29433 138.285 6.66278C137.76 7.03122 137.311 7.45523 136.938 7.93523C136.566 8.41523 136.258 8.91745 136.018 9.44234C135.778 9.96945 135.605 10.4997 135.495 11.033C135.388 11.569 135.334 12.0726 135.334 12.5437V19.4726C135.334 19.9437 135.388 20.4472 135.495 20.9828C135.605 21.5166 135.778 22.0437 136.018 22.5637C136.258 23.0837 136.566 23.5872 136.938 24.0739C137.311 24.5588 137.76 24.9828 138.285 25.3468C138.81 25.7086 139.416 25.9997 140.103 26.2206C140.789 26.4419 141.568 26.5521 142.441 26.5521H153.538C154.134 26.5521 154.618 26.069 154.618 25.4726V23.8072C154.618 23.2112 154.134 22.7277 153.538 22.7277H142.441C141.776 22.7277 141.241 22.6241 140.837 22.4161C140.435 22.2108 140.121 21.9508 139.896 21.6361C139.67 21.3232 139.51 20.9752 139.417 20.5912C139.325 20.2094 139.249 19.8366 139.189 19.4726V12.5703C139.189 12.0703 139.265 11.617 139.417 11.2108C139.569 10.8019 139.787 10.4561 140.073 10.1726C140.357 9.889 140.697 9.66767 141.094 9.50945C141.492 9.353 141.941 9.27478 142.441 9.27478H153.538C154.134 9.27478 154.618 8.79167 154.618 8.19523V6.52633C154.618 5.93033 154.134 5.44678 153.538 5.44678Z" fill="white"/>
<defs>
<linearGradient id="paint0_linear_655_7173" x1="27.4323" y1="2.44453" x2="18.9843" y2="30.696" gradientUnits="userSpaceOnUse">
<stop offset="0.103627" stop-color="#19FFE0"/>
<stop offset="1" stop-color="#9D47FF"/>
</linearGradient>
<linearGradient id="paint1_linear_655_7173" x1="27.4323" y1="2.44454" x2="18.9843" y2="30.696" gradientUnits="userSpaceOnUse">
<stop offset="0.103627" stop-color="#19FFE0"/>
<stop offset="1" stop-color="#9D47FF"/>
</linearGradient>
<linearGradient id="paint2_linear_655_7173" x1="27.4324" y1="2.44432" x2="18.9844" y2="30.6958" gradientUnits="userSpaceOnUse">
<stop offset="0.103627" stop-color="#19FFE0"/>
<stop offset="1" stop-color="#9D47FF"/>
</linearGradient>
</defs>
</svg>
