<svg width="168" height="48" viewBox="0 0 168 48" fill="none" xmlns="http://www.w3.org/2000/svg">
<g clip-path="url(#clip0_316_3193)">
<path fill-rule="evenodd" clip-rule="evenodd" d="M37.8261 0.293304C37.8261 0.0598264 38.2757 -0.470658 38.6853 -0.720366C39.1806 -1.02247 40.1557 -1.01332 40.7105 -0.701587C42.2504 0.16393 42.0036 2.44584 40.3096 3.00484C39.4622 3.28458 38.3897 2.87025 37.9765 2.10351L37.7734 1.72674L29.54 1.72768C24.6565 1.72825 20.8819 1.77717 20.2631 1.84789C11.8454 2.81032 4.72535 8.59876 2.18537 16.5448C1.78728 17.7905 1.30896 20.1458 1.30896 20.8608C1.30896 21.5803 0.902522 22.0054 0.374936 21.8381C-0.0199122 21.7127 -0.0811228 21.3221 0.0899861 20.0183C1.40889 9.97025 9.23411 2.11742 19.4085 0.631459C20.4351 0.481568 22.0735 0.451544 29.2333 0.451544C36.4168 0.451544 37.8261 0.425577 37.8261 0.293304ZM4.8378 14.7696C7.69158 8.69166 13.5016 4.53868 20.379 3.66077C20.5703 3.63631 24.222 3.60963 28.4939 3.60152C35.9123 3.58737 36.283 3.59665 36.7494 3.80833C37.0182 3.93041 37.8089 4.58076 38.5083 5.25488L39.779 6.47977H43.0655H46.352L46.5584 6.10301C46.8227 5.62075 47.1844 5.35863 47.8146 5.19251C49.2605 4.81169 50.62 6.18427 50.2377 7.63905C49.9884 8.58794 49.2427 9.14606 48.2246 9.14606C47.5081 9.14606 46.9606 8.84959 46.5786 8.25461L46.3467 7.89362L42.9848 7.85107C40.1385 7.81514 39.5558 7.77851 39.1847 7.61227C38.9435 7.50433 38.1691 6.85317 37.4637 6.16537L36.1812 4.91474H28.338C20.6365 4.91474 20.4714 4.9195 19.1933 5.1786C15.4038 5.94673 12.3774 7.57007 9.64828 10.2983C6.92634 13.0195 5.36133 15.9392 4.6624 19.5995C4.52456 20.3219 4.30279 21.1449 4.16983 21.4287C4.03673 21.7126 3.42858 22.4705 2.81833 23.1129C1.67401 24.3176 1.4228 24.7705 1.42675 25.6213C1.42941 26.1995 1.83957 28.0588 2.24217 29.3174C2.72664 30.8321 4.16043 33.6728 5.10455 34.9886C6.00727 36.2468 7.79162 38.1583 8.92969 39.0863C11.513 41.1929 14.8686 42.8053 18.0241 43.4561C19.8545 43.8336 21.2165 43.9243 25.0485 43.9243C28.0626 43.9243 29.0598 43.9467 29.8276 43.5382C30.2598 43.3083 30.6194 42.9417 31.2252 42.3578C33.008 40.6392 33.0173 40.6355 35.5902 40.5833C37.5189 40.5441 37.7074 40.522 37.7694 40.3268C37.8783 39.9836 38.5954 39.4234 39.0998 39.2877C39.9356 39.0626 40.9493 39.5326 41.366 40.3385C41.6327 40.8543 41.5855 41.8453 41.2722 42.3104C40.8398 42.9519 40.3253 43.2288 39.565 43.2288C38.8072 43.2288 38.2687 42.941 37.884 42.3304L37.6522 41.9624L35.7028 41.9581C34.4651 41.9552 33.6609 42.0017 33.5001 42.0853C33.3609 42.1575 32.6984 42.7493 32.0279 43.4C31.3763 44.0322 30.9914 44.4353 30.5258 44.6922C29.6497 45.1758 28.4878 45.1415 24.7263 45.1415C20.6972 45.1415 19.8504 45.1111 18.756 44.9273C15.3443 44.3542 11.9662 42.951 9.15911 40.9411C8.00667 40.1158 5.82886 38.0422 4.87709 36.8639C2.31058 33.6861 0.355809 29.1202 0.18215 25.8976C0.0989139 24.3548 0.336217 23.8083 1.7146 22.3679C2.30443 21.7516 2.86622 21.0937 2.96313 20.9062C3.06005 20.7184 3.22478 20.0954 3.32935 19.5216C3.58798 18.1024 4.24529 16.0316 4.8378 14.7696ZM31.7657 6.25487C31.9247 5.97872 32.2064 5.72102 32.5176 5.56696C33.9138 4.87591 35.5076 5.82582 35.5076 7.34922C35.5076 8.14762 34.9387 8.97392 34.1959 9.25457C33.3252 9.58361 32.1979 9.20196 31.7654 8.43186L31.508 7.97361L25.8856 8.02009C20.3345 8.06611 20.2477 8.07041 19.0458 8.36209C16.028 9.09429 13.612 10.4829 11.5312 12.6811C9.48207 14.8459 8.24931 17.3474 7.70143 20.452C7.52221 21.4678 7.46169 21.6271 7.199 21.7747C6.93319 21.9238 6.86664 21.9204 6.59699 21.7436C6.21814 21.4954 6.20679 21.1446 6.52639 19.576C7.19147 16.3127 8.72623 13.5391 11.1784 11.1689C13.2871 9.1309 15.6968 7.82243 18.6981 7.08572C19.9082 6.78871 19.9489 6.78674 25.7134 6.74177L31.5116 6.69644L31.7657 6.25487ZM40.6084 9.71462C40.6084 9.4446 41.0918 8.92874 41.5636 8.69514C42.199 8.38063 42.7491 8.3855 43.3941 8.71133C44.6026 9.32196 44.8857 10.7721 44.0015 11.823C43.4177 12.5168 42.3833 12.7084 41.5409 12.2788C41.1026 12.0551 40.6084 11.5038 40.6084 11.2385C40.6084 11.1399 38.0673 11.1168 30.6676 11.1479C21.7985 11.1853 20.3292 11.1709 19.0106 11.6095C18.6788 11.7199 18.3565 11.859 17.9282 12.0348C15.8181 12.901 13.876 14.4867 12.6279 16.3624C11.8312 17.5599 11.4893 18.319 11.0296 19.9126C10.8341 20.5901 10.5945 21.3011 10.4975 21.4924C10.4004 21.6837 9.85544 22.3232 9.2865 22.9138C8.17279 24.0696 7.80751 24.6944 7.80344 25.4499C7.79951 26.1933 8.32617 27.855 9.01281 29.2655C11.0598 33.4701 14.9522 36.4369 19.6835 37.3983C20.4927 37.5628 22.0579 37.5924 31.9718 37.6306L43.3326 37.6745L43.4884 37.3193C43.7535 36.7142 44.3587 36.3466 45.1724 36.2966C45.5145 36.2755 46.0017 36.3334 46.286 36.5265C47.4481 37.3158 47.6313 38.7485 46.6907 39.6891C45.7644 40.6154 44.2776 40.44 43.5645 39.3204L43.3326 38.9563L31.7978 38.9125C20.5398 38.8696 20.2373 38.8627 19.1877 38.6226C13.9753 37.4304 10.0549 34.3786 7.79209 29.752C6.9086 27.9455 6.58968 26.8186 6.58644 25.4918C6.58285 24.0508 6.78688 23.6372 8.27122 22.0764C9.16768 21.1338 9.43501 20.7744 9.53666 20.3753C9.8688 19.0723 10.1755 18.1698 10.5846 17.2927C12.3659 13.4728 16.0582 10.6938 20.2568 10.0129C21.1194 9.87293 23.0259 9.84243 30.9574 9.84215C37.8754 9.84177 40.6084 9.80573 40.6084 9.71462ZM3.20298 25.0551C3.13528 24.1751 3.15048 24.0494 3.3414 23.9098C3.66426 23.6738 4.0649 23.7195 4.25016 24.0138C4.34046 24.1573 4.45049 24.5877 4.49453 24.9701C5.08275 30.0784 8.16618 35.0034 12.5539 37.8431C14.4427 39.0656 17.1222 40.1267 19.2777 40.5059C20.7127 40.7582 25.0741 40.8916 25.0741 40.683C25.0741 40.4029 25.565 39.8577 26.0315 39.6197C26.9834 39.1341 28.2542 39.5346 28.7396 40.4733C29.1801 41.325 28.8652 42.5544 28.0722 43.0792C27.1096 43.7162 25.8073 43.457 25.2735 42.5221L25.0161 42.0712L23.1613 42.0694C19.3095 42.0656 16.7768 41.5165 13.7712 40.0334C9.40742 37.8802 5.9864 34.1184 4.2788 29.5951C3.80465 28.339 3.28773 26.1577 3.20298 25.0551ZM9.64762 25.6078C9.37229 24.3672 9.37276 24.2677 9.65572 23.9848C10.1173 23.5233 10.6368 23.7839 10.7606 24.5392C11.0189 26.1166 11.8094 28.1166 12.6811 29.3983C13.2235 30.1958 14.6973 31.6932 15.5101 32.2726C16.4649 32.9533 17.9128 33.6598 19.1291 34.0388L20.1472 34.3558L26.871 34.3865L33.5947 34.4172L33.8977 33.9748C34.9705 32.408 37.5943 33.2165 37.5943 35.1139C37.5943 36.0155 36.8093 36.9505 35.894 37.1391C34.8012 37.3643 33.9094 36.6674 33.7083 36.0341C33.6391 35.8157 33.473 35.8094 27.7585 35.8094C20.5407 35.8094 19.5139 35.7023 17.1892 34.7073C13.4072 33.0886 10.54 29.6289 9.64762 25.6078ZM44.7479 43.4742C44.91 43.19 45.1859 42.9358 45.5015 42.7797C47.3538 41.8628 49.2361 43.9454 48.1029 45.6582C47.7428 46.2022 47.0489 46.5841 46.4123 46.5881C45.7938 46.5921 45.0455 46.1709 44.7493 45.6521L44.492 45.2013L33.5255 45.2005C33.1786 45.2005 32.8952 44.9236 32.8871 44.5768C32.8787 44.2184 33.167 43.9234 33.5255 43.9234L44.492 43.9226L44.7479 43.4742ZM40.5317 1.10364C40.5317 1.55656 40.1645 1.92372 39.7115 1.92372C39.2586 1.92372 38.8915 1.55656 38.8915 1.10364C38.8915 0.650716 39.2586 0.283553 39.7115 0.283553C40.1645 0.283553 40.5317 0.650716 40.5317 1.10364ZM49.1461 7.14C49.1461 7.59292 48.7789 7.96008 48.3259 7.96008C47.873 7.96008 47.5059 7.59292 47.5059 7.14C47.5059 6.68707 47.873 6.3199 48.3259 6.3199C48.7789 6.3199 49.1461 6.68707 49.1461 7.14ZM42.5097 11.3241C42.9625 11.3241 43.3298 10.9569 43.3298 10.504C43.3298 10.0511 42.9625 9.68394 42.5097 9.68394C42.0568 9.68394 41.6896 10.0511 41.6896 10.504C41.6896 10.9569 42.0568 11.3241 42.5097 11.3241ZM40.3945 41.2184C40.3945 41.6713 40.0273 42.0385 39.5744 42.0385C39.1215 42.0385 38.7544 41.6713 38.7544 41.2184C38.7544 40.7654 39.1215 40.3983 39.5744 40.3983C40.0273 40.3983 40.3945 40.7654 40.3945 41.2184ZM46.463 45.433C46.9159 45.433 47.283 45.0659 47.283 44.6129C47.283 44.16 46.9159 43.7928 46.463 43.7928C46.0101 43.7928 45.6429 44.16 45.6429 44.6129C45.6429 45.0659 46.0101 45.433 46.463 45.433ZM46.1103 38.3337C46.1103 38.7866 45.7432 39.1538 45.2903 39.1538C44.8373 39.1538 44.4701 38.7866 44.4701 38.3337C44.4701 37.8808 44.8373 37.5137 45.2903 37.5137C45.7432 37.5137 46.1103 37.8808 46.1103 38.3337ZM35.5423 35.9914C35.9952 35.9914 36.3624 35.6243 36.3624 35.1714C36.3624 34.7184 35.9952 34.3512 35.5423 34.3512C35.0894 34.3512 34.7223 34.7184 34.7223 35.1714C34.7223 35.6243 35.0894 35.9914 35.5423 35.9914ZM27.7402 41.386C27.7402 41.8389 27.3731 42.206 26.9202 42.206C26.4672 42.206 26.1 41.8389 26.1 41.386C26.1 40.933 26.4672 40.5658 26.9202 40.5658C27.3731 40.5658 27.7402 40.933 27.7402 41.386ZM33.5115 8.17397C33.9644 8.17397 34.3316 7.80681 34.3316 7.35389C34.3316 6.90096 33.9644 6.53379 33.5115 6.53379C33.0586 6.53379 32.6914 6.90096 32.6914 7.35389C32.6914 7.80681 33.0586 8.17397 33.5115 8.17397Z" fill="url(#paint0_linear_316_3193)"/>
<path d="M86.6679 24.1026C85.4307 22.6952 85.2084 21.6477 85.2084 17.2242V13.2216H89.8913V17.0446C89.8913 20.8223 89.8986 20.8748 90.5121 21.4499L91.133 22.0317L95.4352 21.9593C101.158 21.8626 100.829 22.1579 100.946 17.028L101.033 13.2216H105.418V17.451C105.418 21.5331 105.397 21.7219 104.783 22.8756C103.73 24.8586 101.691 26.124 99.2131 26.3347L97.7778 26.4568V32.4003H93.0953V26.4558L91.5214 26.3372C89.653 26.1968 87.7315 25.312 86.6679 24.1026Z" fill="#21E9FA"/>
<path d="M111.743 16.1998C112.471 14.9463 113.879 13.8723 115.296 13.4907C115.761 13.3656 119.163 13.2539 122.857 13.2424L129.573 13.2216V17.6119H123.089C115.814 17.6119 115.672 17.6401 115.672 19.0868C115.672 19.5464 115.811 20.0526 115.98 20.2114C116.198 20.417 117.829 20.5339 121.637 20.6174C127.691 20.75 128.234 20.8863 129.877 22.6857C131.937 24.9414 131.804 28.4333 129.578 30.5852C127.812 32.2928 127.152 32.4003 118.437 32.4003H111.089V28.01H118.401C124.86 28.01 125.767 27.9654 126.165 27.6275C126.726 27.1511 126.749 25.9895 126.208 25.4287C125.84 25.0472 125.339 25.006 121.071 25.006C114.598 25.006 113.216 24.5655 111.746 22.0329C111.169 21.0389 111.061 20.5781 111.061 19.1138C111.061 17.6512 111.17 17.1883 111.743 16.1998Z" fill="#21E9FA"/>
<path d="M137.214 32.4003V13.2216H141.896V32.4003H137.214Z" fill="#21E9FA"/>
<path fill-rule="evenodd" clip-rule="evenodd" d="M61.4625 18.4101C61.4625 15.5387 63.9453 13.2111 67.008 13.2111H80.0599V17.6014H67.008C66.5316 17.6014 66.1454 17.9635 66.1454 18.4101V27.2367C66.1454 27.6833 66.5316 28.0455 67.008 28.0455H80.0599V32.4357H67.008C63.9453 32.4357 61.4625 30.1081 61.4625 27.2367V18.4101Z" fill="#21E9FA"/>
<path fill-rule="evenodd" clip-rule="evenodd" d="M148.931 18.4101C148.931 15.5387 151.414 13.2111 154.477 13.2111H167.529V17.6014H154.477C154 17.6014 153.615 17.9635 153.615 18.4101V27.2367C153.615 27.6833 154 28.0455 154.477 28.0455H167.529V32.4357H154.477C151.414 32.4357 148.931 30.1081 148.931 27.2367V18.4101Z" fill="#21E9FA"/>
</g>
<defs>
<linearGradient id="paint0_linear_316_3193" x1="0" y1="22.8234" x2="27.4724" y2="19.2732" gradientUnits="userSpaceOnUse">
<stop stop-color="#8624D3"/>
<stop offset="1" stop-color="#54F2FF"/>
</linearGradient>
<clipPath id="clip0_316_3193">
<rect width="167.529" height="48" fill="white"/>
</clipPath>
</defs>
</svg>
