<svg width="24" height="24" viewBox="0 0 24 24" fill="none" xmlns="http://www.w3.org/2000/svg">
<path d="M15.4939 9.06444C15.8056 8.79168 15.8372 8.31786 15.5644 8.00613C15.2917 7.6944 14.8178 7.66282 14.5061 7.93558L11.0342 10.9735L10.0303 9.96968C9.73744 9.67679 9.26256 9.67679 8.96967 9.96968C8.67678 10.2626 8.67678 10.7374 8.96967 11.0303L10.4697 12.5303C10.7489 12.8095 11.1967 12.8245 11.4939 12.5644L15.4939 9.06444Z" fill="white"/>
<path fill-rule="evenodd" clip-rule="evenodd" d="M4 1C2.34315 1 1 2.34315 1 4V20C1 21.6569 2.34315 23 4 23H20C21.6569 23 23 21.6569 23 20V4C23 2.34315 21.6569 1 20 1H4ZM6 19C5.44772 19 5 19.4477 5 20C5 20.5523 5.44772 21 6 21H18C18.5523 21 19 20.5523 19 20C19 19.4477 18.5523 19 18 19H6ZM19 10C19 13.866 15.866 17 12 17C8.13401 17 5 13.866 5 10C5 6.13401 8.13401 3 12 3C15.866 3 19 6.13401 19 10Z" fill="white"/>
</svg>
